<svg width="124" height="208" viewBox="0 0 124 208" fill="none" xmlns="http://www.w3.org/2000/svg">
<path d="M62.0107 148.92L71.4502 130H76.2109V158H72.2109V137L63.5303 154.08H60.4502L51.8105 137.04V158H47.8105V130H52.5303L62.0107 148.92Z" fill="black"/>
<path d="M76.7852 107.88H47.2256V104.52H76.7852V107.88Z" fill="black"/>
<path d="M69.3662 70.3604C69.3661 72.9468 68.6469 74.9471 67.207 76.3604C65.767 77.7737 63.7928 78.4805 61.2861 78.4805C59.553 78.4804 58.0599 78.1595 56.8066 77.5195C55.5534 76.8529 54.58 75.8929 53.8867 74.6396C53.1935 73.3864 52.8467 71.8933 52.8467 70.1602H56.8867C56.8867 71.0666 57.033 71.8798 57.3262 72.5996C57.6195 73.3196 58.0732 73.8936 58.6865 74.3203C59.3265 74.7203 60.1671 74.9199 61.207 74.9199C62.2467 74.9199 63.0599 74.7202 63.6465 74.3203C64.2598 73.9203 64.7001 73.3864 64.9668 72.7197C65.2333 72.0266 65.3662 71.2401 65.3662 70.3604V50H69.3662V70.3604Z" fill="black"/>
<path fill-rule="evenodd" clip-rule="evenodd" d="M62 0C96.2417 0 124 27.7583 124 62V146L123.995 146.802C123.566 180.674 96.474 207.998 62.5 207.998C28.526 207.998 0.43415 180.674 0.00488281 146.802L0 146V62C5.15475e-07 27.7583 27.7583 0 62 0ZM62 3C29.4152 3 3 29.4152 3 62V146C3 178.585 29.9152 204.998 62.5 204.998C95.0848 204.998 121 178.585 121 146V62C121 29.4152 94.5848 3 62 3Z" fill="black"/>
</svg>
