<svg width="215" height="108" viewBox="0 0 215 108" fill="none" xmlns="http://www.w3.org/2000/svg">
<path d="M0 64V61.564C1.25067 60.5747 2.44533 59.5853 3.584 58.596C4.72267 57.6067 5.74933 56.6267 6.664 55.656C7.57867 54.6853 8.29733 53.7333 8.82 52.8C9.34267 51.8667 9.604 50.9707 9.604 50.112C9.604 49.552 9.50133 49.0293 9.296 48.544C9.09067 48.0587 8.764 47.6667 8.316 47.368C7.88667 47.0693 7.308 46.92 6.58 46.92C5.87067 46.92 5.264 47.0787 4.76 47.396C4.27467 47.7133 3.91067 48.1427 3.668 48.684C3.42533 49.2067 3.304 49.804 3.304 50.476H0.056C0.0933333 49.0573 0.401333 47.872 0.98 46.92C1.55867 45.968 2.34267 45.2587 3.332 44.792C4.32133 44.3067 5.432 44.064 6.664 44.064C7.98933 44.064 9.11867 44.3067 10.052 44.792C10.9853 45.2773 11.704 45.9587 12.208 46.836C12.712 47.7133 12.964 48.7493 12.964 49.944C12.964 50.8213 12.796 51.6893 12.46 52.548C12.1427 53.388 11.6947 54.2093 11.116 55.012C10.5373 55.796 9.884 56.5613 9.156 57.308C8.44667 58.036 7.70933 58.736 6.944 59.408C6.17867 60.0613 5.44133 60.668 4.732 61.228H13.496V64H0Z" fill="black"/>
<path d="M26.5241 64.336C24.7508 64.336 23.2294 63.916 21.9601 63.076C20.6908 62.2173 19.7108 61.032 19.0201 59.52C18.3481 57.9893 18.0121 56.216 18.0121 54.2C18.0121 52.184 18.3481 50.42 19.0201 48.908C19.7108 47.3773 20.6908 46.192 21.9601 45.352C23.2294 44.4933 24.7508 44.064 26.5241 44.064C28.2788 44.064 29.7814 44.4933 31.0321 45.352C32.3014 46.192 33.2721 47.3773 33.9441 48.908C34.6348 50.42 34.9801 52.184 34.9801 54.2C34.9801 56.216 34.6348 57.9893 33.9441 59.52C33.2721 61.032 32.3014 62.2173 31.0321 63.076C29.7814 63.916 28.2788 64.336 26.5241 64.336ZM26.4961 61.312C27.4854 61.312 28.3628 61.032 29.1281 60.472C29.8934 59.8933 30.4814 59.072 30.8921 58.008C31.3214 56.944 31.5361 55.6747 31.5361 54.2C31.5361 52.7253 31.3214 51.456 30.8921 50.392C30.4814 49.328 29.8934 48.516 29.1281 47.956C28.3628 47.3773 27.4854 47.088 26.4961 47.088C25.5068 47.088 24.6294 47.3773 23.8641 47.956C23.0988 48.516 22.5014 49.328 22.0721 50.392C21.6614 51.456 21.4561 52.7253 21.4561 54.2C21.4561 55.6747 21.6614 56.944 22.0721 58.008C22.5014 59.072 23.0988 59.8933 23.8641 60.472C24.6294 61.032 25.5068 61.312 26.4961 61.312Z" fill="black"/>
<path d="M107.668 28.48C105.935 28.48 104.441 28.16 103.188 27.52C101.935 26.8533 100.961 25.8933 100.268 24.64C99.5747 23.3867 99.228 21.8933 99.228 20.16H103.268C103.268 21.0667 103.415 21.88 103.708 22.6C104.001 23.32 104.455 23.8933 105.068 24.32C105.708 24.72 106.548 24.92 107.588 24.92C108.628 24.92 109.441 24.72 110.028 24.32C110.641 23.92 111.081 23.3867 111.348 22.72C111.615 22.0267 111.748 21.24 111.748 20.36V0H115.748V20.36C115.748 22.9467 115.028 24.9467 113.588 26.36C112.148 27.7733 110.175 28.48 107.668 28.48Z" fill="black"/>
<path d="M93.6071 57.88V54.52H123.167V57.88H93.6071Z" fill="black"/>
<path d="M94.1921 108V80H98.9121L108.392 98.92L117.832 80H122.592V108H118.592V87L109.912 104.08H106.832L98.1921 87.04V108H94.1921Z" fill="black"/>
<path d="M182.08 64V61.564C183.331 60.5747 184.525 59.5853 185.664 58.596C186.803 57.6067 187.829 56.6267 188.744 55.656C189.659 54.6853 190.377 53.7333 190.9 52.8C191.423 51.8667 191.684 50.9707 191.684 50.112C191.684 49.552 191.581 49.0293 191.376 48.544C191.171 48.0587 190.844 47.6667 190.396 47.368C189.967 47.0693 189.388 46.92 188.66 46.92C187.951 46.92 187.344 47.0787 186.84 47.396C186.355 47.7133 185.991 48.1427 185.748 48.684C185.505 49.2067 185.384 49.804 185.384 50.476H182.136C182.173 49.0573 182.481 47.872 183.06 46.92C183.639 45.968 184.423 45.2587 185.412 44.792C186.401 44.3067 187.512 44.064 188.744 44.064C190.069 44.064 191.199 44.3067 192.132 44.792C193.065 45.2773 193.784 45.9587 194.288 46.836C194.792 47.7133 195.044 48.7493 195.044 49.944C195.044 50.8213 194.876 51.6893 194.54 52.548C194.223 53.388 193.775 54.2093 193.196 55.012C192.617 55.796 191.964 56.5613 191.236 57.308C190.527 58.036 189.789 58.736 189.024 59.408C188.259 60.0613 187.521 60.668 186.812 61.228H195.576V64H182.08Z" fill="black"/>
<path d="M207.459 64.336C206.133 64.336 204.939 64.1027 203.875 63.636C202.811 63.1507 201.961 62.4787 201.327 61.62C200.711 60.7427 200.403 59.716 200.403 58.54C200.403 57.756 200.543 57.028 200.823 56.356C201.103 55.684 201.504 55.1053 202.027 54.62C202.549 54.116 203.156 53.7427 203.847 53.5C202.932 53.0893 202.204 52.52 201.663 51.792C201.14 51.0453 200.879 50.2147 200.879 49.3C200.879 48.348 201.131 47.48 201.635 46.696C202.139 45.912 202.876 45.2773 203.847 44.792C204.836 44.3067 206.04 44.064 207.459 44.064C208.877 44.064 210.072 44.3067 211.043 44.792C212.013 45.2773 212.751 45.912 213.255 46.696C213.759 47.48 214.011 48.348 214.011 49.3C214.011 50.196 213.74 51.0267 213.199 51.792C212.676 52.5387 211.957 53.108 211.043 53.5C211.752 53.7427 212.359 54.116 212.863 54.62C213.385 55.124 213.787 55.712 214.067 56.384C214.365 57.0373 214.515 57.756 214.515 58.54C214.515 59.716 214.197 60.7427 213.563 61.62C212.928 62.4787 212.079 63.1507 211.015 63.636C209.969 64.1027 208.784 64.336 207.459 64.336ZM207.459 61.508C208.691 61.508 209.615 61.2093 210.231 60.612C210.865 59.996 211.183 59.2213 211.183 58.288C211.183 57.2427 210.847 56.44 210.175 55.88C209.521 55.3013 208.616 55.012 207.459 55.012C206.301 55.012 205.377 55.3013 204.687 55.88C204.015 56.44 203.679 57.2427 203.679 58.288C203.679 59.2213 203.996 59.996 204.631 60.612C205.284 61.2093 206.227 61.508 207.459 61.508ZM207.459 52.464C208.467 52.464 209.251 52.2027 209.811 51.68C210.389 51.1387 210.679 50.4667 210.679 49.664C210.679 48.7493 210.389 48.0493 209.811 47.564C209.251 47.06 208.467 46.808 207.459 46.808C206.451 46.808 205.657 47.06 205.079 47.564C204.519 48.0493 204.239 48.7493 204.239 49.664C204.239 50.4853 204.519 51.1573 205.079 51.68C205.657 52.2027 206.451 52.464 207.459 52.464Z" fill="black"/>
</svg>
