<svg width="240" height="60" viewBox="0 0 240 60" fill="none" xmlns="http://www.w3.org/2000/svg">
<path d="M8.44 44.48C6.70667 44.48 5.21333 44.16 3.96 43.52C2.70667 42.8533 1.73333 41.8933 1.04 40.64C0.346667 39.3867 0 37.8933 0 36.16H4.04C4.04 37.0667 4.18667 37.88 4.48 38.6C4.77333 39.32 5.22667 39.8933 5.84 40.32C6.48 40.72 7.32 40.92 8.36 40.92C9.4 40.92 10.2133 40.72 10.8 40.32C11.4133 39.92 11.8533 39.3867 12.12 38.72C12.3867 38.0267 12.52 37.24 12.52 36.36V16H16.52V36.36C16.52 38.9467 15.8 40.9467 14.36 42.36C12.92 43.7733 10.9467 44.48 8.44 44.48Z" fill="black"/>
<path d="M131.859 59.9422C125.265 59.5977 118.441 57.7418 112.352 54.6443C113.28 54.0343 114.195 53.3918 115.094 52.7217C120.306 55.1749 126.137 56.7077 132.041 57.0162C132.665 57.0512 133.293 57.0688 133.908 57.0691H133.91C142.58 57.0691 149.823 53.5062 152.949 47.7401C151.955 48.6256 150.807 49.3973 149.52 50.0335C146.467 51.504 142.869 52.2497 138.826 52.2497C132.85 52.2497 126.82 50.631 122.803 49.4131L122.663 49.3687C121.797 49.0862 120.961 48.7968 120.145 48.5024C120.946 47.7549 121.725 46.9866 122.479 46.2001C122.874 46.3351 123.27 46.4673 123.667 46.5968L123.744 46.6212C131.258 48.8993 140.806 50.9439 148.122 47.4202C154.737 44.1476 155.822 37.0386 151.821 31.4036C151.211 30.5717 150.555 29.7676 149.858 28.9916C149.779 28.9038 149.635 29.0013 149.697 29.1006C150.473 30.3472 151.134 31.6363 151.662 32.9494C152.66 35.4364 152.761 38.0949 152.111 40.4388C152.024 40.7546 151.545 40.7219 151.51 40.3971C151.393 39.2976 151.14 38.1896 150.748 37.1004C148.003 29.486 141.974 24.0008 134.922 20.8597C135 18.9957 134.872 17.1788 134.533 15.4285C140.966 17.9572 146.89 21.7713 151.452 26.7204L151.503 26.7776C165.906 43.5358 153.238 61.139 131.859 59.9422ZM75.6464 53.5002C57.0434 34.4891 85.7325 2.20736 107.43 0.112867C116.94 -0.805227 127.561 3.92033 130.973 12.7332C140.397 37.0719 95.7995 74.0956 75.6464 53.5002ZM77.6494 47.9361C83.9884 51.1211 92.1942 48.6309 99.2755 44.5148C97.5137 42.4229 88.3496 30.4046 99.1262 19.4502C104.732 13.7516 113.412 11.8041 121.64 12.3825C121.455 9.1491 120.09 6.32331 116.9 4.46883C111.634 1.40729 104.7 2.82779 98.3253 5.86831C98.1001 5.97574 98.2489 6.29679 98.4861 6.21579C101.464 5.19888 104.522 4.54408 107.553 4.31285C109.7 4.14914 111.848 4.38378 113.859 4.98224C115.307 5.41317 116.666 5.97006 117.458 6.84264C117.596 6.99448 117.724 7.14862 117.844 7.30453C117.976 7.47484 117.799 7.7089 117.59 7.6371C107.167 4.06298 94.4001 10.1559 87.3022 16.41C80.2071 22.6616 72.3287 35.345 77.0342 45.2812C76.8738 45.2366 75.6641 43.987 74.6801 42.727C73.8352 41.6452 73.2837 40.36 73.1368 39.003C72.9571 37.3435 72.8738 36.4384 73.0221 34.8263C71.6555 40.2508 72.3998 45.2985 77.6494 47.9361ZM107.651 38.5365C109.062 37.3211 110.316 36.1147 111.361 34.9846C114.729 31.3417 119.369 24.3627 121.035 17.7738C120.999 17.7733 120.963 17.7712 120.927 17.7707C114.588 17.6934 107.274 19.5349 102.336 24.6449C102.145 24.8753 101.968 25.107 101.796 25.3393C102.172 23.6284 103.027 21.9508 104.419 20.3562C106.39 18.3208 108.84 16.7614 111.894 15.7773C111.937 15.7634 112.732 15.528 112.732 15.528C112.947 15.4661 114.389 15.1783 114.59 15.15C111.409 15.38 108.393 16.1282 105.577 17.7738C92.4906 25.4196 107.199 38.1734 107.651 38.5365ZM97.5666 28.0297C95.4731 35.9816 100.762 41.6066 101.873 42.9021C103.06 42.118 104.201 41.2997 105.28 40.4683C104.918 40.1693 98.4911 35.3733 97.5666 28.0297ZM122.374 37.5562C125.356 33.5042 127.464 29.2458 128.471 25.241C129.376 21.6455 129.407 18.3011 128.574 15.2725C128.048 18.3516 126.915 21.5478 125.469 24.6127C125.325 24.9184 124.84 24.7521 124.931 24.4285C126.4 19.1985 126.392 14.026 124.875 9.31868C124.725 8.85057 124.437 8.43343 124.063 8.09556C123.96 8.00251 123.856 7.91061 123.75 7.82013C124.128 8.72695 124.402 9.69567 124.565 10.7191C125.325 15.476 123.043 26.7949 113.683 36.9179C107.96 43.1066 95.367 52.3144 84.1307 52.3144C81.7692 52.3144 79.5613 51.9151 77.5473 51.1255C77.6661 51.2529 77.7866 51.3795 77.9105 51.5058L77.914 51.5094C78.1398 51.7398 78.4187 51.9196 78.7254 52.0393C80.8887 52.8833 83.1656 53.4156 85.5505 53.6194C89.6377 53.9687 93.9037 53.361 98.0772 51.956C98.3108 51.8773 98.4594 52.1934 98.2416 52.3057C94.8331 54.0625 90.8483 55.6439 86.7751 56.2538C87.9253 56.4684 89.1267 56.5766 90.3779 56.5768H90.3809C100.978 56.5768 114.134 48.7551 122.374 37.5562Z" fill="black"/>
<path d="M210.964 44V16H215.684L225.164 34.92L234.604 16H239.364V44H235.364V23L226.684 40.08H223.604L214.964 23.04V44H210.964Z" fill="black"/>
</svg>
