<svg width="180" height="144" viewBox="0 0 180 144" fill="none" xmlns="http://www.w3.org/2000/svg">
<path d="M60.224 37.7422C62.6558 37.3841 65.2906 37.2048 68.1284 37.2048C71.075 37.2048 74.2759 37.4333 77.7306 37.8912C81.1852 38.2346 84.9448 38.75 89.009 39.4368C93.0733 40.1236 97.2902 40.6957 101.659 41.1535C106.13 41.4969 110.347 41.6687 114.31 41.6687C118.78 41.6687 122.591 41.4396 125.741 40.9818C128.992 40.4095 130.974 39.551 131.685 38.4064H131.99C132.803 38.4065 133.107 38.9219 132.904 39.952C132.599 41.3255 131.888 42.2413 130.77 42.6992C129.754 43.0425 128.637 43.5002 127.417 44.0724C120.102 51.5126 113.497 59.4106 107.604 67.7665C101.71 76.0079 96.1221 84.3641 90.8384 92.8344C87.4854 98.0997 84.2337 103.365 81.0838 108.63C77.9339 113.781 74.8854 118.704 71.9388 123.397C74.5806 121.68 78.0355 118.532 82.3031 113.953C86.6722 109.374 91.3463 104.052 96.3251 97.9852C101.304 91.9186 106.181 85.7948 110.957 79.6138C115.123 74.234 119.644 68.7968 124.521 63.3026C129.399 57.6938 134.429 52.543 139.611 47.85C144.793 43.157 149.822 39.3795 154.699 36.5179C159.678 33.5419 164.2 32.054 168.264 32.054C171.007 32.054 173.649 32.7406 176.19 34.1142C178.73 35.3733 180 37.9488 180 41.8405C180 43.0996 179.644 44.5302 178.933 46.1327C178.221 47.7352 177.155 48.7082 175.732 49.0516C176.24 48.4792 176.596 47.678 176.799 46.6479C177.003 45.5033 177.155 44.5302 177.256 43.729C177.256 41.7832 176.494 40.1806 174.97 38.9216C173.548 37.548 171.211 36.8614 167.959 36.8614C163.895 36.8614 159.475 38.2347 154.699 40.9818C150.026 43.6144 145.199 47.163 140.22 51.627C135.343 55.9766 130.516 60.7844 125.741 66.0497C121.067 71.315 116.748 76.4659 112.786 81.5023C108.518 86.9965 104.149 92.491 99.6784 97.9852C95.3092 103.365 91.0925 108.287 87.0281 112.751C82.9638 117.101 79.3057 120.535 76.0542 123.053C72.9044 125.571 70.415 126.715 68.5861 126.487C68.4845 126.487 68.4335 126.429 68.4335 126.315C68.1287 126.315 67.8746 125.972 67.6713 125.285C67.5697 124.942 67.5188 124.312 67.5188 123.397C67.5188 120.421 68.4844 116.7 70.415 112.236C72.3455 107.658 74.8858 102.793 78.0356 97.6418C81.1855 92.3765 84.4876 87.2256 87.9423 82.1892C91.4986 77.0383 94.8516 72.4024 98.0015 68.2817C101.253 64.0466 103.946 60.7272 106.079 58.3234C108.416 55.6908 110.957 53.0581 113.7 50.4254C116.545 47.7928 119.339 45.5604 122.083 43.729H119.797C117.663 43.8434 115.224 44.5874 112.481 45.9609C109.839 47.22 107.248 48.7658 104.708 50.5972C102.168 52.4286 99.9321 54.2601 98.0015 56.0915C95.2581 58.7242 92.0572 62.2726 88.3994 66.7367C84.7415 71.0862 80.9311 75.8935 76.9684 81.1588C73.0057 86.3096 69.1448 91.5751 65.3854 96.9548C61.6259 102.335 57.6631 107.772 53.4973 113.266C49.4329 118.76 45.1652 123.854 40.6944 128.547C36.2237 133.126 31.6004 136.846 26.8249 139.707C22.1509 142.569 17.2736 144 12.1932 144C10.3642 144 8.53491 143.656 6.70596 142.97C4.77559 142.397 3.20067 141.253 1.98144 139.536C0.660526 137.934 0 135.701 0 132.84C6.60135e-06 131.237 0.558703 129.463 1.67636 127.517C2.6924 125.457 3.96265 124.427 5.48669 124.426C4.67386 125.8 4.26745 127.46 4.26743 129.406C4.26743 131.466 5.02982 133.183 6.55395 134.556C8.07807 136.044 10.5165 136.789 13.8695 136.789C17.7307 136.789 21.7952 135.53 26.0627 133.011C30.3302 130.608 34.6485 127.403 39.0175 123.397C43.3867 119.276 47.6545 114.754 51.8204 109.833C55.9863 104.911 59.8476 99.931 63.4039 94.8946C67.4682 89.1714 71.5832 83.5624 75.7491 78.0682C79.915 72.574 83.9287 67.6522 87.7897 63.3026C91.7525 58.8384 95.2583 55.4046 98.3066 53.0009C99.3227 52.1996 100.999 50.8829 103.336 49.0516C105.775 47.2202 108.874 45.5604 112.633 44.0724C108.874 44.1869 104.911 44.1296 100.745 43.9007C96.6808 43.5573 92.7181 43.0997 88.857 42.5274C86.7232 42.184 84.5385 41.8977 82.3031 41.6687C80.0677 41.4398 77.7815 41.3253 75.4446 41.3253C69.2465 41.3253 63.404 42.2411 57.9172 44.0724C52.4304 45.9039 48.2136 49.1092 45.2669 53.6878C43.5396 56.4349 42.6759 59.1249 42.6759 61.7575C42.6759 63.5889 43.0314 65.0769 43.7426 66.2215C44.149 66.6793 44.6064 67.1942 45.1144 67.7665C45.6225 68.2243 46.0288 68.4534 46.3337 68.4534C45.9272 68.9113 45.419 69.1404 44.8093 69.1404C44.0982 69.1403 43.387 68.9685 42.6759 68.6251C42.0663 68.1673 41.5579 67.7097 41.1515 67.2519C40.1354 65.9928 39.3736 64.5616 38.8655 62.9591C38.3575 61.2421 38.1034 59.5825 38.1034 57.98C38.1034 54.775 38.8144 52.085 40.2368 49.9102C43.0818 45.5606 46.74 42.3558 51.2107 40.2955C51.656 40.0903 52.1131 39.8956 52.5815 39.7108V0H60.224V37.7422ZM161.558 44.0724C160.237 45.2171 158.205 47.3349 155.461 50.4254C152.718 53.4014 150.178 56.3206 147.841 59.1821C144.691 62.9594 141.134 67.4802 137.172 72.7456C133.311 78.0109 129.45 83.3909 125.589 88.8851C121.829 94.3794 118.425 99.5307 115.377 104.338C112.329 109.146 110.042 113.094 108.518 116.185C107.807 117.559 107.197 118.99 106.689 120.478C106.283 121.966 106.079 123.339 106.079 124.598C106.079 126.773 106.943 127.86 108.67 127.861C109.788 127.861 111.566 127.174 114.005 125.8C116.545 124.198 118.933 122.137 121.169 119.619C123.404 116.986 125.791 114.067 128.332 110.862C128.636 110.862 128.789 111.034 128.789 111.378C128.789 111.835 128.586 112.465 128.18 113.266C127.875 114.067 127.621 114.697 127.417 115.155C123.455 120.42 119.695 124.369 116.139 127.002C112.583 129.635 108.925 130.951 105.165 130.951C102.726 130.951 100.999 130.378 99.9829 129.234C99.0685 127.975 98.6111 126.429 98.6111 124.598C98.6111 122.652 98.9671 120.534 99.6784 118.245C100.491 115.956 101.456 113.667 102.574 111.378C105.521 105.654 109.026 99.7596 113.09 93.6931C117.155 87.6264 121.473 81.6166 126.046 75.6645C130.72 69.7125 135.292 64.2184 139.763 59.1821C141.998 56.7784 144.437 54.4315 147.079 52.1422C149.721 49.853 152.311 47.9641 154.851 46.4761C157.392 44.8736 159.627 44.0724 161.558 44.0724ZM60.224 64.0673C60.224 69.2804 59.409 73.8536 57.7785 77.7863C56.1481 81.6733 53.8655 84.9202 50.9307 87.5267C47.996 90.1333 44.4904 92.0994 40.4144 93.4256C36.3384 94.706 31.8342 95.3464 26.9022 95.3464C23.8452 95.3464 21.0324 95.186 18.4645 94.8659C15.8966 94.5915 13.512 94.2257 11.311 93.7684C9.15074 93.3112 7.13283 92.8312 5.25788 92.3281C3.42374 91.7794 1.67112 91.2532 0 90.7502V81.902C1.7119 82.6336 3.48505 83.3421 5.31922 84.028C7.15342 84.714 9.21193 85.3313 11.4945 85.88C13.777 86.4287 16.3246 86.8632 19.137 87.1833C21.9903 87.5034 25.2515 87.6638 28.9199 87.6638C32.2214 87.6638 35.2988 87.1606 38.1519 86.1547C41.0459 85.1029 43.5528 83.5937 45.6723 81.6273C47.8326 79.6152 49.5244 77.1916 50.7472 74.3564C51.97 71.4755 52.5814 68.183 52.5815 64.479V53.5424C54.6977 51.4292 57.2451 49.7803 60.224 48.5962V64.0673Z" fill="black"/>
</svg>
