<svg width="254" height="480" viewBox="0 0 254 480" fill="none" xmlns="http://www.w3.org/2000/svg">
<path d="M100.165 98V95.12C102.031 93.68 103.805 92.2267 105.485 90.76C107.165 89.2934 108.658 87.84 109.965 86.4C111.298 84.9333 112.338 83.5067 113.085 82.12C113.831 80.7067 114.205 79.36 114.205 78.08C114.205 77.1733 114.045 76.3334 113.725 75.56C113.405 74.7867 112.898 74.16 112.205 73.68C111.511 73.1733 110.565 72.92 109.365 72.92C108.218 72.92 107.258 73.1733 106.485 73.68C105.738 74.1867 105.165 74.8667 104.765 75.72C104.391 76.5467 104.205 77.4667 104.205 78.48H100.325C100.351 76.56 100.765 74.9334 101.565 73.6C102.365 72.2667 103.445 71.2534 104.805 70.56C106.191 69.8667 107.738 69.52 109.445 69.52C111.231 69.52 112.778 69.8534 114.085 70.52C115.391 71.16 116.405 72.1067 117.125 73.36C117.845 74.5867 118.205 76.0934 118.205 77.88C118.205 79.16 117.951 80.44 117.445 81.72C116.938 82.9734 116.245 84.2 115.365 85.4C114.511 86.6 113.551 87.76 112.485 88.88C111.418 89.9734 110.311 91.0134 109.165 92C108.045 92.9867 106.965 93.88 105.925 94.68H119.085V98H100.165Z" fill="black"/>
<path d="M142.418 98.48C139.938 98.48 137.805 97.88 136.018 96.68C134.231 95.4534 132.858 93.76 131.898 91.6C130.938 89.4134 130.458 86.88 130.458 84C130.458 81.12 130.938 78.6 131.898 76.44C132.858 74.2533 134.231 72.56 136.018 71.36C137.805 70.1333 139.938 69.52 142.418 69.52C144.898 69.52 147.018 70.1333 148.778 71.36C150.565 72.56 151.925 74.2533 152.858 76.44C153.818 78.6 154.298 81.12 154.298 84C154.298 86.88 153.818 89.4134 152.858 91.6C151.925 93.76 150.565 95.4534 148.778 96.68C147.018 97.88 144.898 98.48 142.418 98.48ZM142.418 94.92C143.911 94.92 145.245 94.48 146.418 93.6C147.618 92.72 148.551 91.4667 149.218 89.84C149.885 88.2134 150.218 86.2667 150.218 84C150.218 81.7333 149.885 79.7867 149.218 78.16C148.551 76.5333 147.618 75.2934 146.418 74.44C145.245 73.56 143.911 73.12 142.418 73.12C140.898 73.12 139.538 73.56 138.338 74.44C137.138 75.2934 136.205 76.5333 135.538 78.16C134.871 79.7867 134.538 81.7333 134.538 84C134.538 86.2667 134.871 88.2134 135.538 89.84C136.205 91.4667 137.138 92.72 138.338 93.6C139.538 94.48 140.898 94.92 142.418 94.92Z" fill="black"/>
<path d="M97.224 205.742C99.6558 205.384 102.291 205.205 105.128 205.205C108.075 205.205 111.276 205.433 114.731 205.891C118.185 206.235 121.945 206.75 126.009 207.437C130.073 208.124 134.29 208.696 138.659 209.154C143.13 209.497 147.347 209.669 151.31 209.669C155.78 209.669 159.591 209.44 162.741 208.982C165.992 208.41 167.974 207.551 168.685 206.406H168.99C169.803 206.406 170.107 206.922 169.904 207.952C169.599 209.326 168.888 210.241 167.77 210.699C166.754 211.043 165.637 211.5 164.417 212.072C157.102 219.513 150.497 227.411 144.604 235.766C138.71 244.008 133.122 252.364 127.838 260.834C124.485 266.1 121.234 271.365 118.084 276.63C114.934 281.781 111.885 286.704 108.939 291.397C111.581 289.68 115.035 286.532 119.303 281.953C123.672 277.374 128.346 272.052 133.325 265.985C138.304 259.919 143.181 253.795 147.957 247.614C152.123 242.234 156.644 236.797 161.521 231.303C166.399 225.694 171.429 220.543 176.611 215.85C181.793 211.157 186.822 207.38 191.699 204.518C196.678 201.542 201.2 200.054 205.264 200.054C208.007 200.054 210.649 200.741 213.19 202.114C215.73 203.373 217 205.949 217 209.84C217 211.1 216.644 212.53 215.933 214.133C215.221 215.735 214.155 216.708 212.732 217.052C213.24 216.479 213.596 215.678 213.799 214.648C214.003 213.503 214.155 212.53 214.256 211.729C214.256 209.783 213.494 208.181 211.97 206.922C210.548 205.548 208.211 204.861 204.959 204.861C200.895 204.861 196.475 206.235 191.699 208.982C187.026 211.614 182.199 215.163 177.22 219.627C172.343 223.977 167.516 228.784 162.741 234.05C158.067 239.315 153.748 244.466 149.786 249.502C145.518 254.997 141.149 260.491 136.678 265.985C132.309 271.365 128.092 276.287 124.028 280.751C119.964 285.101 116.306 288.535 113.054 291.053C109.904 293.571 107.415 294.716 105.586 294.487C105.484 294.487 105.434 294.429 105.434 294.315C105.129 294.315 104.875 293.972 104.671 293.285C104.57 292.942 104.519 292.312 104.519 291.397C104.519 288.421 105.484 284.7 107.415 280.236C109.346 275.658 111.886 270.793 115.036 265.642C118.185 260.376 121.488 255.226 124.942 250.189C128.499 245.038 131.852 240.402 135.001 236.282C138.253 232.047 140.945 228.727 143.079 226.323C145.416 223.691 147.957 221.058 150.7 218.425C153.545 215.793 156.339 213.56 159.083 211.729H156.797C154.663 211.843 152.224 212.587 149.481 213.961C146.839 215.22 144.248 216.766 141.708 218.597C139.168 220.429 136.932 222.26 135.001 224.092C132.258 226.724 129.057 230.273 125.399 234.737C121.742 239.086 117.931 243.894 113.968 249.159C110.006 254.31 106.145 259.575 102.385 264.955C98.6259 270.335 94.6631 275.772 90.4973 281.266C86.4329 286.76 82.1652 291.854 77.6944 296.547C73.2237 301.126 68.6004 304.846 63.8249 307.707C59.1509 310.569 54.2736 312 49.1932 312C47.3642 312 45.5349 311.656 43.706 310.97C41.7756 310.397 40.2007 309.253 38.9814 307.536C37.6605 305.934 37 303.701 37 300.84C37 299.237 37.5587 297.463 38.6764 295.517C39.6924 293.457 40.9627 292.427 42.4867 292.426C41.6739 293.8 41.2675 295.46 41.2674 297.406C41.2674 299.466 42.0298 301.183 43.554 302.556C45.0781 304.044 47.5165 304.789 50.8695 304.789C54.7307 304.789 58.7952 303.53 63.0627 301.011C67.3302 298.608 71.6485 295.403 76.0175 291.397C80.3867 287.276 84.6545 282.754 88.8204 277.833C92.9863 272.911 96.8476 267.931 100.404 262.895C104.468 257.171 108.583 251.562 112.749 246.068C116.915 240.574 120.929 235.652 124.79 231.303C128.752 226.838 132.258 223.405 135.307 221.001C136.323 220.2 137.999 218.883 140.336 217.052C142.775 215.22 145.874 213.56 149.633 212.072C145.874 212.187 141.911 212.13 137.745 211.901C133.681 211.557 129.718 211.1 125.857 210.527C123.723 210.184 121.538 209.898 119.303 209.669C117.068 209.44 114.782 209.325 112.445 209.325C106.247 209.325 100.404 210.241 94.9172 212.072C89.4304 213.904 85.2136 217.109 82.267 221.688C80.5396 224.435 79.6759 227.125 79.6759 229.758C79.6759 231.589 80.0314 233.077 80.7426 234.221C81.149 234.679 81.6064 235.194 82.1144 235.766C82.6225 236.224 83.0288 236.453 83.3337 236.453C82.9272 236.911 82.419 237.14 81.8093 237.14C81.0982 237.14 80.387 236.968 79.6759 236.625C79.0663 236.167 78.558 235.71 78.1515 235.252C77.1354 233.993 76.3736 232.562 75.8655 230.959C75.3575 229.242 75.1034 227.582 75.1034 225.98C75.1034 222.775 75.8144 220.085 77.2368 217.91C80.0818 213.561 83.74 210.356 88.2107 208.295C88.656 208.09 89.1131 207.896 89.5815 207.711V168H97.224V205.742ZM198.558 212.072C197.237 213.217 195.205 215.335 192.461 218.425C189.718 221.401 187.178 224.321 184.841 227.182C181.691 230.959 178.134 235.48 174.172 240.746C170.311 246.011 166.45 251.391 162.589 256.885C158.829 262.379 155.425 267.531 152.377 272.338C149.329 277.146 147.042 281.094 145.518 284.185C144.807 285.559 144.197 286.99 143.689 288.478C143.283 289.966 143.079 291.339 143.079 292.598C143.079 294.773 143.943 295.86 145.67 295.861C146.788 295.861 148.566 295.174 151.005 293.8C153.545 292.198 155.933 290.137 158.169 287.619C160.404 284.986 162.791 282.067 165.332 278.862C165.636 278.862 165.789 279.034 165.789 279.378C165.789 279.835 165.586 280.465 165.18 281.266C164.875 282.067 164.621 282.697 164.417 283.155C160.455 288.42 156.695 292.369 153.139 295.002C149.583 297.635 145.925 298.951 142.165 298.951C139.726 298.951 137.999 298.378 136.983 297.234C136.069 295.975 135.611 294.43 135.611 292.598C135.611 290.652 135.967 288.534 136.678 286.245C137.491 283.956 138.456 281.667 139.574 279.378C142.521 273.654 146.026 267.76 150.09 261.693C154.155 255.626 158.473 249.617 163.046 243.665C167.72 237.712 172.292 232.218 176.763 227.182C178.998 224.778 181.437 222.431 184.079 220.142C186.721 217.853 189.311 215.964 191.851 214.476C194.392 212.874 196.627 212.072 198.558 212.072ZM97.224 232.067C97.224 237.28 96.409 241.854 94.7785 245.786C93.1481 249.673 90.8654 252.92 87.9307 255.527C84.996 258.133 81.4904 260.099 77.4144 261.426C73.3384 262.706 68.8343 263.346 63.9022 263.346C60.8452 263.346 58.0324 263.186 55.4645 262.866C52.8966 262.592 50.512 262.226 48.311 261.768C46.1507 261.311 44.1328 260.831 42.2579 260.328C40.4237 259.779 38.6711 259.253 37 258.75V249.902C38.7119 250.634 40.485 251.342 42.3192 252.028C44.1534 252.714 46.2119 253.331 48.4945 253.88C50.777 254.429 53.3246 254.863 56.137 255.183C58.9903 255.503 62.2515 255.664 65.9199 255.664C69.2214 255.664 72.2988 255.161 75.1519 254.155C78.0459 253.103 80.5528 251.594 82.6723 249.627C84.8326 247.615 86.5244 245.192 87.7472 242.356C88.97 239.476 89.5815 236.183 89.5815 232.479V221.542C91.6977 219.429 94.2451 217.78 97.224 216.596V232.067Z" fill="black"/>
<path d="M101.766 410V407.12C103.633 405.68 105.406 404.227 107.086 402.76C108.766 401.293 110.26 399.84 111.566 398.4C112.9 396.933 113.94 395.507 114.686 394.12C115.433 392.707 115.806 391.36 115.806 390.08C115.806 389.173 115.646 388.333 115.326 387.56C115.006 386.787 114.5 386.16 113.806 385.68C113.113 385.173 112.166 384.92 110.966 384.92C109.82 384.92 108.86 385.173 108.086 385.68C107.34 386.187 106.766 386.867 106.366 387.72C105.993 388.547 105.806 389.467 105.806 390.48H101.926C101.953 388.56 102.366 386.933 103.166 385.6C103.966 384.267 105.046 383.253 106.406 382.56C107.793 381.867 109.34 381.52 111.046 381.52C112.833 381.52 114.38 381.853 115.686 382.52C116.993 383.16 118.006 384.107 118.726 385.36C119.446 386.587 119.806 388.093 119.806 389.88C119.806 391.16 119.553 392.44 119.046 393.72C118.54 394.973 117.846 396.2 116.966 397.4C116.113 398.6 115.153 399.76 114.086 400.88C113.02 401.973 111.913 403.013 110.766 404C109.646 404.987 108.566 405.88 107.526 406.68H120.686V410H101.766Z" fill="black"/>
<path d="M142.265 410.48C140.425 410.48 138.759 410.147 137.265 409.48C135.799 408.787 134.625 407.827 133.745 406.6C132.892 405.373 132.465 403.947 132.465 402.32C132.465 401.173 132.679 400.12 133.105 399.16C133.532 398.173 134.132 397.32 134.905 396.6C135.679 395.88 136.585 395.36 137.625 395.04C136.239 394.48 135.145 393.653 134.345 392.56C133.545 391.467 133.145 390.267 133.145 388.96C133.145 387.6 133.505 386.36 134.225 385.24C134.945 384.12 135.985 383.227 137.345 382.56C138.705 381.867 140.345 381.52 142.265 381.52C144.185 381.52 145.825 381.867 147.185 382.56C148.545 383.227 149.572 384.12 150.265 385.24C150.985 386.36 151.345 387.6 151.345 388.96C151.345 390.267 150.945 391.48 150.145 392.6C149.372 393.693 148.292 394.507 146.905 395.04C147.945 395.36 148.852 395.88 149.625 396.6C150.399 397.32 150.999 398.173 151.425 399.16C151.852 400.12 152.065 401.173 152.065 402.32C152.065 403.947 151.625 405.373 150.745 406.6C149.892 407.827 148.719 408.787 147.225 409.48C145.759 410.147 144.105 410.48 142.265 410.48ZM142.265 407.04C144.212 407.04 145.665 406.587 146.625 405.68C147.612 404.747 148.105 403.533 148.105 402.04C148.105 400.36 147.572 399.08 146.505 398.2C145.465 397.32 144.052 396.88 142.265 396.88C140.479 396.88 139.052 397.32 137.985 398.2C136.945 399.08 136.425 400.36 136.425 402.04C136.425 403.533 136.905 404.747 137.865 405.68C138.852 406.587 140.319 407.04 142.265 407.04ZM142.265 393.72C143.839 393.72 145.079 393.307 145.985 392.48C146.919 391.653 147.385 390.6 147.385 389.32C147.385 387.853 146.932 386.747 146.025 386C145.119 385.253 143.865 384.88 142.265 384.88C140.692 384.88 139.452 385.253 138.545 386C137.639 386.747 137.185 387.853 137.185 389.32C137.185 390.6 137.639 391.653 138.545 392.48C139.452 393.307 140.692 393.72 142.265 393.72Z" fill="black"/>
<path d="M251 353V127C251 58.5167 195.483 3 127 3C58.5167 3 3 58.5167 3 127V353C3 421.483 58.5167 477 127 477V480C57.4079 480 0.88968 424.025 0.0107422 354.642L0 353V127C4.12437e-06 56.8598 56.8598 0 127 0C197.14 0 254 56.8598 254 127V353L253.989 354.642C253.11 424.025 196.592 480 127 480V477C195.483 477 251 421.483 251 353Z" fill="black"/>
</svg>
