<svg width="366" height="366" viewBox="0 0 366 366" fill="none" xmlns="http://www.w3.org/2000/svg">
<path d="M190.153 312.883L184.338 313.201L185.282 330.479L182.486 330.632L181.542 313.354L175.755 313.67L175.63 311.377L190.028 310.591L190.153 312.883Z" fill="black"/>
<path d="M152.464 308.745L160.166 325.075L162.354 310.199L165.123 310.606L162.272 329.998L159.502 329.591L151.796 313.289L149.612 328.137L146.843 327.729L149.693 308.338L152.464 308.745Z" fill="black"/>
<path d="M211.104 326.722L208.354 327.252L206.68 318.563L197.194 320.391L198.869 329.08L196.119 329.609L192.41 310.364L195.16 309.834L196.76 318.137L206.245 316.309L204.646 308.006L207.395 307.476L211.104 326.722Z" fill="black"/>
<path d="M145.566 307.384L140.671 326.362L137.96 325.663L142.854 306.685L145.566 307.384Z" fill="black"/>
<path d="M223.384 304.889L214.317 307.971L216.337 313.909L224.607 311.098L225.328 313.218L217.058 316.029L219.148 322.18L228.215 319.098L228.953 321.271L217.236 325.255L210.928 306.698L222.646 302.715L223.384 304.889Z" fill="black"/>
<path d="M122.097 299.043C123.156 298.998 124.275 299.234 125.454 299.751C126.616 300.261 127.54 300.921 128.225 301.73C128.909 302.54 129.334 303.43 129.5 304.399C129.666 305.369 129.527 306.359 129.085 307.367L126.367 306.175C126.57 305.713 126.649 305.208 126.604 304.658C126.56 304.109 126.358 303.593 126 303.109C125.649 302.609 125.123 302.205 124.422 301.897C123.848 301.625 123.285 301.49 122.733 301.493C122.182 301.496 121.691 301.637 121.263 301.918C120.834 302.199 120.5 302.613 120.26 303.16C120.02 303.707 119.937 304.2 120.009 304.64C120.106 305.069 120.324 305.501 120.663 305.936C121.003 306.37 121.418 306.817 121.909 307.277C122.425 307.728 122.99 308.23 123.603 308.784C124.364 309.465 124.993 310.168 125.489 310.896C126.01 311.613 126.321 312.392 126.422 313.231C126.547 314.061 126.384 314.988 125.935 316.014C125.545 316.903 124.95 317.63 124.151 318.197C123.352 318.764 122.391 319.097 121.268 319.195C120.152 319.277 118.919 319.021 117.568 318.429C116.252 317.851 115.199 317.114 114.41 316.218C113.629 315.304 113.152 314.3 112.979 313.205C112.807 312.111 112.972 310.991 113.475 309.846L116.167 311.026C115.899 311.683 115.791 312.349 115.842 313.023C115.917 313.688 116.165 314.308 116.587 314.88C117.033 315.442 117.675 315.907 118.513 316.274C119.231 316.589 119.899 316.74 120.517 316.726C121.151 316.719 121.696 316.57 122.149 316.279C122.61 315.972 122.96 315.545 123.2 314.998C123.478 314.366 123.561 313.78 123.45 313.242C123.34 312.705 123.093 312.199 122.71 311.726C122.351 311.242 121.892 310.755 121.332 310.265C120.79 309.782 120.221 309.267 119.625 308.721C118.409 307.637 117.611 306.574 117.232 305.531C116.871 304.496 116.949 303.389 117.467 302.21C117.909 301.202 118.53 300.434 119.331 299.909C120.14 299.367 121.062 299.078 122.097 299.043Z" fill="black"/>
<path d="M259.873 304.819L257.479 306.271L249.855 293.703L250.861 307.076L249.018 308.194L237.66 301.133L245.27 313.678L242.876 315.13L232.711 298.372L235.535 296.658L248.078 304.54L246.859 289.789L249.708 288.062L259.873 304.819Z" fill="black"/>
<path fill-rule="evenodd" clip-rule="evenodd" d="M111.093 292.506C112.418 293.307 113.369 294.188 113.945 295.146C114.521 296.105 114.783 297.081 114.729 298.073C114.7 299.059 114.4 300.023 113.83 300.966C113.289 301.86 112.579 302.565 111.7 303.081C110.847 303.59 109.849 303.816 108.706 303.758C108.341 303.734 107.966 303.671 107.579 303.57L106.87 312.856L104.091 311.176L104.9 302.373L101.783 300.488L97.6689 307.293L95.2725 305.845L105.414 289.072L111.093 292.506ZM102.885 298.667L105.999 300.551C107.181 301.265 108.226 301.505 109.133 301.268C110.049 301.015 110.783 300.432 111.333 299.521C111.893 298.595 112.066 297.696 111.852 296.825C111.637 295.954 110.922 295.151 109.708 294.417L106.593 292.533L102.885 298.667Z" fill="black"/>
<path fill-rule="evenodd" clip-rule="evenodd" d="M97.9854 283.163L91.2188 302.916L88.8926 301.027L90.6162 296.188L84.3467 291.098L79.958 293.774L77.6758 291.921L95.6162 281.239L97.9854 283.163ZM86.376 289.86L91.4131 293.949L94.6719 284.802L86.376 289.86Z" fill="black"/>
<path fill-rule="evenodd" clip-rule="evenodd" d="M277.351 290.782L275.072 292.729L270.623 290.157L264.484 295.403L266.323 300.204L264.089 302.114L256.826 282.539L259.146 280.556L277.351 290.782ZM263.634 293.184L268.566 288.969L260.158 284.11L263.634 293.184Z" fill="black"/>
<path d="M88.7412 275.229L87.0684 276.803L80.5088 269.826L75.9395 274.122L81.9229 280.486L80.291 282.021L74.3076 275.656L69.5742 280.106L76.1338 287.083L74.4619 288.655L65.9834 279.64L80.2637 266.213L88.7412 275.229Z" fill="black"/>
<path d="M276.682 274.35L290.444 276.645L288.177 279.199L276.996 277.286L277.274 280.305L282.823 285.23L280.965 287.324L266.307 274.312L268.166 272.219L274.531 277.869L273.37 266.355L275.693 263.738L276.682 274.35Z" fill="black"/>
<path d="M295.21 270.574L293.562 272.837L277.719 261.298L279.367 259.034L295.21 270.574Z" fill="black"/>
<path d="M71.4707 254.28L66.4824 263.732L77 261.893L78.8428 264.43L65.0898 266.46L59.2002 270.737L57.5547 268.473L63.4443 264.194L69.6113 251.721L71.4707 254.28Z" fill="black"/>
<path d="M306.547 251.83L305.147 254.256L287.153 255.415L300.153 262.914L298.754 265.34L281.776 255.546L283.175 253.121L301.194 251.976L288.17 244.462L289.569 242.037L306.547 251.83Z" fill="black"/>
<path d="M158.224 143.742C160.655 143.384 163.291 143.205 166.129 143.205C169.075 143.205 172.276 143.434 175.73 143.892C179.185 144.235 182.945 144.75 187.009 145.437C191.073 146.123 195.29 146.695 199.659 147.153C204.13 147.497 208.347 147.669 212.31 147.669C216.78 147.669 220.59 147.439 223.74 146.981C226.992 146.409 228.973 145.551 229.685 144.406H229.99C230.803 144.406 231.107 144.922 230.904 145.952C230.599 147.326 229.888 148.241 228.771 148.699C227.755 149.043 226.637 149.5 225.418 150.072C218.102 157.512 211.497 165.411 205.604 173.767C199.71 182.008 194.122 190.364 188.839 198.834C185.486 204.099 182.234 209.366 179.084 214.631C175.934 219.782 172.885 224.704 169.938 229.396C172.58 227.68 176.035 224.532 180.303 219.953C184.672 215.375 189.346 210.052 194.325 203.985C199.304 197.919 204.181 191.795 208.957 185.614C213.123 180.234 217.644 174.797 222.521 169.303C227.399 163.694 232.428 158.543 237.61 153.85C242.792 149.157 247.822 145.379 252.699 142.518C257.678 139.542 262.199 138.054 266.264 138.054C269.007 138.054 271.649 138.741 274.189 140.114C276.73 141.373 278 143.949 278 147.841C278 149.1 277.644 150.53 276.933 152.133C276.221 153.735 275.155 154.708 273.732 155.052C274.24 154.479 274.597 153.678 274.8 152.647C275.003 151.503 275.155 150.531 275.257 149.729C275.257 147.784 274.495 146.181 272.971 144.922C271.548 143.548 269.21 142.861 265.959 142.861C261.895 142.861 257.475 144.234 252.699 146.981C248.025 149.614 243.199 153.163 238.221 157.627C233.343 161.977 228.516 166.784 223.74 172.05C219.067 177.315 214.749 182.466 210.786 187.502C206.519 192.996 202.149 198.491 197.679 203.985C193.31 209.365 189.093 214.288 185.028 218.752C180.964 223.101 177.306 226.535 174.055 229.053C170.905 231.571 168.415 232.715 166.586 232.486C166.485 232.486 166.434 232.43 166.434 232.315C166.129 232.315 165.875 231.972 165.672 231.285C165.57 230.942 165.519 230.312 165.519 229.396C165.519 226.42 166.485 222.7 168.415 218.236C170.346 213.658 172.886 208.792 176.036 203.642C179.186 198.376 182.488 193.226 185.942 188.189C189.499 183.039 192.852 178.403 196.002 174.282C199.253 170.047 201.945 166.727 204.079 164.323C206.416 161.691 208.957 159.058 211.7 156.426C214.545 153.793 217.34 151.561 220.083 149.729H217.797C215.663 149.844 213.224 150.587 210.48 151.961C207.839 153.22 205.248 154.766 202.708 156.598C200.168 158.429 197.932 160.26 196.002 162.092C193.259 164.724 190.057 168.272 186.399 172.736C182.742 177.086 178.931 181.894 174.969 187.159C171.006 192.31 167.145 197.575 163.386 202.955C159.626 208.335 155.663 213.772 151.497 219.267C147.433 224.761 143.165 229.855 138.694 234.548C134.224 239.126 129.601 242.846 124.825 245.707C120.151 248.569 115.274 250 110.193 250C108.364 250 106.535 249.656 104.706 248.97C102.776 248.397 101.201 247.253 99.9814 245.536C98.6606 243.934 98 241.701 98 238.84C98 237.237 98.5592 235.463 99.6768 233.518C100.693 231.458 101.962 230.427 103.486 230.427C102.674 231.8 102.268 233.46 102.268 235.405C102.268 237.466 103.03 239.183 104.554 240.557C106.078 242.045 108.516 242.789 111.869 242.789C115.73 242.789 119.795 241.53 124.062 239.012C128.33 236.608 132.648 233.403 137.018 229.396C141.387 225.276 145.655 220.755 149.82 215.833C153.986 210.911 157.848 205.931 161.404 200.895C165.469 195.171 169.583 189.562 173.749 184.068C177.915 178.574 181.929 173.652 185.79 169.303C189.753 164.839 193.258 161.405 196.307 159.001C197.323 158.2 198.999 156.883 201.336 155.052C203.774 153.22 206.874 151.56 210.633 150.072C206.873 150.187 202.911 150.129 198.745 149.9C194.681 149.557 190.718 149.1 186.857 148.527C184.724 148.184 182.538 147.898 180.303 147.669C178.067 147.44 175.781 147.325 173.444 147.325C167.246 147.325 161.404 148.241 155.917 150.072C150.43 151.904 146.213 155.109 143.267 159.688C141.539 162.435 140.676 165.125 140.676 167.758C140.676 169.589 141.031 171.077 141.742 172.222C142.149 172.68 142.606 173.194 143.114 173.767C143.622 174.224 144.029 174.453 144.334 174.453C143.928 174.911 143.419 175.141 142.81 175.141C142.098 175.141 141.387 174.968 140.676 174.625C140.066 174.167 139.558 173.71 139.151 173.252C138.135 171.993 137.373 170.561 136.865 168.959C136.357 167.242 136.104 165.583 136.104 163.98C136.104 160.776 136.815 158.085 138.237 155.91C141.082 151.561 144.74 148.356 149.211 146.296C149.656 146.091 150.113 145.896 150.581 145.711V106H158.224V143.742Z" fill="black"/>
<path fill-rule="evenodd" clip-rule="evenodd" d="M54.5293 230.983C56.2008 230.965 57.6774 231.352 58.958 232.146C60.2557 232.931 61.2623 234.115 61.9775 235.697C62.6927 237.279 62.9124 238.808 62.6377 240.284C62.3876 241.77 61.6997 243.126 60.5742 244.352C59.4734 245.587 58.0048 246.621 56.168 247.451C54.3312 248.282 52.5767 248.705 50.9053 248.724C49.2585 248.751 47.7859 248.373 46.4883 247.587C45.2153 246.81 44.2211 245.631 43.5059 244.049C42.7908 242.467 42.5576 240.934 42.8076 239.448C43.0748 237.955 43.7595 236.591 44.8604 235.355C45.9782 234.113 47.4552 233.076 49.292 232.245C51.1289 231.415 52.8748 230.994 54.5293 230.983ZM54.4824 233.801C53.2526 233.845 51.9145 234.194 50.4688 234.848C49.0232 235.501 47.8774 236.275 47.0322 237.169C46.187 238.063 45.6566 239.021 45.4414 240.04C45.2263 241.059 45.3381 242.053 45.7764 243.022C46.207 243.975 46.8719 244.699 47.7715 245.193C48.6788 245.705 49.7478 245.938 50.9775 245.895C52.2073 245.851 53.5455 245.502 54.9912 244.849C56.4369 244.195 57.5825 243.421 58.4277 242.526C59.2729 241.632 59.7949 240.679 59.9932 239.668C60.2161 238.666 60.1113 237.688 59.6807 236.735C59.2423 235.766 58.5694 235.025 57.6621 234.514C56.7719 233.995 55.712 233.757 54.4824 233.801Z" fill="black"/>
<path d="M297.671 226.065C299.207 225.064 300.939 224.712 302.868 225.008L301.702 227.979C300.592 227.843 299.586 228.081 298.686 228.689C297.767 229.292 297.042 230.271 296.51 231.626C296.005 232.912 295.853 234.145 296.051 235.325C296.256 236.489 296.789 237.53 297.651 238.45C298.513 239.37 299.674 240.117 301.134 240.69C302.611 241.27 303.978 241.515 305.235 241.428C306.493 241.34 307.58 240.945 308.498 240.242C309.416 239.54 310.11 238.589 310.581 237.391C311.304 235.549 311.316 233.959 310.618 232.622C309.927 231.268 308.725 230.165 307.015 229.312L305.039 234.343L303.032 233.555L306.041 225.892L315.893 229.76L314.962 232.132L312.081 231.271C312.595 231.954 312.977 232.666 313.228 233.406C313.468 234.122 313.567 234.893 313.523 235.718C313.463 236.536 313.234 237.449 312.839 238.457C312.164 240.177 311.182 241.527 309.896 242.506C308.609 243.484 307.122 244.054 305.436 244.214C303.748 244.374 301.966 244.085 300.09 243.349C298.231 242.619 296.728 241.617 295.583 240.346C294.445 239.057 293.739 237.586 293.465 235.935C293.18 234.259 293.4 232.5 294.123 230.658C294.935 228.591 296.117 227.06 297.671 226.065Z" fill="black"/>
<path d="M259.558 150.072C258.237 151.217 256.204 153.335 253.461 156.426C250.718 159.402 248.178 162.321 245.841 165.183C242.691 168.96 239.134 173.481 235.172 178.746C231.311 184.011 227.45 189.391 223.589 194.885C219.829 200.379 216.425 205.53 213.377 210.338C210.329 215.145 208.043 219.094 206.519 222.185C205.807 223.558 205.197 224.99 204.689 226.478C204.283 227.965 204.079 229.34 204.079 230.599C204.079 232.773 204.943 233.86 206.67 233.86C207.788 233.86 209.566 233.174 212.005 231.801C214.545 230.198 216.934 228.137 219.169 225.619C221.404 222.987 223.792 220.067 226.332 216.862C226.637 216.862 226.789 217.035 226.789 217.378C226.789 217.836 226.586 218.466 226.18 219.267C225.875 220.068 225.621 220.698 225.418 221.155C221.455 226.421 217.695 230.369 214.139 233.002C210.582 235.634 206.924 236.951 203.165 236.951C200.726 236.951 198.999 236.378 197.983 235.233C197.069 233.974 196.611 232.43 196.611 230.599C196.611 228.653 196.967 226.534 197.679 224.245C198.492 221.956 199.457 219.667 200.574 217.378C203.521 211.655 207.027 205.76 211.091 199.693C215.155 193.627 219.474 187.616 224.046 181.664C228.72 175.712 233.292 170.219 237.763 165.183C239.998 162.779 242.437 160.432 245.079 158.143C247.721 155.853 250.311 153.965 252.852 152.477C255.392 150.874 257.627 150.072 259.558 150.072Z" fill="black"/>
<path d="M56.6172 223.281L57.1729 225.014L38.5107 231.004L37.6377 228.284L53.2881 223.262L51.417 220.274L53.417 219.632L56.6172 223.281Z" fill="black"/>
<path d="M158.224 170.067C158.224 175.28 157.409 179.853 155.778 183.786C154.148 187.673 151.865 190.92 148.931 193.526C145.996 196.133 142.49 198.1 138.414 199.426C134.338 200.706 129.834 201.347 124.902 201.347C121.845 201.347 119.033 201.186 116.465 200.866C113.897 200.592 111.512 200.226 109.312 199.769C107.151 199.311 105.133 198.831 103.258 198.328C101.424 197.779 99.6711 197.253 98 196.75V187.902C99.7119 188.634 101.485 189.342 103.319 190.028C105.153 190.714 107.212 191.331 109.494 191.88C111.777 192.429 114.324 192.863 117.137 193.184C119.99 193.504 123.251 193.664 126.92 193.664C130.221 193.664 133.299 193.16 136.152 192.154C139.046 191.103 141.552 189.593 143.672 187.627C145.832 185.615 147.524 183.192 148.747 180.356C149.97 177.476 150.581 174.183 150.581 170.479V159.542C152.697 157.429 155.245 155.781 158.224 154.597V170.067Z" fill="black"/>
<path d="M311.68 160.328C312.27 160.235 312.827 160.288 313.35 160.489C313.876 160.708 314.324 161.035 314.694 161.468C315.068 161.919 315.302 162.439 315.396 163.029C315.489 163.619 315.425 164.177 315.206 164.703C314.987 165.229 314.661 165.678 314.229 166.049C313.814 166.417 313.303 166.648 312.694 166.744C312.123 166.834 311.565 166.772 311.021 166.556C310.494 166.336 310.046 166.01 309.675 165.577C309.307 165.163 309.075 164.652 308.979 164.044C308.888 163.472 308.942 162.915 309.14 162.374C309.359 161.848 309.685 161.399 310.118 161.028C310.569 160.655 311.09 160.421 311.68 160.328Z" fill="black"/>
<path d="M41.585 156.454C42.1006 156.251 42.6604 156.209 43.2646 156.328C43.8324 156.44 44.3348 156.691 44.7715 157.082C45.1898 157.469 45.4982 157.93 45.6973 158.464C45.8999 158.979 45.9415 159.539 45.8223 160.144C45.7103 160.711 45.468 161.215 45.0957 161.655C44.7088 162.074 44.2488 162.383 43.7148 162.582C43.1627 162.777 42.5937 162.817 42.0078 162.701C41.4218 162.586 40.9171 162.344 40.4951 161.976C40.0768 161.589 39.7684 161.128 39.5693 160.594C39.3739 160.042 39.3337 159.473 39.4492 158.887C39.5648 158.301 39.8162 157.798 40.2031 157.38C40.5901 156.962 41.051 156.653 41.585 156.454Z" fill="black"/>
<path d="M282.344 83.5771L277.734 101.035L288.979 91.0537L290.838 93.1475L276.181 106.159L274.321 104.064L278.909 86.626L267.686 96.5889L265.827 94.4951L280.484 81.4834L282.344 83.5771Z" fill="black"/>
<path d="M83.1514 92.0176C84.4743 93.2539 85.1529 94.5783 85.1875 95.9902C85.222 97.4021 84.6404 98.7493 83.4424 100.031C82.6141 100.918 81.7367 101.528 80.8105 101.863C79.8706 102.186 78.9138 102.225 77.9414 101.98C76.9691 101.736 76.0397 101.199 75.1533 100.371L77.084 98.3047C77.5477 98.738 78.0345 99.052 78.543 99.2461C79.0513 99.4401 79.5611 99.4818 80.0723 99.3721C80.5827 99.2359 81.0869 98.902 81.584 98.3701C82.0808 97.8384 82.3675 97.327 82.4434 96.8359C82.5319 96.3311 82.4694 95.8505 82.2559 95.3955C82.0287 94.9278 81.6893 94.484 81.2393 94.0635L70.8271 84.332L72.7383 82.2861L83.1514 92.0176Z" fill="black"/>
<path fill-rule="evenodd" clip-rule="evenodd" d="M268.842 71.3281L262.162 91.1104L259.828 89.2324L261.53 84.3838L255.238 79.3223L250.861 82.0186L248.571 80.1758L266.464 69.415L268.842 71.3281ZM257.262 78.0752L262.317 82.1426L265.536 72.9805L257.262 78.0752Z" fill="black"/>
<path fill-rule="evenodd" clip-rule="evenodd" d="M91.0674 68.0713C92.7291 67.8662 94.3397 68.127 95.8984 68.8535C97.4604 69.5538 98.8544 70.6923 100.081 72.2686C101.319 73.8595 102.092 75.5052 102.398 77.2061C102.708 78.8808 102.56 80.4992 101.953 82.0596C101.335 83.605 100.266 84.9678 98.749 86.1484C97.2612 87.3062 95.6921 87.995 94.042 88.2148C92.3951 88.4084 90.7828 88.1615 89.2061 87.4727C87.6326 86.7576 86.2264 85.6037 84.9883 84.0127C83.7619 82.4365 83.0011 80.8052 82.7061 79.1191C82.4143 77.4068 82.565 75.7764 83.1572 74.2275C83.7642 72.6673 84.8111 71.3082 86.2988 70.1504C87.8161 68.9697 89.4058 68.2764 91.0674 68.0713ZM94.6543 71.3115C93.5278 70.7453 92.3831 70.5369 91.2207 70.6846C90.0469 70.8175 88.9298 71.2967 87.8691 72.1221C86.8085 72.9474 86.0695 73.9124 85.6523 75.0176C85.2237 76.108 85.1382 77.2742 85.3955 78.5166C85.6528 79.759 86.268 81.0067 87.2422 82.2588C88.2166 83.511 89.2748 84.415 90.416 84.9697C91.5572 85.5244 92.7149 85.7354 93.8887 85.6025C95.0624 85.4697 96.1796 84.9903 97.2402 84.165C98.3009 83.3396 99.0398 82.3737 99.457 81.2686C99.8742 80.1634 99.9468 78.9956 99.6748 77.7646C99.4175 76.5221 98.8016 75.2747 97.8271 74.0225C96.8528 72.7703 95.7955 71.8662 94.6543 71.3115Z" fill="black"/>
<path d="M241.306 54.8047C243.004 54.7351 244.721 55.1762 246.456 56.127C248.404 57.1944 249.772 58.5616 250.562 60.2285C251.36 61.8792 251.49 63.6425 250.951 65.5186L248.152 63.9844C248.427 62.9005 248.32 61.873 247.83 60.9023C247.349 59.9152 246.47 59.0718 245.193 58.3721C243.982 57.7083 242.778 57.4005 241.582 57.4473C240.402 57.5031 239.3 57.8993 238.278 58.6377C237.256 59.3761 236.369 60.4335 235.615 61.8086C234.853 63.1998 234.436 64.5247 234.363 65.7832C234.291 67.0419 234.544 68.1716 235.125 69.1709C235.706 70.1701 236.561 70.9787 237.69 71.5977C239.426 72.5485 241 72.7623 242.415 72.2393C243.846 71.7251 245.093 70.6738 246.155 69.085L241.417 66.4883L242.452 64.5977L249.672 68.5527L244.586 77.835L242.351 76.6104L243.569 73.8623C242.827 74.2853 242.073 74.5746 241.307 74.7295C240.566 74.877 239.789 74.8761 238.976 74.7285C238.172 74.5646 237.295 74.2232 236.346 73.7031C234.725 72.815 233.511 71.67 232.703 70.2695C231.896 68.8692 231.519 67.3224 231.574 65.6289C231.63 63.9352 232.143 62.2035 233.111 60.4355C234.071 58.6842 235.255 57.3211 236.661 56.3467C238.084 55.3812 239.633 54.867 241.306 54.8047Z" fill="black"/>
<path d="M113.305 55.751L104.888 60.3174L107.879 65.8311L115.558 61.6641L116.626 63.6328L108.947 67.7998L112.045 73.5088L120.462 68.9424L121.557 70.96L110.679 76.8623L101.331 59.6348L112.209 53.7324L113.305 55.751Z" fill="black"/>
<path d="M230.139 48.5898L229.383 50.7578L220.341 47.6055L218.275 53.5273L226.524 56.4043L225.787 58.5186L217.538 55.6426L215.399 61.7764L224.441 64.9297L223.686 67.0977L212 63.0225L218.453 44.5156L230.139 48.5898Z" fill="black"/>
<path d="M131.601 58.9727L134.083 65.8164L131.45 66.7705L128.968 59.9268L118.687 50.5508L121.661 49.4727L129.365 56.8799L130.505 46.2646L133.453 45.1953L131.601 58.9727Z" fill="black"/>
<path d="M192.635 39.7061L197.092 53.833L205.712 41.8018L209.002 42.3281L205.9 61.6816L203.136 61.2383L205.462 46.7236L197.57 57.5674L195.441 57.2266L191.357 44.4922L189.036 58.9785L186.271 58.5361L189.372 39.1826L192.635 39.7061Z" fill="black"/>
<path fill-rule="evenodd" clip-rule="evenodd" d="M158.725 39.708C159.82 39.5905 160.77 39.6948 161.575 40.0215C162.396 40.3276 163.048 40.8025 163.53 41.4453C164.031 42.0861 164.318 42.8437 164.394 43.7178L161.665 44.0107C161.581 43.2313 161.277 42.6729 160.753 42.335C160.227 41.9784 159.629 41.8355 158.961 41.9072C158.163 41.9929 157.555 42.2743 157.137 42.751C156.735 43.2071 156.57 43.7694 156.642 44.4375C156.699 44.9757 156.917 45.5064 157.292 46.0293C157.665 46.5336 158.203 47.0863 158.905 47.6865L165.298 52.8887C165.389 52.7141 165.482 52.5347 165.573 52.3496C165.897 51.6953 166.231 50.9552 166.574 50.1299L167.201 48.626L170.097 48.3154L169.157 50.585C168.776 51.5831 168.377 52.4989 167.96 53.332C167.751 53.7551 167.536 54.1549 167.317 54.5332L171.989 58.335L168.564 58.7021L165.951 56.5674C165.235 57.4688 164.464 58.1792 163.636 58.6963C162.528 59.3972 161.232 59.8269 159.747 59.9863C158.411 60.1297 157.206 60.0155 156.134 59.6426C155.059 59.251 154.195 58.6397 153.543 57.8086C152.889 56.9589 152.498 55.9398 152.37 54.752C152.269 53.8056 152.371 52.9218 152.677 52.1006C152.981 51.2608 153.482 50.5027 154.179 49.8271C154.695 49.3119 155.315 48.8524 156.04 48.4492C155.473 47.9364 155.032 47.4477 154.719 46.9814C154.29 46.314 154.032 45.5715 153.944 44.7549C153.853 43.9012 153.975 43.1182 154.312 42.4062C154.665 41.6737 155.211 41.0711 155.948 40.5977C156.704 40.1223 157.63 39.8256 158.725 39.708ZM157.851 49.9492C156.889 50.4595 156.183 51.0484 155.733 51.7158C155.215 52.4848 155.008 53.3523 155.111 54.3174C155.187 55.0225 155.424 55.6451 155.819 56.1846C156.234 56.7219 156.764 57.1155 157.41 57.3652C158.056 57.615 158.788 57.696 159.604 57.6084C160.662 57.4948 161.586 57.1708 162.373 56.6357C162.941 56.2352 163.487 55.683 164.013 54.9824L157.851 49.9492Z" fill="black"/>
<path fill-rule="evenodd" clip-rule="evenodd" d="M183 0C284.068 0 366 81.9319 366 183C366 284.068 284.068 366 183 366C81.9319 366 0 284.068 0 183C0 81.9319 81.9319 0 183 0ZM183 3C83.5887 3 3 83.5887 3 183C3 282.411 83.5887 363 183 363C282.411 363 363 282.411 363 183C363 83.5887 282.411 3 183 3Z" fill="black"/>
</svg>
