<svg width="526" height="139" viewBox="0 0 526 139" fill="none" xmlns="http://www.w3.org/2000/svg">
<path d="M12.18 43.44C9.66 43.44 7.48 42.96 5.64 42C3.84 41.04 2.44 39.66 1.44 37.86C0.48 36.06 0 33.92 0 31.44H5.1C5.1 32.84 5.32 34.12 5.76 35.28C6.24 36.4 6.98 37.3 7.98 37.98C9.02 38.62 10.4 38.94 12.12 38.94C13.8 38.94 15.12 38.62 16.08 37.98C17.08 37.34 17.78 36.48 18.18 35.4C18.62 34.28 18.84 33.02 18.84 31.62V0.719998H23.88V31.62C23.88 35.38 22.84 38.3 20.76 40.38C18.72 42.42 15.86 43.44 12.18 43.44Z" fill="black"/>
<path d="M61.3734 43.44C57.2534 43.44 53.6334 42.54 50.5134 40.74C47.4334 38.9 45.0134 36.36 43.2534 33.12C41.5334 29.84 40.6734 26.04 40.6734 21.72C40.6734 17.44 41.5334 13.68 43.2534 10.44C45.0134 7.16 47.4334 4.6 50.5134 2.76C53.6334 0.92 57.2534 0 61.3734 0C65.5334 0 69.1534 0.92 72.2334 2.76C75.3534 4.6 77.7734 7.16 79.4934 10.44C81.2134 13.68 82.0734 17.44 82.0734 21.72C82.0734 26.04 81.2134 29.84 79.4934 33.12C77.7734 36.36 75.3534 38.9 72.2334 40.74C69.1534 42.54 65.5334 43.44 61.3734 43.44ZM61.3734 39C64.4534 39 67.1534 38.32 69.4734 36.96C71.8334 35.56 73.6534 33.58 74.9334 31.02C76.2534 28.42 76.9134 25.32 76.9134 21.72C76.9134 18.12 76.2534 15.04 74.9334 12.48C73.6534 9.88 71.8334 7.9 69.4734 6.54C67.1534 5.18 64.4534 4.5 61.3734 4.5C58.2934 4.5 55.5734 5.18 53.2134 6.54C50.8934 7.9 49.0734 9.88 47.7534 12.48C46.4734 15.04 45.8334 18.12 45.8334 21.72C45.8334 25.32 46.4734 28.42 47.7534 31.02C49.0734 33.58 50.8934 35.56 53.2134 36.96C55.5734 38.32 58.2934 39 61.3734 39Z" fill="black"/>
<path d="M98.8594 42.72V0.719998H124.839V4.86H103.899V19.5H123.039V23.58H103.899V38.58H124.839V42.72H98.8594Z" fill="black"/>
<path d="M152.608 42.72V27.6L138.928 0.719998H144.628L155.128 22.38H155.368L165.808 0.719998H171.268L157.648 27.6V42.72H152.608Z" fill="black"/>
<path d="M243.57 42.72L220.29 19.2C218.45 17.36 217.13 15.7 216.33 14.22C215.53 12.7 215.13 11.04 215.13 9.24C215.13 7.44 215.55 5.84 216.39 4.44C217.27 3.04 218.51 1.96 220.11 1.2C221.71 0.4 223.61 0 225.81 0C227.97 0 229.85 0.419999 231.45 1.26C233.05 2.06 234.29 3.18 235.17 4.62C236.05 6.02 236.45 7.66 236.37 9.54H231.39C231.43 7.74 230.87 6.38 229.71 5.46C228.55 4.54 227.21 4.08 225.69 4.08C223.93 4.08 222.51 4.52 221.43 5.4C220.35 6.28 219.81 7.48 219.81 9C219.81 10.32 220.19 11.56 220.95 12.72C221.71 13.84 222.83 15.16 224.31 16.68L249.45 42.72H243.57ZM224.67 43.38C221.79 43.38 219.23 42.86 216.99 41.82C214.79 40.74 213.07 39.26 211.83 37.38C210.59 35.5 209.97 33.3 209.97 30.78C209.97 28.74 210.35 26.88 211.11 25.2C211.91 23.48 213.05 21.98 214.53 20.7C216.01 19.38 217.77 18.32 219.81 17.52L220.35 17.34L222.63 20.52L222.09 20.7C219.77 21.5 217.97 22.74 216.69 24.42C215.41 26.1 214.77 28.12 214.77 30.48C214.77 32.28 215.19 33.82 216.03 35.1C216.87 36.34 218.03 37.3 219.51 37.98C220.99 38.66 222.67 39 224.55 39C226.95 39 229.19 38.46 231.27 37.38C233.39 36.3 235.03 34.72 236.19 32.64C236.91 31.36 237.45 29.94 237.81 28.38C238.17 26.78 238.35 25.06 238.35 23.22V21H242.67V23.22C242.67 25.54 242.41 27.72 241.89 29.76C241.37 31.76 240.59 33.58 239.55 35.22C238.03 37.74 236.01 39.74 233.49 41.22C231.01 42.66 228.07 43.38 224.67 43.38Z" fill="black"/>
<path d="M287.766 42.72V0.719998H295.206L308.646 32.52H308.886L322.266 0.719998H329.706V42.72H324.666V8.34H324.426L312.306 36.72H305.226L293.046 8.34H292.806V42.72H287.766Z" fill="black"/>
<path d="M347.109 42.72V0.719998H373.089V4.86H352.149V19.5H371.289V23.58H352.149V38.58H373.089V42.72H347.109Z" fill="black"/>
<path d="M408.178 43.44C404.298 43.44 400.918 42.54 398.038 40.74C395.158 38.9 392.918 36.36 391.318 33.12C389.758 29.88 388.978 26.1 388.978 21.78C388.978 17.5 389.798 13.72 391.438 10.44C393.118 7.16 395.478 4.6 398.518 2.76C401.598 0.92 405.218 0 409.378 0C414.098 0 418.038 1.14 421.198 3.42C424.358 5.66 426.378 8.8 427.258 12.84H421.438C420.878 10.32 419.558 8.32 417.478 6.84C415.398 5.36 412.698 4.62 409.378 4.62C406.298 4.62 403.598 5.32 401.278 6.72C398.998 8.08 397.238 10.04 395.998 12.6C394.758 15.16 394.138 18.22 394.138 21.78C394.138 25.34 394.758 28.42 395.998 31.02C397.238 33.58 398.958 35.54 401.158 36.9C403.398 38.26 405.958 38.94 408.838 38.94C413.318 38.94 416.698 37.62 418.978 34.98C421.258 32.34 422.558 28.76 422.878 24.24H410.758V20.28H428.038V42.72H423.598L422.998 34.14H422.758C421.678 36.14 420.418 37.84 418.978 39.24C417.538 40.64 415.918 41.7 414.118 42.42C412.358 43.1 410.378 43.44 408.178 43.44Z" fill="black"/>
<path d="M443.065 42.72L457.405 0.719998H465.205L479.305 42.72H473.965L461.425 4.44H461.185L448.345 42.72H443.065ZM450.145 29.58L451.585 25.5H470.605L472.045 29.58H450.145Z" fill="black"/>
<path d="M493.148 42.72V0.719998H500.348L520.328 37.08H520.568V0.719998H525.608V42.72H518.408L498.428 6.36H498.188V42.72H493.148Z" fill="black"/>
<path d="M134.169 118.72V116.284C135.419 115.295 136.614 114.305 137.753 113.316C138.891 112.327 139.918 111.347 140.833 110.376C141.747 109.405 142.466 108.453 142.989 107.52C143.511 106.587 143.773 105.691 143.773 104.832C143.773 104.272 143.67 103.749 143.465 103.264C143.259 102.779 142.933 102.387 142.485 102.088C142.055 101.789 141.477 101.64 140.749 101.64C140.039 101.64 139.433 101.799 138.929 102.116C138.443 102.433 138.079 102.863 137.837 103.404C137.594 103.927 137.473 104.524 137.473 105.196H134.225C134.262 103.777 134.57 102.592 135.149 101.64C135.727 100.688 136.511 99.9787 137.501 99.512C138.49 99.0267 139.601 98.784 140.833 98.784C142.158 98.784 143.287 99.0267 144.221 99.512C145.154 99.9973 145.873 100.679 146.377 101.556C146.881 102.433 147.133 103.469 147.133 104.664C147.133 105.541 146.965 106.409 146.629 107.268C146.311 108.108 145.863 108.929 145.285 109.732C144.706 110.516 144.053 111.281 143.325 112.028C142.615 112.756 141.878 113.456 141.113 114.128C140.347 114.781 139.61 115.388 138.901 115.948H147.665V118.72H134.169Z" fill="black"/>
<path d="M160.693 119.056C158.919 119.056 157.398 118.636 156.129 117.796C154.859 116.937 153.879 115.752 153.189 114.24C152.517 112.709 152.181 110.936 152.181 108.92C152.181 106.904 152.517 105.14 153.189 103.628C153.879 102.097 154.859 100.912 156.129 100.072C157.398 99.2133 158.919 98.784 160.693 98.784C162.447 98.784 163.95 99.2133 165.201 100.072C166.47 100.912 167.441 102.097 168.113 103.628C168.803 105.14 169.149 106.904 169.149 108.92C169.149 110.936 168.803 112.709 168.113 114.24C167.441 115.752 166.47 116.937 165.201 117.796C163.95 118.636 162.447 119.056 160.693 119.056ZM160.665 116.032C161.654 116.032 162.531 115.752 163.297 115.192C164.062 114.613 164.65 113.792 165.061 112.728C165.49 111.664 165.705 110.395 165.705 108.92C165.705 107.445 165.49 106.176 165.061 105.112C164.65 104.048 164.062 103.236 163.297 102.676C162.531 102.097 161.654 101.808 160.665 101.808C159.675 101.808 158.798 102.097 158.033 102.676C157.267 103.236 156.67 104.048 156.241 105.112C155.83 106.176 155.625 107.445 155.625 108.92C155.625 110.395 155.83 111.664 156.241 112.728C156.67 113.792 157.267 114.613 158.033 115.192C158.798 115.752 159.675 116.032 160.665 116.032Z" fill="black"/>
<path d="M282.756 138.662C276.162 138.318 269.337 136.462 263.249 133.364C264.176 132.754 265.091 132.112 265.991 131.442C271.203 133.895 277.034 135.428 282.938 135.736C283.562 135.771 284.19 135.789 284.805 135.789H284.806C293.477 135.789 300.72 132.226 303.846 126.46C302.852 127.346 301.703 128.117 300.417 128.753C297.364 130.224 293.766 130.97 289.723 130.97C283.747 130.97 277.716 129.351 273.7 128.133L273.559 128.089C272.693 127.806 271.858 127.517 271.042 127.222C271.842 126.475 272.622 125.707 273.376 124.92C273.771 125.055 274.167 125.187 274.564 125.317L274.641 125.341C282.154 127.619 291.702 129.664 299.018 126.14C305.634 122.868 306.719 115.759 302.717 110.124C302.108 109.292 301.452 108.488 300.754 107.712C300.675 107.624 300.532 107.721 300.594 107.821C301.37 109.067 302.031 110.356 302.558 111.669C303.557 114.156 303.658 116.815 303.008 119.159C302.92 119.475 302.441 119.442 302.407 119.117C302.289 118.018 302.037 116.91 301.644 115.82C298.9 108.206 292.87 102.721 285.818 99.5798C285.897 97.7157 285.769 95.8988 285.429 94.1485C291.863 96.6772 297.787 100.491 302.349 105.44L302.399 105.498C316.803 122.256 304.135 139.859 282.756 138.662ZM226.543 132.22C207.94 113.209 236.629 80.9274 258.326 78.8329C267.837 77.9148 278.458 82.6403 281.87 91.4532C291.293 115.792 246.696 152.816 226.543 132.22ZM228.546 126.656C234.885 129.841 243.091 127.351 250.172 123.235C248.41 121.143 239.246 109.125 250.023 98.1702C255.629 92.4716 264.309 90.5241 272.536 91.1025C272.352 87.8691 270.987 85.0433 267.797 83.1888C262.53 80.1273 255.596 81.5478 249.222 84.5883C248.997 84.6957 249.145 85.0168 249.383 84.9358C252.361 83.9189 255.419 83.2641 258.45 83.0329C260.596 82.8691 262.745 83.1038 264.756 83.7022C266.204 84.1332 267.562 84.6901 268.354 85.5626C268.492 85.7145 268.62 85.8686 268.741 86.0245C268.873 86.1948 268.696 86.4289 268.486 86.3571C258.064 82.783 245.297 88.8759 238.199 95.13C231.104 101.382 223.225 114.065 227.931 124.001C227.77 123.957 226.561 122.707 225.577 121.447C224.732 120.365 224.18 119.08 224.033 117.723C223.854 116.063 223.77 115.158 223.919 113.546C222.552 118.971 223.296 124.019 228.546 126.656ZM258.548 117.256C259.958 116.041 261.212 114.835 262.257 113.705C265.626 110.062 270.265 103.083 271.931 96.4938C271.896 96.4933 271.86 96.4912 271.824 96.4907C265.485 96.4134 258.17 98.2549 253.233 103.365C253.042 103.595 252.864 103.827 252.693 104.059C253.068 102.348 253.924 100.671 255.316 99.0762C257.286 97.0408 259.737 95.4814 262.79 94.4973C262.833 94.4834 263.629 94.248 263.629 94.248C263.843 94.1861 265.286 93.8983 265.486 93.87C262.305 94.1 259.29 94.8482 256.473 96.4938C243.387 104.14 258.096 116.893 258.548 117.256ZM248.463 106.75C246.37 114.702 251.659 120.327 252.77 121.622C253.957 120.838 255.098 120.02 256.177 119.188C255.815 118.889 249.388 114.093 248.463 106.75ZM273.27 116.276C276.252 112.224 278.36 107.966 279.368 103.961C280.272 100.366 280.304 97.0211 279.471 93.9925C278.944 97.0716 277.812 100.268 276.366 103.333C276.222 103.638 275.736 103.472 275.827 103.148C277.297 97.9185 277.289 92.746 275.772 88.0387C275.621 87.5706 275.333 87.1534 274.96 86.8156C274.857 86.7225 274.753 86.6306 274.647 86.5401C275.025 87.447 275.298 88.4157 275.461 89.4391C276.222 94.196 273.94 105.515 264.58 115.638C258.857 121.827 246.264 131.034 235.027 131.034C232.666 131.034 230.458 130.635 228.444 129.845C228.563 129.973 228.683 130.1 228.807 130.226L228.811 130.229C229.036 130.46 229.315 130.64 229.622 130.759C231.785 131.603 234.062 132.136 236.447 132.339C240.534 132.689 244.8 132.081 248.974 130.676C249.207 130.597 249.356 130.913 249.138 131.026C245.73 132.783 241.745 134.364 237.672 134.974C238.822 135.188 240.023 135.297 241.274 135.297H241.277C251.874 135.297 265.03 127.475 273.27 116.276Z" fill="black"/>
<path d="M360.249 118.72V116.284C361.499 115.295 362.694 114.305 363.833 113.316C364.971 112.327 365.998 111.347 366.913 110.376C367.827 109.405 368.546 108.453 369.069 107.52C369.591 106.587 369.853 105.691 369.853 104.832C369.853 104.272 369.75 103.749 369.545 103.264C369.339 102.779 369.013 102.387 368.565 102.088C368.135 101.789 367.557 101.64 366.829 101.64C366.119 101.64 365.513 101.799 365.009 102.116C364.523 102.433 364.159 102.863 363.917 103.404C363.674 103.927 363.553 104.524 363.553 105.196H360.305C360.342 103.777 360.65 102.592 361.229 101.64C361.807 100.688 362.591 99.9787 363.581 99.512C364.57 99.0267 365.681 98.784 366.913 98.784C368.238 98.784 369.367 99.0267 370.301 99.512C371.234 99.9973 371.953 100.679 372.457 101.556C372.961 102.433 373.213 103.469 373.213 104.664C373.213 105.541 373.045 106.409 372.709 107.268C372.391 108.108 371.943 108.929 371.365 109.732C370.786 110.516 370.133 111.281 369.405 112.028C368.695 112.756 367.958 113.456 367.193 114.128C366.427 114.781 365.69 115.388 364.981 115.948H373.745V118.72H360.249Z" fill="black"/>
<path d="M385.627 119.056C384.302 119.056 383.107 118.823 382.043 118.356C380.979 117.871 380.13 117.199 379.495 116.34C378.879 115.463 378.571 114.436 378.571 113.26C378.571 112.476 378.711 111.748 378.991 111.076C379.271 110.404 379.673 109.825 380.195 109.34C380.718 108.836 381.325 108.463 382.015 108.22C381.101 107.809 380.373 107.24 379.831 106.512C379.309 105.765 379.047 104.935 379.047 104.02C379.047 103.068 379.299 102.2 379.803 101.416C380.307 100.632 381.045 99.9973 382.015 99.512C383.005 99.0267 384.209 98.784 385.627 98.784C387.046 98.784 388.241 99.0267 389.211 99.512C390.182 99.9973 390.919 100.632 391.423 101.416C391.927 102.2 392.179 103.068 392.179 104.02C392.179 104.916 391.909 105.747 391.367 106.512C390.845 107.259 390.126 107.828 389.211 108.22C389.921 108.463 390.527 108.836 391.031 109.34C391.554 109.844 391.955 110.432 392.235 111.104C392.534 111.757 392.683 112.476 392.683 113.26C392.683 114.436 392.366 115.463 391.731 116.34C391.097 117.199 390.247 117.871 389.183 118.356C388.138 118.823 386.953 119.056 385.627 119.056ZM385.627 116.228C386.859 116.228 387.783 115.929 388.399 115.332C389.034 114.716 389.351 113.941 389.351 113.008C389.351 111.963 389.015 111.16 388.343 110.6C387.69 110.021 386.785 109.732 385.627 109.732C384.47 109.732 383.546 110.021 382.855 110.6C382.183 111.16 381.847 111.963 381.847 113.008C381.847 113.941 382.165 114.716 382.799 115.332C383.453 115.929 384.395 116.228 385.627 116.228ZM385.627 107.184C386.635 107.184 387.419 106.923 387.979 106.4C388.558 105.859 388.847 105.187 388.847 104.384C388.847 103.469 388.558 102.769 387.979 102.284C387.419 101.78 386.635 101.528 385.627 101.528C384.619 101.528 383.826 101.78 383.247 102.284C382.687 102.769 382.407 103.469 382.407 104.384C382.407 105.205 382.687 105.877 383.247 106.4C383.826 106.923 384.619 107.184 385.627 107.184Z" fill="black"/>
</svg>
