<svg width="526" height="195" viewBox="0 0 526 195" fill="none" xmlns="http://www.w3.org/2000/svg">
<path d="M281.756 59.9422C275.162 59.5977 268.337 57.7418 262.249 54.6443C263.176 54.0343 264.091 53.3918 264.991 52.7217C270.203 55.1749 276.034 56.7077 281.938 57.0162C282.562 57.0512 283.19 57.0688 283.805 57.0691H283.806C292.477 57.0691 299.72 53.5062 302.846 47.7401C301.852 48.6256 300.703 49.3973 299.417 50.0335C296.364 51.504 292.766 52.2497 288.723 52.2497C282.747 52.2497 276.716 50.631 272.7 49.4131L272.559 49.3687C271.693 49.0862 270.858 48.7968 270.042 48.5024C270.842 47.7549 271.622 46.9866 272.376 46.2001C272.771 46.3351 273.167 46.4673 273.564 46.5968L273.641 46.6212C281.154 48.8993 290.702 50.9439 298.018 47.4202C304.634 44.1476 305.719 37.0386 301.717 31.4036C301.108 30.5717 300.452 29.7676 299.754 28.9916C299.675 28.9038 299.532 29.0013 299.594 29.1006C300.37 30.3472 301.031 31.6363 301.558 32.9494C302.557 35.4364 302.658 38.0949 302.008 40.4388C301.92 40.7546 301.441 40.7219 301.407 40.3971C301.289 39.2976 301.037 38.1896 300.644 37.1004C297.9 29.486 291.87 24.0008 284.818 20.8597C284.897 18.9957 284.769 17.1788 284.429 15.4285C290.863 17.9572 296.787 21.7713 301.349 26.7204L301.399 26.7776C315.803 43.5358 303.135 61.139 281.756 59.9422ZM225.543 53.5002C206.94 34.4891 235.629 2.20736 257.326 0.112867C266.837 -0.805227 277.458 3.92033 280.87 12.7332C290.293 37.0719 245.696 74.0956 225.543 53.5002ZM227.546 47.9361C233.885 51.1211 242.091 48.6309 249.172 44.5148C247.41 42.4229 238.246 30.4046 249.023 19.4502C254.629 13.7516 263.309 11.8041 271.536 12.3825C271.352 9.1491 269.987 6.32331 266.797 4.46883C261.53 1.40729 254.596 2.82779 248.222 5.86831C247.997 5.97574 248.145 6.29679 248.383 6.21579C251.361 5.19888 254.419 4.54408 257.45 4.31285C259.596 4.14914 261.745 4.38378 263.756 4.98224C265.204 5.41317 266.562 5.97006 267.354 6.84264C267.492 6.99448 267.62 7.14862 267.741 7.30453C267.873 7.47484 267.696 7.7089 267.486 7.6371C257.064 4.06298 244.297 10.1559 237.199 16.41C230.104 22.6616 222.225 35.345 226.931 45.2812C226.77 45.2366 225.561 43.987 224.577 42.727C223.732 41.6452 223.18 40.36 223.033 39.003C222.854 37.3435 222.77 36.4384 222.919 34.8263C221.552 40.2508 222.296 45.2985 227.546 47.9361ZM257.548 38.5365C258.958 37.3211 260.212 36.1147 261.257 34.9846C264.626 31.3417 269.265 24.3627 270.931 17.7738C270.896 17.7733 270.86 17.7712 270.824 17.7707C264.485 17.6934 257.17 19.5349 252.233 24.6449C252.042 24.8753 251.864 25.107 251.693 25.3393C252.068 23.6284 252.924 21.9508 254.316 20.3562C256.286 18.3208 258.737 16.7614 261.79 15.7773C261.833 15.7634 262.629 15.528 262.629 15.528C262.843 15.4661 264.286 15.1783 264.486 15.15C261.305 15.38 258.29 16.1282 255.473 17.7738C242.387 25.4196 257.096 38.1734 257.548 38.5365ZM247.463 28.0297C245.37 35.9816 250.659 41.6066 251.77 42.9021C252.957 42.118 254.098 41.2997 255.177 40.4683C254.815 40.1693 248.388 35.3733 247.463 28.0297ZM272.27 37.5562C275.252 33.5042 277.36 29.2458 278.368 25.241C279.272 21.6455 279.304 18.3011 278.471 15.2725C277.944 18.3516 276.812 21.5478 275.366 24.6127C275.222 24.9184 274.736 24.7521 274.827 24.4285C276.297 19.1985 276.289 14.026 274.772 9.31868C274.621 8.85057 274.333 8.43343 273.96 8.09556C273.857 8.00251 273.753 7.91061 273.647 7.82013C274.025 8.72695 274.298 9.69567 274.461 10.7191C275.222 15.476 272.94 26.7949 263.58 36.9179C257.857 43.1066 245.264 52.3144 234.027 52.3144C231.666 52.3144 229.458 51.9151 227.444 51.1255C227.563 51.2529 227.683 51.3795 227.807 51.5058L227.811 51.5094C228.036 51.7398 228.315 51.9196 228.622 52.0393C230.785 52.8833 233.062 53.4156 235.447 53.6194C239.534 53.9687 243.8 53.361 247.974 51.956C248.207 51.8773 248.356 52.1934 248.138 52.3057C244.73 54.0625 240.745 55.6439 236.672 56.2538C237.822 56.4684 239.023 56.5766 240.274 56.5768H240.277C250.874 56.5768 264.03 48.7551 272.27 37.5562Z" fill="black"/>
<path d="M12.18 138.72C9.66 138.72 7.48 138.24 5.64 137.28C3.84 136.32 2.44 134.94 1.44 133.14C0.48 131.34 0 129.2 0 126.72H5.1C5.1 128.12 5.32 129.4 5.76 130.56C6.24 131.68 6.98 132.58 7.98 133.26C9.02 133.9 10.4 134.22 12.12 134.22C13.8 134.22 15.12 133.9 16.08 133.26C17.08 132.62 17.78 131.76 18.18 130.68C18.62 129.56 18.84 128.3 18.84 126.9V96H23.88V126.9C23.88 130.66 22.84 133.58 20.76 135.66C18.72 137.7 15.86 138.72 12.18 138.72Z" fill="black"/>
<path d="M61.3734 138.72C57.2534 138.72 53.6334 137.82 50.5134 136.02C47.4334 134.18 45.0134 131.64 43.2534 128.4C41.5334 125.12 40.6734 121.32 40.6734 117C40.6734 112.72 41.5334 108.96 43.2534 105.72C45.0134 102.44 47.4334 99.88 50.5134 98.04C53.6334 96.2 57.2534 95.28 61.3734 95.28C65.5334 95.28 69.1534 96.2 72.2334 98.04C75.3534 99.88 77.7734 102.44 79.4934 105.72C81.2134 108.96 82.0734 112.72 82.0734 117C82.0734 121.32 81.2134 125.12 79.4934 128.4C77.7734 131.64 75.3534 134.18 72.2334 136.02C69.1534 137.82 65.5334 138.72 61.3734 138.72ZM61.3734 134.28C64.4534 134.28 67.1534 133.6 69.4734 132.24C71.8334 130.84 73.6534 128.86 74.9334 126.3C76.2534 123.7 76.9134 120.6 76.9134 117C76.9134 113.4 76.2534 110.32 74.9334 107.76C73.6534 105.16 71.8334 103.18 69.4734 101.82C67.1534 100.46 64.4534 99.78 61.3734 99.78C58.2934 99.78 55.5734 100.46 53.2134 101.82C50.8934 103.18 49.0734 105.16 47.7534 107.76C46.4734 110.32 45.8334 113.4 45.8334 117C45.8334 120.6 46.4734 123.7 47.7534 126.3C49.0734 128.86 50.8934 130.84 53.2134 132.24C55.5734 133.6 58.2934 134.28 61.3734 134.28Z" fill="black"/>
<path d="M98.8594 138V96H124.839V100.14H103.899V114.78H123.039V118.86H103.899V133.86H124.839V138H98.8594Z" fill="black"/>
<path d="M152.608 138V122.88L138.928 96H144.628L155.128 117.66H155.368L165.808 96H171.268L157.648 122.88V138H152.608Z" fill="black"/>
<path d="M243.57 138L220.29 114.48C218.45 112.64 217.13 110.98 216.33 109.5C215.53 107.98 215.13 106.32 215.13 104.52C215.13 102.72 215.55 101.12 216.39 99.72C217.27 98.32 218.51 97.24 220.11 96.48C221.71 95.68 223.61 95.28 225.81 95.28C227.97 95.28 229.85 95.7 231.45 96.54C233.05 97.34 234.29 98.46 235.17 99.9C236.05 101.3 236.45 102.94 236.37 104.82H231.39C231.43 103.02 230.87 101.66 229.71 100.74C228.55 99.82 227.21 99.36 225.69 99.36C223.93 99.36 222.51 99.8 221.43 100.68C220.35 101.56 219.81 102.76 219.81 104.28C219.81 105.6 220.19 106.84 220.95 108C221.71 109.12 222.83 110.44 224.31 111.96L249.45 138H243.57ZM224.67 138.66C221.79 138.66 219.23 138.14 216.99 137.1C214.79 136.02 213.07 134.54 211.83 132.66C210.59 130.78 209.97 128.58 209.97 126.06C209.97 124.02 210.35 122.16 211.11 120.48C211.91 118.76 213.05 117.26 214.53 115.98C216.01 114.66 217.77 113.6 219.81 112.8L220.35 112.62L222.63 115.8L222.09 115.98C219.77 116.78 217.97 118.02 216.69 119.7C215.41 121.38 214.77 123.4 214.77 125.76C214.77 127.56 215.19 129.1 216.03 130.38C216.87 131.62 218.03 132.58 219.51 133.26C220.99 133.94 222.67 134.28 224.55 134.28C226.95 134.28 229.19 133.74 231.27 132.66C233.39 131.58 235.03 130 236.19 127.92C236.91 126.64 237.45 125.22 237.81 123.66C238.17 122.06 238.35 120.34 238.35 118.5V116.28H242.67V118.5C242.67 120.82 242.41 123 241.89 125.04C241.37 127.04 240.59 128.86 239.55 130.5C238.03 133.02 236.01 135.02 233.49 136.5C231.01 137.94 228.07 138.66 224.67 138.66Z" fill="black"/>
<path d="M287.766 138V96H295.206L308.646 127.8H308.886L322.266 96H329.706V138H324.666V103.62H324.426L312.306 132H305.226L293.046 103.62H292.806V138H287.766Z" fill="black"/>
<path d="M347.109 138V96H373.089V100.14H352.149V114.78H371.289V118.86H352.149V133.86H373.089V138H347.109Z" fill="black"/>
<path d="M408.178 138.72C404.298 138.72 400.918 137.82 398.038 136.02C395.158 134.18 392.918 131.64 391.318 128.4C389.758 125.16 388.978 121.38 388.978 117.06C388.978 112.78 389.798 109 391.438 105.72C393.118 102.44 395.478 99.88 398.518 98.04C401.598 96.2 405.218 95.28 409.378 95.28C414.098 95.28 418.038 96.42 421.198 98.7C424.358 100.94 426.378 104.08 427.258 108.12H421.438C420.878 105.6 419.558 103.6 417.478 102.12C415.398 100.64 412.698 99.9 409.378 99.9C406.298 99.9 403.598 100.6 401.278 102C398.998 103.36 397.238 105.32 395.998 107.88C394.758 110.44 394.138 113.5 394.138 117.06C394.138 120.62 394.758 123.7 395.998 126.3C397.238 128.86 398.958 130.82 401.158 132.18C403.398 133.54 405.958 134.22 408.838 134.22C413.318 134.22 416.698 132.9 418.978 130.26C421.258 127.62 422.558 124.04 422.878 119.52H410.758V115.56H428.038V138H423.598L422.998 129.42H422.758C421.678 131.42 420.418 133.12 418.978 134.52C417.538 135.92 415.918 136.98 414.118 137.7C412.358 138.38 410.378 138.72 408.178 138.72Z" fill="black"/>
<path d="M443.065 138L457.405 96H465.205L479.305 138H473.965L461.425 99.72H461.185L448.345 138H443.065ZM450.145 124.86L451.585 120.78H470.605L472.045 124.86H450.145Z" fill="black"/>
<path d="M493.148 138V96H500.348L520.328 132.36H520.568V96H525.608V138H518.408L498.428 101.64H498.188V138H493.148Z" fill="black"/>
<path d="M77.3134 194V178.236L73.8414 179.132V176.528L78.6574 174.4H80.7574V194H77.3134Z" fill="black"/>
<path d="M94.7477 194.336C92.9744 194.336 91.4531 193.916 90.1837 193.076C88.9144 192.217 87.9344 191.032 87.2437 189.52C86.5717 187.989 86.2357 186.216 86.2357 184.2C86.2357 182.184 86.5717 180.42 87.2437 178.908C87.9344 177.377 88.9144 176.192 90.1837 175.352C91.4531 174.493 92.9744 174.064 94.7477 174.064C96.5024 174.064 98.0051 174.493 99.2557 175.352C100.525 176.192 101.496 177.377 102.168 178.908C102.858 180.42 103.204 182.184 103.204 184.2C103.204 186.216 102.858 187.989 102.168 189.52C101.496 191.032 100.525 192.217 99.2557 193.076C98.0051 193.916 96.5024 194.336 94.7477 194.336ZM94.7197 191.312C95.7091 191.312 96.5864 191.032 97.3517 190.472C98.1171 189.893 98.7051 189.072 99.1157 188.008C99.5451 186.944 99.7597 185.675 99.7597 184.2C99.7597 182.725 99.5451 181.456 99.1157 180.392C98.7051 179.328 98.1171 178.516 97.3517 177.956C96.5864 177.377 95.7091 177.088 94.7197 177.088C93.7304 177.088 92.8531 177.377 92.0877 177.956C91.3224 178.516 90.7251 179.328 90.2957 180.392C89.8851 181.456 89.6797 182.725 89.6797 184.2C89.6797 185.675 89.8851 186.944 90.2957 188.008C90.7251 189.072 91.3224 189.893 92.0877 190.472C92.8531 191.032 93.7304 191.312 94.7197 191.312Z" fill="black"/>
<path d="M122.786 194V186.944L116.262 174.4H120.07L124.858 184.368H124.13L128.918 174.4H132.698L126.146 186.944V194H122.786Z" fill="black"/>
<path d="M137.351 194V174.4H150.007V177.116H140.711V182.744H149.167V185.404H140.711V191.284H150.007V194H137.351Z" fill="black"/>
<path d="M154.491 194L161.659 174.4H165.411L172.579 194H169.023L163.507 178.32L157.991 194H154.491ZM157.683 189.38L158.579 186.72H168.239L169.135 189.38H157.683Z" fill="black"/>
<path d="M177.515 194V174.4H184.543C186.092 174.4 187.371 174.671 188.379 175.212C189.405 175.735 190.161 176.444 190.647 177.34C191.151 178.217 191.403 179.216 191.403 180.336C191.403 181.381 191.16 182.352 190.675 183.248C190.189 184.144 189.433 184.863 188.407 185.404C187.38 185.945 186.064 186.216 184.459 186.216H180.875V194H177.515ZM187.735 194L183.619 185.348H187.259L191.571 194H187.735ZM180.875 183.724H184.319C185.569 183.724 186.484 183.425 187.063 182.828C187.66 182.212 187.959 181.409 187.959 180.42C187.959 179.449 187.669 178.675 187.091 178.096C186.512 177.499 185.588 177.2 184.319 177.2H180.875V183.724Z" fill="black"/>
<path d="M203.698 194.336C202.279 194.336 201.019 194.084 199.918 193.58C198.817 193.076 197.958 192.357 197.342 191.424C196.726 190.491 196.409 189.38 196.39 188.092H199.946C199.946 188.745 200.095 189.333 200.394 189.856C200.711 190.36 201.141 190.761 201.682 191.06C202.242 191.359 202.914 191.508 203.698 191.508C204.37 191.508 204.949 191.405 205.434 191.2C205.938 190.976 206.321 190.668 206.582 190.276C206.862 189.865 207.002 189.389 207.002 188.848C207.002 188.232 206.853 187.728 206.554 187.336C206.274 186.925 205.882 186.58 205.378 186.3C204.874 186.02 204.295 185.777 203.642 185.572C202.989 185.348 202.298 185.115 201.57 184.872C200.021 184.349 198.854 183.687 198.07 182.884C197.286 182.063 196.894 180.971 196.894 179.608C196.894 178.469 197.165 177.489 197.706 176.668C198.247 175.847 199.003 175.212 199.974 174.764C200.963 174.297 202.102 174.064 203.39 174.064C204.697 174.064 205.835 174.297 206.806 174.764C207.795 175.231 208.57 175.884 209.13 176.724C209.709 177.545 210.007 178.535 210.026 179.692H206.442C206.423 179.207 206.293 178.759 206.05 178.348C205.807 177.919 205.453 177.573 204.986 177.312C204.538 177.032 203.987 176.892 203.334 176.892C202.774 176.873 202.27 176.967 201.822 177.172C201.393 177.359 201.047 177.639 200.786 178.012C200.543 178.367 200.422 178.815 200.422 179.356C200.422 179.879 200.534 180.317 200.758 180.672C201.001 181.008 201.346 181.297 201.794 181.54C202.242 181.764 202.765 181.979 203.362 182.184C203.959 182.389 204.613 182.613 205.322 182.856C206.293 183.173 207.17 183.565 207.954 184.032C208.757 184.48 209.391 185.068 209.858 185.796C210.325 186.524 210.558 187.467 210.558 188.624C210.558 189.632 210.297 190.575 209.774 191.452C209.251 192.311 208.486 193.011 207.478 193.552C206.47 194.075 205.21 194.336 203.698 194.336Z" fill="black"/>
<path d="M225.141 194V174.4H228.501V194H225.141Z" fill="black"/>
<path d="M234.682 194V174.4H238.042L247.478 188.568V174.4H250.838V194H247.478L238.042 179.86V194H234.682Z" fill="black"/>
<path d="M270.659 194V177.116H264.891V174.4H279.759V177.116H273.991V194H270.659Z" fill="black"/>
<path d="M297.145 194V174.4H300.505V194H297.145ZM284.769 194V174.4H288.129V194H284.769ZM287.625 185.376V182.632H297.789V185.376H287.625Z" fill="black"/>
<path d="M306.724 194V174.4H319.38V177.116H310.084V182.744H318.54V185.404H310.084V191.284H319.38V194H306.724Z" fill="black"/>
<path d="M334.227 194V174.4H338.203L344.475 187.056L350.691 174.4H354.695V194H351.335V180.168L345.791 191.256H343.159L337.587 180.196V194H334.227Z" fill="black"/>
<path d="M359.624 194L366.792 174.4H370.544L377.712 194H374.156L368.64 178.32L363.124 194H359.624ZM362.816 189.38L363.712 186.72H373.372L374.268 189.38H362.816Z" fill="black"/>
<path d="M382.649 194V174.4H386.009V182.492L393.401 174.4H397.573L390.321 182.184L397.741 194H393.653L387.941 184.76L386.009 186.86V194H382.649Z" fill="black"/>
<path d="M402.607 194V174.4H405.967V194H402.607Z" fill="black"/>
<path d="M412.148 194V174.4H415.508L424.944 188.568V174.4H428.304V194H424.944L415.508 179.86V194H412.148Z" fill="black"/>
<path d="M443.026 194.336C441.178 194.336 439.554 193.916 438.154 193.076C436.772 192.236 435.699 191.069 434.934 189.576C434.168 188.064 433.786 186.3 433.786 184.284C433.786 182.287 434.178 180.523 434.962 178.992C435.746 177.443 436.866 176.239 438.322 175.38C439.796 174.503 441.542 174.064 443.558 174.064C445.835 174.064 447.72 174.615 449.214 175.716C450.726 176.799 451.706 178.311 452.154 180.252H448.374C448.094 179.281 447.543 178.525 446.722 177.984C445.9 177.443 444.836 177.172 443.53 177.172C442.204 177.172 441.066 177.461 440.114 178.04C439.18 178.6 438.462 179.421 437.958 180.504C437.472 181.568 437.23 182.837 437.23 184.312C437.23 185.787 437.472 187.056 437.958 188.12C438.462 189.184 439.171 189.996 440.086 190.556C441 191.097 442.074 191.368 443.306 191.368C445.135 191.368 446.516 190.855 447.45 189.828C448.383 188.801 448.934 187.467 449.102 185.824H444.034V183.276H452.49V194H449.41L449.13 191.312C448.7 191.947 448.206 192.497 447.646 192.964C447.086 193.412 446.423 193.757 445.658 194C444.911 194.224 444.034 194.336 443.026 194.336Z" fill="black"/>
</svg>
