<svg width="485" height="109" viewBox="0 0 485 109" fill="none" xmlns="http://www.w3.org/2000/svg">
<path d="M0 68.48V65.6C1.86667 64.16 3.64 62.7067 5.32 61.24C7 59.7733 8.49333 58.32 9.8 56.88C11.1333 55.4133 12.1733 53.9867 12.92 52.6C13.6667 51.1867 14.04 49.84 14.04 48.56C14.04 47.6533 13.88 46.8133 13.56 46.04C13.24 45.2667 12.7333 44.64 12.04 44.16C11.3467 43.6533 10.4 43.4 9.2 43.4C8.05333 43.4 7.09333 43.6533 6.32 44.16C5.57333 44.6667 5 45.3467 4.6 46.2C4.22667 47.0267 4.04 47.9467 4.04 48.96H0.16C0.186667 47.04 0.6 45.4133 1.4 44.08C2.2 42.7467 3.28 41.7333 4.64 41.04C6.02667 40.3467 7.57333 40 9.28 40C11.0667 40 12.6133 40.3333 13.92 41C15.2267 41.64 16.24 42.5867 16.96 43.84C17.68 45.0667 18.04 46.5733 18.04 48.36C18.04 49.64 17.7867 50.92 17.28 52.2C16.7733 53.4533 16.08 54.68 15.2 55.88C14.3467 57.08 13.3867 58.24 12.32 59.36C11.2533 60.4533 10.1467 61.4933 9 62.48C7.88 63.4667 6.8 64.36 5.76 65.16H18.92V68.48H0Z" fill="black"/>
<path d="M42.2534 68.96C39.7734 68.96 37.6401 68.36 35.8534 67.16C34.0668 65.9333 32.6934 64.24 31.7334 62.08C30.7734 59.8933 30.2934 57.36 30.2934 54.48C30.2934 51.6 30.7734 49.08 31.7334 46.92C32.6934 44.7333 34.0668 43.04 35.8534 41.84C37.6401 40.6133 39.7734 40 42.2534 40C44.7334 40 46.8534 40.6133 48.6134 41.84C50.4001 43.04 51.7601 44.7333 52.6934 46.92C53.6534 49.08 54.1334 51.6 54.1334 54.48C54.1334 57.36 53.6534 59.8933 52.6934 62.08C51.7601 64.24 50.4001 65.9333 48.6134 67.16C46.8534 68.36 44.7334 68.96 42.2534 68.96ZM42.2534 65.4C43.7468 65.4 45.0801 64.96 46.2534 64.08C47.4534 63.2 48.3868 61.9467 49.0534 60.32C49.7201 58.6933 50.0534 56.7467 50.0534 54.48C50.0534 52.2133 49.7201 50.2667 49.0534 48.64C48.3868 47.0133 47.4534 45.7733 46.2534 44.92C45.0801 44.04 43.7468 43.6 42.2534 43.6C40.7334 43.6 39.3734 44.04 38.1734 44.92C36.9734 45.7733 36.0401 47.0133 35.3734 48.64C34.7068 50.2667 34.3734 52.2133 34.3734 54.48C34.3734 56.7467 34.7068 58.6933 35.3734 60.32C36.0401 61.9467 36.9734 63.2 38.1734 64.08C39.3734 64.96 40.7334 65.4 42.2534 65.4Z" fill="black"/>
<path d="M192.216 28.96C190.482 28.96 188.989 28.64 187.736 28C186.482 27.3333 185.509 26.3733 184.816 25.12C184.122 23.8667 183.776 22.3733 183.776 20.64H187.816C187.816 21.5467 187.962 22.36 188.256 23.08C188.549 23.8 189.002 24.3733 189.616 24.8C190.256 25.2 191.096 25.4 192.136 25.4C193.176 25.4 193.989 25.2 194.576 24.8C195.189 24.4 195.629 23.8667 195.896 23.2C196.162 22.5067 196.296 21.72 196.296 20.84V0.479999H200.296V20.84C200.296 23.4267 199.576 25.4267 198.136 26.84C196.696 28.2533 194.722 28.96 192.216 28.96Z" fill="black"/>
<path d="M226.723 28.96C224.029 28.96 221.656 28.36 219.602 27.16C217.576 25.9333 215.976 24.24 214.803 22.08C213.656 19.8933 213.083 17.36 213.083 14.48C213.083 11.6267 213.656 9.12 214.803 6.96C215.976 4.77333 217.576 3.06667 219.602 1.84C221.656 0.613333 224.029 0 226.723 0C229.469 0 231.869 0.613333 233.923 1.84C235.976 3.06667 237.562 4.77333 238.682 6.96C239.829 9.12 240.402 11.6267 240.402 14.48C240.402 17.36 239.829 19.8933 238.682 22.08C237.562 24.24 235.976 25.9333 233.923 27.16C231.869 28.36 229.469 28.96 226.723 28.96ZM226.762 25.4C228.682 25.4 230.363 24.96 231.803 24.08C233.243 23.2 234.349 21.9467 235.122 20.32C235.923 18.6933 236.322 16.7467 236.322 14.48C236.322 12.2133 235.923 10.2667 235.122 8.64C234.349 7.01333 233.243 5.77333 231.803 4.92C230.363 4.04 228.682 3.6 226.762 3.6C224.842 3.6 223.163 4.04 221.723 4.92C220.283 5.77333 219.163 7.01333 218.363 8.64C217.562 10.2667 217.163 12.2133 217.163 14.48C217.163 16.7467 217.562 18.6933 218.363 20.32C219.163 21.9467 220.283 23.2 221.723 24.08C223.163 24.96 224.842 25.4 226.762 25.4Z" fill="black"/>
<path d="M253.216 28.48V0.479999H270.896V3.76H257.216V12.72H269.696V15.92H257.216V25.2H270.896V28.48H253.216Z" fill="black"/>
<path d="M291.108 28.48V18.08L281.868 0.479999H286.388L293.628 15.2H292.628L299.828 0.479999H304.308L295.108 18.08V28.48H291.108Z" fill="black"/>
<path d="M195.451 68.48L205.731 40.48H210.091L220.371 68.48H216.091L207.891 45.28L199.651 68.48H195.451ZM200.091 61.56L201.211 58.36H214.371L215.491 61.56H200.091Z" fill="black"/>
<path d="M232.361 68.48V40.48H236.361L250.641 61.96V40.48H254.641V68.48H250.641L236.361 47.04V68.48H232.361Z" fill="black"/>
<path d="M268.486 68.48V40.48H277.086C280.339 40.48 283.032 41.0533 285.166 42.2C287.299 43.3467 288.872 44.9733 289.886 47.08C290.926 49.16 291.446 51.64 291.446 54.52C291.446 57.4 290.926 59.88 289.886 61.96C288.872 64.04 287.299 65.6533 285.166 66.8C283.059 67.92 280.366 68.48 277.086 68.48H268.486ZM272.486 65.12H276.926C279.512 65.12 281.566 64.6933 283.086 63.84C284.606 62.9867 285.686 61.7733 286.326 60.2C286.992 58.6 287.326 56.7067 287.326 54.52C287.326 52.3067 286.992 50.4 286.326 48.8C285.686 47.2 284.606 45.9733 283.086 45.12C281.566 44.2667 279.512 43.84 276.926 43.84H272.486V65.12Z" fill="black"/>
<path d="M159.33 108.48V80.48H164.05L173.53 99.4L182.97 80.48H187.73V108.48H183.73V87.48L175.05 104.56H171.97L163.33 87.52V108.48H159.33Z" fill="black"/>
<path d="M201.548 108.48V80.48H219.228V83.76H205.548V92.72H218.028V95.92H205.548V105.2H219.228V108.48H201.548Z" fill="black"/>
<path d="M244.52 108.96C241.88 108.96 239.573 108.36 237.6 107.16C235.627 105.96 234.093 104.28 233 102.12C231.907 99.96 231.36 97.44 231.36 94.56C231.36 91.7067 231.907 89.1867 233 87C234.12 84.8133 235.707 83.1067 237.76 81.88C239.84 80.6267 242.293 80 245.12 80C248.293 80 250.947 80.7733 253.08 82.32C255.213 83.84 256.586 85.96 257.2 88.68H252.64C252.24 87.1333 251.4 85.92 250.12 85.04C248.84 84.1333 247.16 83.68 245.08 83.68C243.107 83.68 241.387 84.12 239.92 85C238.48 85.88 237.373 87.1333 236.6 88.76C235.827 90.3867 235.44 92.32 235.44 94.56C235.44 96.8267 235.827 98.7733 236.6 100.4C237.373 102.027 238.467 103.267 239.88 104.12C241.293 104.973 242.92 105.4 244.76 105.4C247.587 105.4 249.707 104.587 251.12 102.96C252.56 101.333 253.4 99.16 253.64 96.44H245.92V93.36H257.68V108.48H254.04L253.68 104.2C253.04 105.24 252.293 106.12 251.44 106.84C250.613 107.533 249.64 108.067 248.52 108.44C247.4 108.787 246.067 108.96 244.52 108.96Z" fill="black"/>
<path d="M269.147 108.48L279.427 80.48H283.787L294.067 108.48H289.787L281.587 85.28L273.347 108.48H269.147ZM273.787 101.56L274.907 98.36H288.067L289.187 101.56H273.787Z" fill="black"/>
<path d="M306.056 108.48V80.48H310.056L324.336 101.96V80.48H328.336V108.48H324.336L310.056 87.04V108.48H306.056Z" fill="black"/>
<path d="M434.102 68.48V65.6C435.968 64.16 437.742 62.7067 439.422 61.24C441.102 59.7733 442.595 58.32 443.902 56.88C445.235 55.4133 446.275 53.9867 447.022 52.6C447.768 51.1867 448.142 49.84 448.142 48.56C448.142 47.6533 447.982 46.8133 447.662 46.04C447.342 45.2667 446.835 44.64 446.142 44.16C445.448 43.6533 444.502 43.4 443.302 43.4C442.155 43.4 441.195 43.6533 440.422 44.16C439.675 44.6667 439.102 45.3467 438.702 46.2C438.328 47.0267 438.142 47.9467 438.142 48.96H434.262C434.288 47.04 434.702 45.4133 435.502 44.08C436.302 42.7467 437.382 41.7333 438.742 41.04C440.128 40.3467 441.675 40 443.382 40C445.168 40 446.715 40.3333 448.022 41C449.328 41.64 450.342 42.5867 451.062 43.84C451.782 45.0667 452.142 46.5733 452.142 48.36C452.142 49.64 451.888 50.92 451.382 52.2C450.875 53.4533 450.182 54.68 449.302 55.88C448.448 57.08 447.488 58.24 446.422 59.36C445.355 60.4533 444.248 61.4933 443.102 62.48C441.982 63.4667 440.902 64.36 439.862 65.16H453.022V68.48H434.102Z" fill="black"/>
<path d="M474.601 68.96C472.761 68.96 471.094 68.6267 469.601 67.96C468.134 67.2667 466.961 66.3067 466.081 65.08C465.227 63.8533 464.801 62.4267 464.801 60.8C464.801 59.6533 465.014 58.6 465.441 57.64C465.867 56.6533 466.467 55.8 467.241 55.08C468.014 54.36 468.921 53.84 469.961 53.52C468.574 52.96 467.481 52.1333 466.681 51.04C465.881 49.9467 465.481 48.7467 465.481 47.44C465.481 46.08 465.841 44.84 466.561 43.72C467.281 42.6 468.321 41.7067 469.681 41.04C471.041 40.3467 472.681 40 474.601 40C476.521 40 478.161 40.3467 479.521 41.04C480.881 41.7067 481.907 42.6 482.601 43.72C483.321 44.84 483.681 46.08 483.681 47.44C483.681 48.7467 483.281 49.96 482.481 51.08C481.707 52.1733 480.627 52.9867 479.241 53.52C480.281 53.84 481.187 54.36 481.961 55.08C482.734 55.8 483.334 56.6533 483.761 57.64C484.187 58.6 484.401 59.6533 484.401 60.8C484.401 62.4267 483.961 63.8533 483.081 65.08C482.227 66.3067 481.054 67.2667 479.561 67.96C478.094 68.6267 476.441 68.96 474.601 68.96ZM474.601 65.52C476.547 65.52 478.001 65.0667 478.961 64.16C479.947 63.2267 480.441 62.0133 480.441 60.52C480.441 58.84 479.907 57.56 478.841 56.68C477.801 55.8 476.387 55.36 474.601 55.36C472.814 55.36 471.387 55.8 470.321 56.68C469.281 57.56 468.761 58.84 468.761 60.52C468.761 62.0133 469.241 63.2267 470.201 64.16C471.187 65.0667 472.654 65.52 474.601 65.52ZM474.601 52.2C476.174 52.2 477.414 51.7867 478.321 50.96C479.254 50.1333 479.721 49.08 479.721 47.8C479.721 46.3333 479.267 45.2267 478.361 44.48C477.454 43.7333 476.201 43.36 474.601 43.36C473.027 43.36 471.787 43.7333 470.881 44.48C469.974 45.2267 469.521 46.3333 469.521 47.8C469.521 49.08 469.974 50.1333 470.881 50.96C471.787 51.7867 473.027 52.2 474.601 52.2Z" fill="black"/>
</svg>
