<svg width="1132" height="400" viewBox="0 0 1132 400" fill="none" xmlns="http://www.w3.org/2000/svg">
<path d="M36.8419 192.404V192.5H33.3219V192.404C33.5139 191.508 33.8659 189.908 33.8659 188.212V173.748C33.8659 172.052 33.5139 170.452 33.3219 169.556V169.46H36.8419V169.556C36.6179 170.452 36.2659 172.052 36.2659 173.748V188.212C36.2659 189.908 36.6179 191.508 36.8419 192.404ZM45.0101 192.724C42.6741 192.724 41.4581 190.996 41.4581 188.596V177.78H39.1221V177.076C41.7141 176.5 42.6741 174.676 43.2821 172.532H43.7301V176.724H48.2421V177.78H43.7301V188.276C43.7301 190.132 44.5941 191.092 46.1621 191.092C46.8981 191.092 48.0821 190.9 49.2981 190.004C48.4661 191.636 46.8661 192.724 45.0101 192.724ZM49.6951 175.732C51.3271 174.804 51.8391 173.108 51.8391 172.596C51.6791 172.596 51.5511 172.628 51.5511 172.628C50.4631 172.66 49.6311 171.86 49.6311 170.836C49.6311 169.844 50.4951 169.108 51.4871 169.108C52.6391 169.108 53.5991 170.1 53.5991 171.54C53.5991 173.268 52.1591 174.964 50.3671 175.732H49.6951ZM60.2929 192.724C58.5329 192.724 56.6129 192.18 54.5649 191.092V187.956H54.6609C56.1009 189.716 58.0209 191.7 60.4209 191.7C62.0849 191.7 63.8449 190.772 63.8449 188.788C63.8449 186.932 62.3089 186.292 59.6849 185.396C56.6129 184.372 54.5009 183.476 54.5009 180.916C54.5009 178.132 56.9649 176.532 60.0369 176.532C61.7009 176.532 63.6209 177.044 65.3169 177.908V180.82H65.1889C63.7169 178.932 62.0209 177.524 59.9089 177.524C58.1489 177.524 56.5169 178.484 56.5169 180.148C56.5169 181.94 58.2129 182.388 60.8689 183.252C63.9729 184.276 65.7329 185.46 65.7329 188.052C65.7329 191.156 63.2689 192.724 60.2929 192.724ZM73.8301 177.78V176.724H76.4541V174.932C76.4541 170.26 78.5341 168.82 81.0621 168.82C82.2461 168.82 83.5901 169.14 85.0621 169.748V172.18H84.9021C83.5261 170.58 82.4381 169.748 81.3821 169.748C79.9101 169.748 78.6941 171.22 78.6941 174.74V176.724H86.2461V188.212C86.2461 189.908 86.5981 191.508 86.7901 192.404V192.5H83.3981V192.404C83.5901 191.508 83.9421 189.908 83.9421 188.212L83.9741 181.012C83.9741 179.796 83.8141 178.676 83.6221 177.78H78.6941V188.212C78.6941 189.908 79.0461 191.508 79.2701 192.404V192.5H75.8781V192.404C76.1021 191.508 76.4541 189.908 76.4541 188.212V177.78H73.8301ZM92.9359 192.404V192.5H89.5439V192.404C89.7679 191.508 90.1199 189.908 90.1199 188.212V181.012C90.1199 179.284 89.7679 177.716 89.5439 176.82V176.724H92.3599V179.38C93.9599 177.364 95.7199 176.532 97.5759 176.532C100.104 176.532 102.76 177.908 102.76 182.004V188.212C102.76 189.908 103.112 191.508 103.336 192.404V192.5H99.9439V192.404C100.168 191.508 100.52 189.908 100.52 188.212V182.228C100.52 179.38 98.7599 178.132 96.8079 178.132C95.2719 178.1 93.7999 178.9 92.3599 180.372V188.212C92.3599 189.908 92.7119 191.508 92.9359 192.404ZM110.43 192.724C107.198 192.724 105.342 190.548 105.342 188.084C105.342 184.372 109.662 182.292 114.686 183.252C114.942 183.316 115.166 183.348 115.358 183.412V181.268C115.358 178.74 113.822 177.556 111.998 177.556C109.918 177.556 107.422 179.636 106.334 181.108H106.238V177.876C108.254 176.98 110.366 176.532 112.094 176.532C115.39 176.532 117.63 178.164 117.63 181.236V189.844C117.63 191.284 118.526 191.668 119.678 191.348L119.71 191.444C119.23 192.18 118.462 192.564 117.662 192.564C116.318 192.564 115.454 191.732 115.358 190.356C114.398 191.572 112.766 192.724 110.43 192.724ZM107.774 187.956C107.774 190.004 109.47 191.412 111.422 191.412C112.862 191.412 114.302 190.58 115.358 189.204V184.308L115.166 184.276C110.462 183.316 107.774 185.428 107.774 187.956ZM124.735 192.404V192.5H121.311V192.404C121.535 191.508 121.887 189.908 121.887 188.212V173.46C121.887 171.764 121.567 170.228 121.215 169.364L121.183 169.268L121.727 169.172L124.159 168.756V188.212C124.159 189.908 124.511 191.508 124.735 192.404ZM130.79 192.404V192.5H127.366V192.404C127.59 191.508 127.942 189.908 127.942 188.212V173.46C127.942 171.764 127.622 170.228 127.27 169.364L127.238 169.268L127.782 169.172L130.214 168.756V188.212C130.214 189.908 130.566 191.508 130.79 192.404ZM133.23 198.26L133.742 195.828L133.806 195.796C135.342 197.172 137.838 197.908 138.926 195.156L139.822 192.82L134.638 180.628C133.966 179.06 133.262 177.748 132.366 176.82V176.724H136.846V176.82C136.462 177.716 136.462 179.124 137.134 180.628L141.006 189.812L144.558 180.692C145.166 179.156 145.102 177.716 144.75 176.82V176.724H147.534V176.82C147.15 177.364 146.638 178.324 146.158 179.508L139.886 195.508C138.542 198.996 136.014 199.508 133.23 198.26ZM161.334 192.724C158.998 192.724 157.782 190.996 157.782 188.596V177.78H155.446V177.076C158.038 176.5 158.998 174.676 159.606 172.532H160.054V176.724H164.566V177.78H160.054V188.276C160.054 190.132 160.918 191.092 162.486 191.092C163.222 191.092 164.406 190.9 165.622 190.004C164.79 191.636 163.19 192.724 161.334 192.724ZM169.068 172.468C168.108 172.468 167.276 171.7 167.276 170.74C167.276 169.78 168.076 169.012 169.068 169.012C170.028 169.012 170.828 169.78 170.828 170.74C170.828 171.7 170.028 172.468 169.068 172.468ZM170.828 192.404V192.5H167.468V192.404C167.66 191.508 168.012 189.908 168.012 188.212L168.044 181.012C168.044 179.284 167.692 177.716 167.468 176.82V176.724H170.252V188.212C170.252 189.908 170.604 191.508 170.828 192.404ZM177.031 192.404V192.5H173.671V192.404C173.895 191.508 174.247 189.908 174.247 188.212V181.012C174.247 179.284 173.895 177.716 173.671 176.82V176.724H176.487V178.804C177.895 177.172 179.239 176.532 180.839 176.532C182.535 176.532 184.391 177.268 185.223 179.348C186.823 177.332 188.295 176.532 190.023 176.532C192.327 176.532 194.919 177.908 194.919 182.004V188.212C194.919 189.908 195.271 191.508 195.463 192.404V192.5H192.103V192.404C192.327 191.508 192.679 189.908 192.679 188.212V182.228C192.679 179.38 190.919 178.132 189.159 178.132C187.911 178.132 186.791 178.836 185.479 180.116C185.639 180.66 185.703 181.3 185.703 182.004V188.212C185.703 189.908 186.055 191.508 186.279 192.404V192.5H182.887V192.404C183.111 191.508 183.463 189.908 183.463 188.212V182.228C183.463 179.38 181.703 178.132 179.943 178.132C178.759 178.132 177.639 178.74 176.487 179.86V188.212C176.487 189.908 176.839 191.508 177.031 192.404ZM204.602 192.724C200.602 192.724 197.402 189.556 197.402 184.596C197.402 179.732 200.474 176.532 204.506 176.532C208.346 176.532 211.002 179.476 211.002 184.02H199.898V184.212C199.898 188.148 201.946 191.06 205.498 191.06C207.322 191.06 209.114 190.292 210.97 188.372L211.066 188.436C209.882 191.06 207.482 192.724 204.602 192.724ZM204.474 177.492C201.722 177.492 200.186 179.924 199.93 183.156L208.538 182.9C208.378 179.572 206.97 177.492 204.474 177.492ZM215.68 180.276C214.656 180.276 213.792 179.444 213.792 178.42C213.792 177.396 214.656 176.564 215.68 176.564C216.704 176.564 217.568 177.396 217.568 178.42C217.568 179.444 216.704 180.276 215.68 180.276ZM215.68 192.724C214.656 192.724 213.792 191.892 213.792 190.868C213.792 189.844 214.656 189.012 215.68 189.012C216.704 189.012 217.568 189.844 217.568 190.868C217.568 191.892 216.704 192.724 215.68 192.724ZM237.431 192.5L229.815 172.628C229.783 172.98 229.783 173.396 229.783 173.78V186.74C229.783 189.076 230.455 191.22 230.839 192.372V192.532H227.543V192.372C227.927 191.22 228.599 189.076 228.599 186.74V173.78C228.599 172.084 228.087 170.484 227.767 169.588V169.492H231.095L238.935 190.004L246.999 169.46H249.911V169.556C249.719 170.452 249.367 172.052 249.367 173.748V188.212C249.367 189.908 249.719 191.508 249.911 192.404V192.5H246.455V192.404C246.647 191.508 246.999 189.908 246.999 188.212V172.596L239.223 192.5H237.431ZM259.259 192.724C255.259 192.724 252.059 189.556 252.059 184.596C252.059 179.732 255.131 176.532 259.163 176.532C263.003 176.532 265.659 179.476 265.659 184.02H254.555V184.212C254.555 188.148 256.603 191.06 260.155 191.06C261.979 191.06 263.771 190.292 265.627 188.372L265.723 188.436C264.539 191.06 262.139 192.724 259.259 192.724ZM259.131 177.492C256.379 177.492 254.843 179.924 254.587 183.156L263.195 182.9C263.035 179.572 261.627 177.492 259.131 177.492ZM273.889 187.7C272.865 187.7 271.873 187.476 270.945 187.06C270.113 187.284 269.473 187.892 269.473 188.692C269.473 189.972 270.945 190.164 272.129 190.164H277.313C279.905 190.164 281.793 191.604 281.793 194.228C281.793 198.356 276.833 198.9 274.305 198.9C271.521 198.9 267.489 198.132 267.489 195.028C267.489 193.78 268.129 192.66 269.217 191.924C268.257 191.444 267.873 190.612 267.873 189.62C267.873 187.988 268.865 187.028 270.177 186.612C268.737 185.652 267.745 184.116 267.745 182.1C267.745 178.644 270.753 176.532 273.889 176.532C275.137 176.532 276.385 176.852 277.441 177.46C278.369 175.988 279.937 175.444 281.697 175.7L281.281 177.748L281.217 177.812C280.193 177.236 279.041 177.172 277.825 177.748C279.201 178.708 280.129 180.18 280.129 182.1C280.129 185.588 277.025 187.7 273.889 187.7ZM273.889 186.74C276.065 186.74 277.729 185.076 277.729 182.1C277.729 179.124 276.065 177.46 273.889 177.46C271.745 177.46 270.113 179.124 270.113 182.1C270.113 185.076 271.745 186.74 273.889 186.74ZM269.281 194.388C269.281 196.564 271.297 197.908 274.625 197.908C278.177 197.908 279.873 196.372 279.873 194.74C279.873 193.556 279.105 192.436 277.313 192.436H271.841C271.137 192.436 270.561 192.372 270.049 192.244C269.505 192.852 269.281 193.652 269.281 194.388ZM287.794 192.724C284.562 192.724 282.706 190.548 282.706 188.084C282.706 184.372 287.026 182.292 292.05 183.252C292.306 183.316 292.53 183.348 292.722 183.412V181.268C292.722 178.74 291.186 177.556 289.362 177.556C287.282 177.556 284.786 179.636 283.698 181.108H283.602V177.876C285.618 176.98 287.73 176.532 289.458 176.532C292.754 176.532 294.994 178.164 294.994 181.236V189.844C294.994 191.284 295.89 191.668 297.042 191.348L297.074 191.444C296.594 192.18 295.826 192.564 295.026 192.564C293.682 192.564 292.818 191.732 292.722 190.356C291.762 191.572 290.13 192.724 287.794 192.724ZM285.138 187.956C285.138 190.004 286.834 191.412 288.786 191.412C290.226 191.412 291.666 190.58 292.722 189.204V184.308L292.53 184.276C287.826 183.316 285.138 185.428 285.138 187.956ZM302.035 192.404V192.5H298.643V192.404C298.867 191.508 299.219 189.908 299.219 188.212V181.012C299.219 179.284 298.867 177.716 298.643 176.82V176.724H301.459V179.38C303.059 177.364 304.819 176.532 306.675 176.532C309.203 176.532 311.859 177.908 311.859 182.004V188.212C311.859 189.908 312.211 191.508 312.435 192.404V192.5H309.043V192.404C309.267 191.508 309.619 189.908 309.619 188.212V182.228C309.619 179.38 307.859 178.132 305.907 178.132C304.371 178.1 302.899 178.9 301.459 180.372V188.212C301.459 189.908 301.811 191.508 302.035 192.404ZM326.865 192.724C323.633 192.724 321.777 190.548 321.777 188.084C321.777 184.372 326.097 182.292 331.121 183.252C331.377 183.316 331.601 183.348 331.793 183.412V181.268C331.793 178.74 330.257 177.556 328.433 177.556C326.353 177.556 323.857 179.636 322.769 181.108H322.673V177.876C324.689 176.98 326.801 176.532 328.529 176.532C331.825 176.532 334.065 178.164 334.065 181.236V189.844C334.065 191.284 334.961 191.668 336.113 191.348L336.145 191.444C335.665 192.18 334.897 192.564 334.097 192.564C332.753 192.564 331.889 191.732 331.793 190.356C330.833 191.572 329.201 192.724 326.865 192.724ZM324.209 187.956C324.209 190.004 325.905 191.412 327.857 191.412C329.297 191.412 330.737 190.58 331.793 189.204V184.308L331.601 184.276C326.897 183.316 324.209 185.428 324.209 187.956ZM341.106 192.404V192.5H337.714V192.404C337.938 191.508 338.29 189.908 338.29 188.212V181.012C338.29 179.284 337.938 177.716 337.714 176.82V176.724H340.53V179.38C342.13 177.364 343.89 176.532 345.746 176.532C348.274 176.532 350.93 177.908 350.93 182.004V188.212C350.93 189.908 351.282 191.508 351.506 192.404V192.5H348.114V192.404C348.338 191.508 348.69 189.908 348.69 188.212V182.228C348.69 179.38 346.93 178.132 344.978 178.132C343.442 178.1 341.97 178.9 340.53 180.372V188.212C340.53 189.908 340.882 191.508 341.106 192.404ZM365.413 192.5C365.253 191.668 364.997 191.028 364.869 189.94C363.557 191.86 361.797 192.724 359.845 192.724C356.293 192.724 353.541 189.844 353.541 184.852C353.541 179.316 356.837 176.532 360.357 176.532C362.117 176.532 363.653 177.268 364.773 178.676V173.46C364.773 171.764 364.389 170.228 364.005 169.364L363.973 169.268L364.645 169.172L367.077 168.756V188.212C367.077 189.908 367.429 191.508 367.621 192.404V192.5H365.413ZM356.037 184.628C356.037 188.244 357.509 191.38 360.549 191.38C362.309 191.38 363.685 190.324 364.773 188.82C364.773 188.692 364.773 188.5 364.773 188.34V179.86C363.877 178.74 362.565 177.844 360.901 177.844C357.989 177.844 356.037 180.5 356.037 184.628ZM54.8829 230.692C52.8029 230.692 50.8189 229.86 49.3149 228.996L49.2829 224.804H49.5069C50.5629 226.852 52.3869 229.508 54.7229 229.508C57.1549 229.508 57.6349 227.14 57.6349 224.932V211.748C57.6349 210.052 57.2829 208.452 57.0909 207.556V207.46H60.6109V207.556C60.3869 208.452 60.0349 210.052 60.0349 211.748V224.324C60.0349 229.06 57.8269 230.692 54.8829 230.692ZM70.1674 230.724C65.9754 230.724 62.6794 227.524 62.6794 222.564C62.6794 217.636 65.9754 214.532 70.1674 214.532C74.3274 214.532 77.7194 217.636 77.7194 222.564C77.7194 227.524 74.3274 230.724 70.1674 230.724ZM70.1674 229.7C73.2074 229.7 75.1594 226.596 75.1594 222.564C75.1594 218.596 73.2074 215.492 70.1674 215.492C67.1274 215.492 65.2074 218.596 65.2074 222.564C65.2074 226.532 67.0954 229.7 70.1674 229.7ZM86.7781 230.724C82.7781 230.724 79.5781 227.556 79.5781 222.596C79.5781 217.732 82.6501 214.532 86.6821 214.532C90.5221 214.532 93.1781 217.476 93.1781 222.02H82.0741V222.212C82.0741 226.148 84.1221 229.06 87.6741 229.06C89.4981 229.06 91.2901 228.292 93.1461 226.372L93.2421 226.436C92.0581 229.06 89.6581 230.724 86.7781 230.724ZM86.6501 215.492C83.8981 215.492 82.3621 217.924 82.1061 221.156L90.7141 220.9C90.5541 217.572 89.1461 215.492 86.6501 215.492ZM94.4234 236.26L94.9354 233.828L94.9994 233.796C96.5354 235.172 99.0314 235.908 100.119 233.156L101.015 230.82L95.8314 218.628C95.1594 217.06 94.4554 215.748 93.5594 214.82V214.724H98.0394V214.82C97.6554 215.716 97.6554 217.124 98.3274 218.628L102.199 227.812L105.751 218.692C106.359 217.156 106.295 215.716 105.943 214.82V214.724H108.727V214.82C108.343 215.364 107.831 216.324 107.351 217.508L101.079 233.508C99.7354 236.996 97.2074 237.508 94.4234 236.26ZM122.368 230.724C119.136 230.724 117.28 228.548 117.28 226.084C117.28 222.372 121.6 220.292 126.624 221.252C126.88 221.316 127.104 221.348 127.296 221.412V219.268C127.296 216.74 125.76 215.556 123.936 215.556C121.856 215.556 119.36 217.636 118.272 219.108H118.176V215.876C120.192 214.98 122.304 214.532 124.032 214.532C127.328 214.532 129.568 216.164 129.568 219.236V227.844C129.568 229.284 130.464 229.668 131.616 229.348L131.648 229.444C131.168 230.18 130.4 230.564 129.6 230.564C128.256 230.564 127.392 229.732 127.296 228.356C126.336 229.572 124.704 230.724 122.368 230.724ZM119.712 225.956C119.712 228.004 121.408 229.412 123.36 229.412C124.8 229.412 126.24 228.58 127.296 227.204V222.308L127.104 222.276C122.4 221.316 119.712 223.428 119.712 225.956ZM136.608 230.404V230.5H133.216V230.404C133.44 229.508 133.792 227.908 133.792 226.212V219.012C133.792 217.284 133.44 215.716 133.216 214.82V214.724H136.032V217.188C137.312 215.076 139.808 213.924 142.304 214.692L141.984 217.38H141.888C140.32 216.164 137.856 215.844 136.032 218.02V226.212C136.032 227.908 136.384 229.508 136.608 230.404ZM150.209 230.724C146.209 230.724 143.009 227.556 143.009 222.596C143.009 217.732 146.081 214.532 150.113 214.532C153.953 214.532 156.609 217.476 156.609 222.02H145.505V222.212C145.505 226.148 147.553 229.06 151.105 229.06C152.929 229.06 154.721 228.292 156.577 226.372L156.673 226.436C155.489 229.06 153.089 230.724 150.209 230.724ZM150.081 215.492C147.329 215.492 145.793 217.924 145.537 221.156L154.145 220.9C153.985 217.572 152.577 215.492 150.081 215.492ZM171.123 230.724C168.787 230.724 167.571 228.996 167.571 226.596V215.78H165.235V215.076C167.827 214.5 168.787 212.676 169.395 210.532H169.843V214.724H174.355V215.78H169.843V226.276C169.843 228.132 170.707 229.092 172.275 229.092C173.011 229.092 174.195 228.9 175.411 228.004C174.579 229.636 172.979 230.724 171.123 230.724ZM176.277 236.26L176.789 233.828L176.853 233.796C178.389 235.172 180.885 235.908 181.973 233.156L182.869 230.82L177.685 218.628C177.013 217.06 176.309 215.748 175.413 214.82V214.724H179.893V214.82C179.509 215.716 179.509 217.124 180.181 218.628L184.053 227.812L187.605 218.692C188.213 217.156 188.149 215.716 187.797 214.82V214.724H190.581V214.82C190.197 215.364 189.685 216.324 189.205 217.508L182.933 233.508C181.589 236.996 179.061 237.508 176.277 236.26ZM194.13 210.468C193.17 210.468 192.338 209.7 192.338 208.74C192.338 207.78 193.138 207.012 194.13 207.012C195.09 207.012 195.89 207.78 195.89 208.74C195.89 209.7 195.09 210.468 194.13 210.468ZM195.89 230.404V230.5H192.53V230.404C192.722 229.508 193.074 227.908 193.074 226.212L193.106 219.012C193.106 217.284 192.754 215.716 192.53 214.82V214.724H195.314V226.212C195.314 227.908 195.666 229.508 195.89 230.404ZM202.126 230.404V230.5H198.734V230.404C198.958 229.508 199.31 227.908 199.31 226.212V219.012C199.31 217.284 198.958 215.716 198.734 214.82V214.724H201.55V217.38C203.15 215.364 204.91 214.532 206.766 214.532C209.294 214.532 211.95 215.908 211.95 220.004V226.212C211.95 227.908 212.302 229.508 212.526 230.404V230.5H209.134V230.404C209.358 229.508 209.71 227.908 209.71 226.212V220.228C209.71 217.38 207.95 216.132 205.998 216.132C204.462 216.1 202.99 216.9 201.55 218.372V226.212C201.55 227.908 201.902 229.508 202.126 230.404ZM220.833 225.7C219.809 225.7 218.817 225.476 217.889 225.06C217.057 225.284 216.417 225.892 216.417 226.692C216.417 227.972 217.889 228.164 219.073 228.164H224.257C226.849 228.164 228.737 229.604 228.737 232.228C228.737 236.356 223.777 236.9 221.249 236.9C218.465 236.9 214.433 236.132 214.433 233.028C214.433 231.78 215.073 230.66 216.161 229.924C215.201 229.444 214.817 228.612 214.817 227.62C214.817 225.988 215.809 225.028 217.121 224.612C215.681 223.652 214.689 222.116 214.689 220.1C214.689 216.644 217.697 214.532 220.833 214.532C222.081 214.532 223.329 214.852 224.385 215.46C225.313 213.988 226.881 213.444 228.641 213.7L228.225 215.748L228.161 215.812C227.137 215.236 225.985 215.172 224.769 215.748C226.145 216.708 227.073 218.18 227.073 220.1C227.073 223.588 223.969 225.7 220.833 225.7ZM220.833 224.74C223.009 224.74 224.673 223.076 224.673 220.1C224.673 217.124 223.009 215.46 220.833 215.46C218.689 215.46 217.057 217.124 217.057 220.1C217.057 223.076 218.689 224.74 220.833 224.74ZM216.225 232.388C216.225 234.564 218.241 235.908 221.569 235.908C225.121 235.908 226.817 234.372 226.817 232.74C226.817 231.556 226.049 230.436 224.257 230.436H218.785C218.081 230.436 217.505 230.372 216.993 230.244C216.449 230.852 216.225 231.652 216.225 232.388ZM242.484 230.724C240.148 230.724 238.932 228.996 238.932 226.596V215.78H236.596V215.076C239.188 214.5 240.148 212.676 240.756 210.532H241.204V214.724H245.716V215.78H241.204V226.276C241.204 228.132 242.068 229.092 243.636 229.092C244.372 229.092 245.556 228.9 246.772 228.004C245.94 229.636 244.34 230.724 242.484 230.724ZM251.597 230.404V230.5H248.205V230.404C248.429 229.508 248.781 227.908 248.781 226.212V211.46C248.781 209.764 248.461 208.228 248.077 207.364L248.045 207.268L248.621 207.172L251.021 206.756V217.348C252.653 215.332 254.381 214.532 256.237 214.532C258.765 214.532 261.421 215.908 261.421 220.004V226.212C261.421 227.908 261.773 229.508 261.997 230.404V230.5H258.605V230.404C258.829 229.508 259.181 227.908 259.181 226.212V220.228C259.181 217.38 257.389 216.132 255.437 216.132C253.901 216.132 252.429 216.9 251.021 218.34V226.212C251.021 227.908 251.373 229.508 251.597 230.404ZM271.322 230.724C267.322 230.724 264.122 227.556 264.122 222.596C264.122 217.732 267.194 214.532 271.226 214.532C275.066 214.532 277.722 217.476 277.722 222.02H266.618V222.212C266.618 226.148 268.666 229.06 272.218 229.06C274.042 229.06 275.834 228.292 277.69 226.372L277.786 226.436C276.602 229.06 274.202 230.724 271.322 230.724ZM271.194 215.492C268.442 215.492 266.906 217.924 266.65 221.156L275.258 220.9C275.098 217.572 273.69 215.492 271.194 215.492ZM290.827 230.404V230.5H287.435V230.404C287.627 229.508 287.979 227.908 287.979 226.212V211.46C287.979 209.764 287.691 208.228 287.307 207.364L287.275 207.268L287.851 207.172L290.283 206.756V226.212C290.283 227.908 290.635 229.508 290.827 230.404ZM297.803 230.5L290.891 221.86L290.859 221.828L294.379 218.692C296.043 217.252 296.651 216.004 296.107 214.852V214.724H300.395V214.852L293.131 221.124L300.683 230.404V230.5H297.803ZM305.597 230.404V230.5H302.205V230.404C302.429 229.508 302.781 227.908 302.781 226.212V219.012C302.781 217.284 302.429 215.716 302.205 214.82V214.724H305.021V217.38C306.621 215.364 308.381 214.532 310.237 214.532C312.765 214.532 315.421 215.908 315.421 220.004V226.212C315.421 227.908 315.773 229.508 315.997 230.404V230.5H312.605V230.404C312.829 229.508 313.181 227.908 313.181 226.212V220.228C313.181 217.38 311.421 216.132 309.469 216.132C307.933 216.1 306.461 216.9 305.021 218.372V226.212C305.021 227.908 305.373 229.508 305.597 230.404ZM325.392 230.724C321.2 230.724 317.904 227.524 317.904 222.564C317.904 217.636 321.2 214.532 325.392 214.532C329.552 214.532 332.944 217.636 332.944 222.564C332.944 227.524 329.552 230.724 325.392 230.724ZM325.392 229.7C328.432 229.7 330.384 226.596 330.384 222.564C330.384 218.596 328.432 215.492 325.392 215.492C322.352 215.492 320.432 218.596 320.432 222.564C320.432 226.532 322.32 229.7 325.392 229.7ZM339.869 230.724C337.533 230.724 336.317 228.996 336.317 226.596V215.78H333.981V215.076C336.573 214.5 337.533 212.676 338.141 210.532H338.589V214.724H343.101V215.78H338.589V226.276C338.589 228.132 339.453 229.092 341.021 229.092C341.757 229.092 342.941 228.9 344.157 228.004C343.325 229.636 341.725 230.724 339.869 230.724ZM347.667 223.716C347.251 218.308 346.483 212.868 346.387 207.46H349.651C349.491 212.868 348.755 218.308 348.275 223.716H347.667ZM347.987 230.724C346.963 230.724 346.099 229.892 346.099 228.868C346.099 227.844 346.963 227.012 347.987 227.012C349.011 227.012 349.875 227.844 349.875 228.868C349.875 229.892 349.011 230.724 347.987 230.724Z" fill="white"/>
<path d="M543.602 81.6666V79.2667C545.16 78.0667 546.64 76.8555 548.042 75.6333C549.445 74.4111 550.691 73.2 551.782 72C552.894 70.7778 553.762 69.5889 554.386 68.4333C555.009 67.2555 555.32 66.1333 555.32 65.0667C555.32 64.3111 555.187 63.6111 554.92 62.9667C554.653 62.3222 554.23 61.8 553.651 61.4C553.072 60.9778 552.282 60.7667 551.281 60.7667C550.324 60.7667 549.522 60.9778 548.877 61.4C548.254 61.8222 547.775 62.3889 547.441 63.1C547.13 63.7889 546.974 64.5555 546.974 65.4H543.736C543.758 63.8 544.103 62.4444 544.771 61.3333C545.438 60.2222 546.34 59.3778 547.475 58.8C548.632 58.2222 549.923 57.9333 551.348 57.9333C552.839 57.9333 554.13 58.2111 555.22 58.7667C556.311 59.3 557.157 60.0889 557.758 61.1333C558.359 62.1555 558.659 63.4111 558.659 64.9C558.659 65.9667 558.448 67.0333 558.025 68.1C557.602 69.1444 557.023 70.1667 556.289 71.1667C555.576 72.1667 554.775 73.1333 553.885 74.0667C552.995 74.9778 552.071 75.8444 551.114 76.6666C550.179 77.4889 549.278 78.2333 548.41 78.9H559.394V81.6666H543.602Z" fill="#EEEEEE"/>
<path d="M578.869 82.0667C576.799 82.0667 575.018 81.5667 573.527 80.5667C572.036 79.5444 570.889 78.1333 570.088 76.3333C569.287 74.5111 568.886 72.4 568.886 70C568.886 67.6 569.287 65.5 570.088 63.7C570.889 61.8778 572.036 60.4667 573.527 59.4667C575.018 58.4444 576.799 57.9333 578.869 57.9333C580.939 57.9333 582.708 58.4444 584.177 59.4667C585.668 60.4667 586.803 61.8778 587.582 63.7C588.384 65.5 588.784 67.6 588.784 70C588.784 72.4 588.384 74.5111 587.582 76.3333C586.803 78.1333 585.668 79.5444 584.177 80.5667C582.708 81.5667 580.939 82.0667 578.869 82.0667ZM578.869 79.1C580.115 79.1 581.228 78.7333 582.207 78C583.209 77.2667 583.988 76.2222 584.544 74.8667C585.101 73.5111 585.379 71.8889 585.379 70C585.379 68.1111 585.101 66.4889 584.544 65.1333C583.988 63.7778 583.209 62.7444 582.207 62.0333C581.228 61.3 580.115 60.9333 578.869 60.9333C577.6 60.9333 576.465 61.3 575.463 62.0333C574.462 62.7444 573.683 63.7778 573.126 65.1333C572.57 66.4889 572.292 68.1111 572.292 70C572.292 71.8889 572.57 73.5111 573.126 74.8667C573.683 76.2222 574.462 77.2667 575.463 78C576.465 78.7333 577.6 79.1 578.869 79.1Z" fill="#EEEEEE"/>
<path d="M541.148 171.452C543.177 171.153 545.376 171.004 547.745 171.004C550.204 171.004 552.876 171.194 555.759 171.576C558.643 171.862 561.781 172.292 565.173 172.864C568.565 173.436 572.085 173.913 575.731 174.295C579.463 174.581 582.982 174.724 586.29 174.724C590.021 174.724 593.202 174.533 595.831 174.151C598.545 173.675 600.198 172.959 600.792 172.005H601.047C601.725 172.005 601.979 172.435 601.81 173.293C601.555 174.438 600.962 175.201 600.029 175.583C599.181 175.869 598.248 176.25 597.23 176.727C591.124 182.927 585.612 189.509 580.693 196.472C575.774 203.34 571.11 210.303 566.7 217.362C563.901 221.75 561.187 226.138 558.558 230.525C555.929 234.818 553.385 238.92 550.925 242.831C553.13 241.4 556.014 238.776 559.576 234.961C563.222 231.145 567.124 226.71 571.279 221.654C575.435 216.599 579.506 211.496 583.492 206.345C586.969 201.862 590.742 197.331 594.813 192.752C598.884 188.078 603.082 183.786 607.407 179.875C611.732 175.964 615.93 172.816 620.001 170.432C624.157 167.952 627.93 166.712 631.323 166.712C633.612 166.712 635.818 167.284 637.938 168.428C640.058 169.478 641.118 171.624 641.118 174.867C641.118 175.916 640.821 177.108 640.227 178.444C639.634 179.779 638.743 180.59 637.556 180.876C637.98 180.399 638.277 179.732 638.447 178.873C638.616 177.919 638.743 177.108 638.828 176.441C638.828 174.819 638.192 173.484 636.92 172.435C635.733 171.29 633.782 170.718 631.068 170.718C627.676 170.718 623.987 171.862 620.001 174.151C616.1 176.345 612.072 179.302 607.916 183.022C603.845 186.647 599.817 190.654 595.831 195.041C591.93 199.429 588.325 203.722 585.018 207.919C581.456 212.497 577.81 217.076 574.078 221.654C570.431 226.138 566.912 230.239 563.52 233.96C560.127 237.584 557.074 240.446 554.36 242.544C551.731 244.643 549.653 245.596 548.127 245.406C548.042 245.406 548 245.358 548 245.262C547.745 245.262 547.533 244.977 547.363 244.404C547.279 244.118 547.236 243.593 547.236 242.831C547.236 240.35 548.042 237.25 549.653 233.53C551.265 229.715 553.385 225.661 556.014 221.368C558.643 216.98 561.399 212.688 564.283 208.491C567.251 204.199 570.049 200.335 572.678 196.901C575.392 193.372 577.64 190.606 579.42 188.603C581.371 186.409 583.491 184.215 585.781 182.021C588.156 179.827 590.488 177.967 592.778 176.441H590.87C589.089 176.536 587.053 177.156 584.763 178.301C582.558 179.35 580.396 180.638 578.276 182.164C576.156 183.69 574.29 185.217 572.678 186.743C570.389 188.937 567.717 191.894 564.664 195.614C561.611 199.239 558.431 203.245 555.123 207.632C551.816 211.925 548.593 216.313 545.455 220.796C542.318 225.279 539.01 229.81 535.533 234.388C532.141 238.967 528.579 243.212 524.847 247.123C521.116 250.938 517.257 254.038 513.271 256.423C509.37 258.807 505.299 260 501.059 260C499.532 260 498.006 259.714 496.479 259.141C494.868 258.664 493.553 257.711 492.536 256.28C491.433 254.945 490.882 253.084 490.882 250.7C490.882 249.364 491.348 247.886 492.281 246.264C493.129 244.547 494.189 243.689 495.461 243.689C494.783 244.833 494.444 246.216 494.444 247.838C494.444 249.555 495.08 250.986 496.352 252.13C497.624 253.37 499.659 253.991 502.458 253.991C505.681 253.991 509.073 252.941 512.635 250.843C516.197 248.84 519.801 246.169 523.448 242.831C527.094 239.397 530.656 235.629 534.134 231.527C537.611 227.425 540.833 223.276 543.802 219.079C547.194 214.31 550.628 209.635 554.106 205.057C557.583 200.478 560.933 196.377 564.155 192.752C567.463 189.032 570.389 186.171 572.933 184.167C573.781 183.5 575.18 182.402 577.131 180.876C579.166 179.35 581.753 177.967 584.891 176.727C581.753 176.822 578.445 176.775 574.968 176.584C571.576 176.298 568.269 175.916 565.046 175.44C563.265 175.153 561.442 174.915 559.576 174.724C557.71 174.533 555.802 174.438 553.851 174.438C548.678 174.438 543.802 175.201 539.222 176.727C534.643 178.253 531.123 180.924 528.664 184.74C527.222 187.029 526.501 189.271 526.501 191.465C526.501 192.991 526.798 194.231 527.391 195.185C527.731 195.566 528.112 195.995 528.536 196.472C528.96 196.854 529.3 197.044 529.554 197.044C529.215 197.426 528.791 197.617 528.282 197.617C527.688 197.617 527.095 197.474 526.501 197.188C525.992 196.806 525.568 196.425 525.229 196.043C524.381 194.994 523.745 193.801 523.321 192.466C522.897 191.035 522.685 189.652 522.685 188.317C522.685 185.646 523.278 183.404 524.465 181.592C526.84 177.967 529.893 175.297 533.625 173.58C533.996 173.409 534.378 173.246 534.769 173.092V140H541.148V171.452ZM625.726 176.727C624.623 177.681 622.927 179.446 620.637 182.021C618.347 184.501 616.227 186.934 614.277 189.318C611.648 192.466 608.679 196.234 605.372 200.621C602.149 205.009 598.926 209.492 595.704 214.071C592.566 218.649 589.725 222.942 587.181 226.948C584.637 230.955 582.728 234.245 581.456 236.821C580.863 237.965 580.354 239.158 579.93 240.398C579.591 241.638 579.42 242.783 579.42 243.832C579.42 245.644 580.142 246.55 581.583 246.55C582.516 246.55 584 245.978 586.036 244.834C588.156 243.498 590.149 241.781 592.015 239.683C593.88 237.489 595.873 235.056 597.993 232.385C598.248 232.385 598.375 232.528 598.375 232.815C598.375 233.196 598.206 233.721 597.866 234.388C597.612 235.056 597.4 235.581 597.23 235.963C593.923 240.35 590.785 243.641 587.817 245.835C584.849 248.029 581.795 249.126 578.657 249.126C576.622 249.126 575.18 248.649 574.332 247.695C573.569 246.646 573.187 245.358 573.187 243.832C573.187 242.21 573.484 240.445 574.078 238.538C574.756 236.63 575.562 234.722 576.495 232.815C578.954 228.045 581.88 223.133 585.272 218.078C588.665 213.022 592.269 208.014 596.085 203.054C599.986 198.094 603.803 193.515 607.534 189.318C609.4 187.315 611.436 185.36 613.641 183.452C615.845 181.544 618.008 179.97 620.128 178.73C622.248 177.395 624.114 176.727 625.726 176.727ZM541.148 193.389C541.148 197.734 540.467 201.545 539.107 204.822C537.746 208.061 535.84 210.767 533.391 212.939C530.942 215.111 528.016 216.75 524.614 217.855C521.212 218.922 517.452 219.455 513.336 219.455C510.784 219.455 508.436 219.322 506.293 219.055C504.15 218.826 502.16 218.521 500.323 218.14C498.52 217.759 496.835 217.359 495.27 216.94C493.739 216.483 492.277 216.044 490.882 215.625V208.252C492.311 208.861 493.791 209.452 495.322 210.023C496.852 210.595 498.571 211.109 500.476 211.567C502.381 212.024 504.507 212.386 506.855 212.653C509.236 212.919 511.958 213.053 515.02 213.053C517.775 213.053 520.344 212.634 522.725 211.796C525.141 210.919 527.233 209.661 529.002 208.023C530.805 206.346 532.217 204.326 533.238 201.964C534.258 199.563 534.769 196.819 534.769 193.732V184.619C536.535 182.858 538.661 181.484 541.148 180.497V193.389Z" fill="#EEEEEE"/>
<path d="M544.939 341.667V339.267C546.497 338.067 547.977 336.856 549.379 335.633C550.781 334.411 552.028 333.2 553.118 332C554.231 330.778 555.099 329.589 555.722 328.433C556.346 327.256 556.657 326.133 556.657 325.067C556.657 324.311 556.524 323.611 556.257 322.967C555.989 322.322 555.567 321.8 554.988 321.4C554.409 320.978 553.619 320.767 552.618 320.767C551.66 320.767 550.859 320.978 550.214 321.4C549.591 321.822 549.112 322.389 548.778 323.1C548.467 323.789 548.311 324.556 548.311 325.4H545.072C545.095 323.8 545.44 322.444 546.107 321.333C546.775 320.222 547.676 319.378 548.812 318.8C549.969 318.222 551.26 317.933 552.684 317.933C554.176 317.933 555.466 318.211 556.557 318.767C557.648 319.3 558.493 320.089 559.094 321.133C559.695 322.156 559.996 323.411 559.996 324.9C559.996 325.967 559.784 327.033 559.361 328.1C558.939 329.144 558.36 330.167 557.625 331.167C556.913 332.167 556.112 333.133 555.222 334.067C554.331 334.978 553.408 335.844 552.451 336.667C551.516 337.489 550.614 338.233 549.746 338.9H560.73V341.667H544.939Z" fill="#EEEEEE"/>
<path d="M578.741 342.067C577.205 342.067 575.814 341.789 574.568 341.233C573.344 340.656 572.364 339.856 571.63 338.833C570.918 337.811 570.562 336.622 570.562 335.267C570.562 334.311 570.74 333.433 571.096 332.633C571.452 331.811 571.953 331.1 572.598 330.5C573.244 329.9 574 329.467 574.868 329.2C573.711 328.733 572.798 328.044 572.131 327.133C571.463 326.222 571.129 325.222 571.129 324.133C571.129 323 571.43 321.967 572.031 321.033C572.632 320.1 573.5 319.356 574.635 318.8C575.77 318.222 577.139 317.933 578.741 317.933C580.344 317.933 581.712 318.222 582.848 318.8C583.983 319.356 584.84 320.1 585.418 321.033C586.019 321.967 586.32 323 586.32 324.133C586.32 325.222 585.986 326.233 585.318 327.167C584.673 328.078 583.771 328.756 582.614 329.2C583.482 329.467 584.239 329.9 584.884 330.5C585.53 331.1 586.03 331.811 586.386 332.633C586.743 333.433 586.921 334.311 586.921 335.267C586.921 336.622 586.553 337.811 585.819 338.833C585.107 339.856 584.127 340.656 582.881 341.233C581.657 341.789 580.277 342.067 578.741 342.067ZM578.741 339.2C580.366 339.2 581.579 338.822 582.38 338.067C583.204 337.289 583.615 336.278 583.615 335.033C583.615 333.633 583.17 332.567 582.28 331.833C581.412 331.1 580.232 330.733 578.741 330.733C577.25 330.733 576.059 331.1 575.169 331.833C574.301 332.567 573.867 333.633 573.867 335.033C573.867 336.278 574.267 337.289 575.069 338.067C575.892 338.822 577.116 339.2 578.741 339.2ZM578.741 328.1C580.054 328.1 581.089 327.756 581.846 327.067C582.625 326.378 583.015 325.5 583.015 324.433C583.015 323.211 582.636 322.289 581.879 321.667C581.123 321.044 580.077 320.733 578.741 320.733C577.428 320.733 576.393 321.044 575.636 321.667C574.88 322.289 574.501 323.211 574.501 324.433C574.501 325.5 574.88 326.378 575.636 327.067C576.393 327.756 577.428 328.1 578.741 328.1Z" fill="#EEEEEE"/>
<path d="M669.496 294.167V105.833C669.496 48.7639 623.159 2.5 566 2.5C508.841 2.5 462.504 48.7639 462.504 105.833V294.167C462.504 351.236 508.841 397.5 566 397.5V400C507.458 400 460 352.617 460 294.167V105.833C460 47.3832 507.458 0 566 0C624.542 0 672 47.3832 672 105.833V294.167L671.991 295.535C671.257 353.354 624.085 400 566 400V397.5C623.159 397.5 669.496 351.236 669.496 294.167Z" fill="#EEEEEE"/>
<path d="M780.121 169.556V169.46H788.377C792.825 169.46 795.865 172.564 795.865 176.5C795.865 180.756 792.249 183.636 787.641 183.636H783.097V188.212C783.097 189.908 783.449 191.508 783.673 192.404V192.5H780.121V192.404C780.313 191.508 780.665 189.908 780.665 188.212V173.748C780.665 172.052 780.313 170.452 780.121 169.556ZM787.481 182.484C790.841 182.484 793.241 180.02 793.241 176.5C793.241 173.172 791.097 170.612 787.737 170.612H783.097V182.484H787.481ZM801.194 192.404V192.5H797.77V192.404C797.994 191.508 798.346 189.908 798.346 188.212V173.46C798.346 171.764 798.026 170.228 797.674 169.364L797.642 169.268L798.186 169.172L800.618 168.756V188.212C800.618 189.908 800.97 191.508 801.194 192.404ZM810.481 192.724C806.481 192.724 803.281 189.556 803.281 184.596C803.281 179.732 806.353 176.532 810.385 176.532C814.225 176.532 816.881 179.476 816.881 184.02H805.777V184.212C805.777 188.148 807.825 191.06 811.377 191.06C813.201 191.06 814.993 190.292 816.849 188.372L816.945 188.436C815.761 191.06 813.361 192.724 810.481 192.724ZM810.353 177.492C807.601 177.492 806.065 179.924 805.809 183.156L814.417 182.9C814.257 179.572 812.849 177.492 810.353 177.492ZM824.023 192.724C820.791 192.724 818.935 190.548 818.935 188.084C818.935 184.372 823.255 182.292 828.279 183.252C828.535 183.316 828.759 183.348 828.951 183.412V181.268C828.951 178.74 827.415 177.556 825.591 177.556C823.511 177.556 821.015 179.636 819.927 181.108H819.831V177.876C821.847 176.98 823.959 176.532 825.687 176.532C828.983 176.532 831.223 178.164 831.223 181.236V189.844C831.223 191.284 832.119 191.668 833.271 191.348L833.303 191.444C832.823 192.18 832.055 192.564 831.255 192.564C829.911 192.564 829.047 191.732 828.951 190.356C827.991 191.572 826.359 192.724 824.023 192.724ZM821.367 187.956C821.367 190.004 823.063 191.412 825.015 191.412C826.455 191.412 827.895 190.58 828.951 189.204V184.308L828.759 184.276C824.055 183.316 821.367 185.428 821.367 187.956ZM840.13 192.724C838.37 192.724 836.45 192.18 834.402 191.092V187.956H834.498C835.938 189.716 837.858 191.7 840.258 191.7C841.922 191.7 843.682 190.772 843.682 188.788C843.682 186.932 842.146 186.292 839.522 185.396C836.45 184.372 834.338 183.476 834.338 180.916C834.338 178.132 836.802 176.532 839.874 176.532C841.538 176.532 843.458 177.044 845.154 177.908V180.82H845.026C843.554 178.932 841.858 177.524 839.746 177.524C837.986 177.524 836.354 178.484 836.354 180.148C836.354 181.94 838.05 182.388 840.706 183.252C843.81 184.276 845.57 185.46 845.57 188.052C845.57 191.156 843.106 192.724 840.13 192.724ZM854.521 192.724C850.521 192.724 847.321 189.556 847.321 184.596C847.321 179.732 850.393 176.532 854.425 176.532C858.265 176.532 860.921 179.476 860.921 184.02H849.817V184.212C849.817 188.148 851.865 191.06 855.417 191.06C857.241 191.06 859.033 190.292 860.889 188.372L860.985 188.436C859.801 191.06 857.401 192.724 854.521 192.724ZM854.393 177.492C851.641 177.492 850.105 179.924 849.849 183.156L858.457 182.9C858.297 179.572 856.889 177.492 854.393 177.492ZM876.139 192.724C874.379 192.724 872.459 192.18 870.411 191.092V187.956H870.507C871.947 189.716 873.867 191.7 876.267 191.7C877.931 191.7 879.691 190.772 879.691 188.788C879.691 186.932 878.155 186.292 875.531 185.396C872.459 184.372 870.347 183.476 870.347 180.916C870.347 178.132 872.811 176.532 875.883 176.532C877.547 176.532 879.467 177.044 881.163 177.908V180.82H881.035C879.563 178.932 877.867 177.524 875.755 177.524C873.995 177.524 872.363 178.484 872.363 180.148C872.363 181.94 874.059 182.388 876.715 183.252C879.819 184.276 881.579 185.46 881.579 188.052C881.579 191.156 879.115 192.724 876.139 192.724ZM888.704 192.724C885.472 192.724 883.616 190.548 883.616 188.084C883.616 184.372 887.936 182.292 892.96 183.252C893.216 183.316 893.44 183.348 893.632 183.412V181.268C893.632 178.74 892.096 177.556 890.272 177.556C888.192 177.556 885.696 179.636 884.608 181.108H884.512V177.876C886.528 176.98 888.64 176.532 890.368 176.532C893.664 176.532 895.904 178.164 895.904 181.236V189.844C895.904 191.284 896.8 191.668 897.952 191.348L897.984 191.444C897.504 192.18 896.736 192.564 895.936 192.564C894.592 192.564 893.728 191.732 893.632 190.356C892.672 191.572 891.04 192.724 888.704 192.724ZM886.048 187.956C886.048 190.004 887.744 191.412 889.696 191.412C891.136 191.412 892.576 190.58 893.632 189.204V184.308L893.44 184.276C888.736 183.316 886.048 185.428 886.048 187.956ZM899.614 180.66C898.942 179.092 898.238 177.748 897.342 176.82V176.724H901.758V176.82C901.438 177.716 901.47 179.124 902.078 180.66L906.046 190.42L909.822 180.692C910.43 179.156 910.366 177.716 909.982 176.82V176.724H912.798V176.82C912.446 177.364 911.902 178.324 911.422 179.508L906.398 192.5H904.446L899.614 180.66ZM920.359 192.724C916.359 192.724 913.159 189.556 913.159 184.596C913.159 179.732 916.231 176.532 920.263 176.532C924.103 176.532 926.759 179.476 926.759 184.02H915.655V184.212C915.655 188.148 917.703 191.06 921.255 191.06C923.079 191.06 924.871 190.292 926.727 188.372L926.823 188.436C925.639 191.06 923.239 192.724 920.359 192.724ZM920.231 177.492C917.479 177.492 915.943 179.924 915.687 183.156L924.295 182.9C924.135 179.572 922.727 177.492 920.231 177.492ZM941.272 192.724C938.936 192.724 937.72 190.996 937.72 188.596V177.78H935.384V177.076C937.976 176.5 938.936 174.676 939.544 172.532H939.992V176.724H944.504V177.78H939.992V188.276C939.992 190.132 940.856 191.092 942.424 191.092C943.16 191.092 944.344 190.9 945.56 190.004C944.728 191.636 943.128 192.724 941.272 192.724ZM950.385 192.404V192.5H946.993V192.404C947.217 191.508 947.569 189.908 947.569 188.212V173.46C947.569 171.764 947.249 170.228 946.865 169.364L946.833 169.268L947.409 169.172L949.809 168.756V179.348C951.441 177.332 953.169 176.532 955.025 176.532C957.553 176.532 960.209 177.908 960.209 182.004V188.212C960.209 189.908 960.561 191.508 960.785 192.404V192.5H957.393V192.404C957.617 191.508 957.969 189.908 957.969 188.212V182.228C957.969 179.38 956.177 178.132 954.225 178.132C952.689 178.132 951.217 178.9 949.809 180.34V188.212C949.809 189.908 950.161 191.508 950.385 192.404ZM970.11 192.724C966.11 192.724 962.91 189.556 962.91 184.596C962.91 179.732 965.982 176.532 970.014 176.532C973.854 176.532 976.51 179.476 976.51 184.02H965.406V184.212C965.406 188.148 967.454 191.06 971.006 191.06C972.83 191.06 974.622 190.292 976.478 188.372L976.574 188.436C975.39 191.06 972.99 192.724 970.11 192.724ZM969.982 177.492C967.23 177.492 965.694 179.924 965.438 183.156L974.046 182.9C973.886 179.572 972.478 177.492 969.982 177.492ZM997.551 192.5C997.391 191.668 997.135 191.028 997.007 189.94C995.695 191.86 993.935 192.724 991.983 192.724C988.431 192.724 985.679 189.844 985.679 184.852C985.679 179.316 988.975 176.532 992.495 176.532C994.255 176.532 995.791 177.268 996.911 178.676V173.46C996.911 171.764 996.527 170.228 996.143 169.364L996.111 169.268L996.783 169.172L999.215 168.756V188.212C999.215 189.908 999.567 191.508 999.759 192.404V192.5H997.551ZM988.175 184.628C988.175 188.244 989.647 191.38 992.687 191.38C994.447 191.38 995.823 190.324 996.911 188.82C996.911 188.692 996.911 188.5 996.911 188.34V179.86C996.015 178.74 994.703 177.844 993.039 177.844C990.127 177.844 988.175 180.5 988.175 184.628ZM1006.7 192.724C1003.47 192.724 1001.61 190.548 1001.61 188.084C1001.61 184.372 1005.93 182.292 1010.96 183.252C1011.21 183.316 1011.44 183.348 1011.63 183.412V181.268C1011.63 178.74 1010.09 177.556 1008.27 177.556C1006.19 177.556 1003.69 179.636 1002.6 181.108H1002.51V177.876C1004.52 176.98 1006.64 176.532 1008.36 176.532C1011.66 176.532 1013.9 178.164 1013.9 181.236V189.844C1013.9 191.284 1014.8 191.668 1015.95 191.348L1015.98 191.444C1015.5 192.18 1014.73 192.564 1013.93 192.564C1012.59 192.564 1011.72 191.732 1011.63 190.356C1010.67 191.572 1009.04 192.724 1006.7 192.724ZM1004.04 187.956C1004.04 190.004 1005.74 191.412 1007.69 191.412C1009.13 191.412 1010.57 190.58 1011.63 189.204V184.308L1011.44 184.276C1006.73 183.316 1004.04 185.428 1004.04 187.956ZM1022.01 192.724C1019.67 192.724 1018.46 190.996 1018.46 188.596V177.78H1016.12V177.076C1018.71 176.5 1019.67 174.676 1020.28 172.532H1020.73V176.724H1025.24V177.78H1020.73V188.276C1020.73 190.132 1021.59 191.092 1023.16 191.092C1023.9 191.092 1025.08 190.9 1026.3 190.004C1025.46 191.636 1023.86 192.724 1022.01 192.724ZM1033.82 192.724C1029.82 192.724 1026.62 189.556 1026.62 184.596C1026.62 179.732 1029.69 176.532 1033.73 176.532C1037.57 176.532 1040.22 179.476 1040.22 184.02H1029.12V184.212C1029.12 188.148 1031.17 191.06 1034.72 191.06C1036.54 191.06 1038.33 190.292 1040.19 188.372L1040.29 188.436C1039.1 191.06 1036.7 192.724 1033.82 192.724ZM1033.69 177.492C1030.94 177.492 1029.41 179.924 1029.15 183.156L1037.76 182.9C1037.6 179.572 1036.19 177.492 1033.69 177.492ZM1048.34 177.78V176.724H1050.96V175.22C1050.96 170.356 1052.94 168.82 1055.44 168.82C1056.62 168.82 1057.97 169.14 1059.31 169.748V172.212H1059.18C1057.78 170.644 1056.56 169.78 1055.47 169.78C1053.81 169.78 1053.2 171.476 1053.2 174.932V176.724H1058.45V177.78H1053.2V188.212C1053.2 189.908 1053.55 191.508 1053.78 192.404V192.5H1050.38V192.404C1050.61 191.508 1050.96 189.908 1050.96 188.212V177.78H1048.34ZM1066.06 192.724C1061.86 192.724 1058.57 189.524 1058.57 184.564C1058.57 179.636 1061.86 176.532 1066.06 176.532C1070.22 176.532 1073.61 179.636 1073.61 184.564C1073.61 189.524 1070.22 192.724 1066.06 192.724ZM1066.06 191.7C1069.1 191.7 1071.05 188.596 1071.05 184.564C1071.05 180.596 1069.1 177.492 1066.06 177.492C1063.02 177.492 1061.1 180.596 1061.1 184.564C1061.1 188.532 1062.98 191.7 1066.06 191.7ZM1078.93 192.404V192.5H1075.54V192.404C1075.77 191.508 1076.12 189.908 1076.12 188.212V181.012C1076.12 179.284 1075.77 177.716 1075.54 176.82V176.724H1078.36V179.188C1079.64 177.076 1082.13 175.924 1084.63 176.692L1084.31 179.38H1084.21C1082.65 178.164 1080.18 177.844 1078.36 180.02V188.212C1078.36 189.908 1078.71 191.508 1078.93 192.404ZM811.483 230.404C812.155 229.22 813.307 226.724 814.299 223.908L818.811 211.364C819.419 209.7 818.523 207.844 818.427 207.556V207.46H824.123L830.843 225.316C831.675 227.524 832.443 229.124 833.307 230.404V230.5H825.755V230.372C825.851 229.892 826.491 227.492 825.659 225.284L824.699 222.692H816.315L815.739 224.292C814.811 226.916 815.931 229.796 816.059 230.34V230.5H811.483V230.404ZM816.827 221.252H824.155L820.411 211.236L816.827 221.252ZM839.227 230.788C836.411 230.788 833.979 229.06 833.979 225.38V219.396C833.979 217.252 833.243 214.948 833.147 214.5V214.404H838.491V224.772C838.491 227.044 839.771 227.876 841.275 227.876C842.299 227.876 843.323 227.492 844.283 226.852C844.251 226.532 844.219 226.18 844.219 225.86V219.396C844.219 217.252 843.483 214.948 843.419 214.5V214.404H848.731V225.508C848.731 227.652 849.467 229.956 849.563 230.372V230.5H845.243C844.987 229.892 844.603 228.836 844.411 227.684C843.227 229.508 841.627 230.788 839.227 230.788ZM857.929 225.572C857.065 225.572 856.137 225.444 855.241 225.156C854.505 225.38 853.897 225.828 853.897 226.436C853.897 227.268 854.889 227.364 856.073 227.364H861.289C864.521 227.364 866.409 229.06 866.409 231.908C866.409 236.068 861.769 236.9 858.185 236.9C855.881 236.9 850.985 236.452 850.985 233.252C850.985 232.292 851.401 231.396 852.169 230.724C851.369 230.02 851.113 229.092 851.113 228.26C851.113 226.372 852.297 225.22 854.185 224.708C852.393 223.812 851.017 222.212 851.017 219.876C851.017 216.036 854.761 214.212 857.929 214.212C859.177 214.212 860.489 214.468 861.673 215.044C862.505 213.124 864.137 211.812 866.697 212.196L866.025 215.684L865.961 215.748C864.969 215.204 863.721 214.948 862.345 215.396C863.849 216.324 864.937 217.796 864.937 219.876C864.937 223.716 861.097 225.572 857.929 225.572ZM857.929 224.388C859.625 224.388 860.489 222.276 860.489 219.876C860.489 217.476 859.625 215.428 857.929 215.428C856.265 215.428 855.433 217.476 855.433 219.876C855.433 222.276 856.265 224.388 857.929 224.388ZM853.513 231.78C853.449 233.86 854.857 235.588 858.569 235.588C861.065 235.588 863.561 234.756 863.561 233.284C863.561 232.388 862.889 231.748 861.161 231.748H855.785C854.857 231.748 854.121 231.62 853.513 231.428C853.513 231.524 853.513 231.652 853.513 231.78ZM873.431 230.788C870.615 230.788 868.183 229.06 868.183 225.38V219.396C868.183 217.252 867.447 214.948 867.351 214.5V214.404H872.695V224.772C872.695 227.044 873.975 227.876 875.479 227.876C876.503 227.876 877.527 227.492 878.487 226.852C878.455 226.532 878.423 226.18 878.423 225.86V219.396C878.423 217.252 877.687 214.948 877.623 214.5V214.404H882.935V225.508C882.935 227.652 883.671 229.956 883.767 230.372V230.5H879.447C879.191 229.892 878.807 228.836 878.615 227.684C877.431 229.508 875.831 230.788 873.431 230.788ZM892.037 230.788C890.533 230.788 888.325 230.436 885.733 229.412V225.028H885.861C887.717 226.948 889.925 229.444 892.325 229.444C893.573 229.444 894.821 228.772 894.821 227.396C894.821 225.86 893.253 225.316 890.629 224.388C887.301 223.204 885.349 221.636 885.349 219.044C885.349 216.004 888.037 214.212 891.973 214.212C893.413 214.212 895.557 214.5 897.733 215.396V219.62H897.573C895.813 217.572 893.765 215.492 891.525 215.492C890.309 215.492 889.125 216.1 889.125 217.348C889.125 218.852 890.853 219.396 893.381 220.26C897.125 221.54 898.405 223.236 898.405 225.54C898.405 229.22 895.301 230.788 892.037 230.788ZM905.945 230.82C903.257 230.82 901.689 228.964 901.689 225.796V215.78H899.353V214.532C902.553 213.188 904.441 211.268 906.009 209.06H906.201V214.404H910.553V215.78H906.201V225.348C906.201 227.044 907.097 227.812 908.409 227.812C909.081 227.812 909.977 227.62 910.905 227.108C910.137 229.028 908.601 230.82 905.945 230.82ZM928.233 230.724C922.857 230.724 918.697 225.988 918.697 218.916C918.697 211.972 922.857 207.236 928.233 207.236C933.577 207.236 937.769 211.972 937.769 218.916C937.769 225.988 933.577 230.724 928.233 230.724ZM928.233 229.316C931.529 229.316 932.361 223.62 932.361 218.852C932.361 214.18 931.497 208.644 928.233 208.644C924.905 208.644 924.105 214.372 924.105 218.948C924.105 223.748 924.937 229.316 928.233 229.316ZM948.851 230.724C943.475 230.724 939.315 225.988 939.315 218.916C939.315 211.972 943.475 207.236 948.851 207.236C954.195 207.236 958.387 211.972 958.387 218.916C958.387 225.988 954.195 230.724 948.851 230.724ZM948.851 229.316C952.147 229.316 952.979 223.62 952.979 218.852C952.979 214.18 952.115 208.644 948.851 208.644C945.523 208.644 944.723 214.372 944.723 218.948C944.723 223.748 945.555 229.316 948.851 229.316ZM959.83 234.468C961.814 233.412 962.422 231.684 962.422 230.788C962.358 230.692 962.39 230.82 962.39 230.82C960.63 230.916 959.382 229.7 959.414 228.132C959.414 226.66 960.694 225.508 962.166 225.508C963.862 225.508 965.174 226.916 965.174 229.028C965.174 231.268 963.606 233.668 960.95 234.468H959.83ZM972.037 230.468C978.181 222.244 982.885 216.356 982.885 211.748C982.885 210.308 982.181 208.516 980.197 208.516C977.701 208.516 975.525 211.684 974.021 214.372H973.861L972.805 208.964C974.917 208.1 977.477 207.14 980.293 207.14C984.421 207.14 987.845 209.092 987.845 212.772C987.845 215.972 985.253 218.884 982.309 221.348C980.293 223.332 977.285 225.924 976.261 226.788H981.413C983.941 226.788 986.053 226.212 987.781 224.804L987.877 224.868L987.013 230.468H972.037ZM998.79 230.724C993.414 230.724 989.254 225.988 989.254 218.916C989.254 211.972 993.414 207.236 998.79 207.236C1004.13 207.236 1008.33 211.972 1008.33 218.916C1008.33 225.988 1004.13 230.724 998.79 230.724ZM998.79 229.316C1002.09 229.316 1002.92 223.62 1002.92 218.852C1002.92 214.18 1002.05 208.644 998.79 208.644C995.462 208.644 994.662 214.372 994.662 218.948C994.662 223.748 995.494 229.316 998.79 229.316ZM1009.02 230.468C1015.17 222.244 1019.87 216.356 1019.87 211.748C1019.87 210.308 1019.17 208.516 1017.18 208.516C1014.69 208.516 1012.51 211.684 1011.01 214.372H1010.85L1009.79 208.964C1011.9 208.1 1014.46 207.14 1017.28 207.14C1021.41 207.14 1024.83 209.092 1024.83 212.772C1024.83 215.972 1022.24 218.884 1019.29 221.348C1017.28 223.332 1014.27 225.924 1013.25 226.788H1018.4C1020.93 226.788 1023.04 226.212 1024.77 224.804L1024.86 224.868L1024 230.468H1009.02ZM1035.32 230.884C1031.06 230.884 1026.49 228.804 1026.49 225.028C1026.49 222.18 1029.08 220.356 1031.54 219.748C1028.82 218.372 1026.94 216.388 1026.94 213.668C1026.94 210.148 1030.14 207.172 1035.29 207.172C1039.29 207.172 1043.1 208.964 1043.1 212.484C1043.1 215.172 1040.92 216.868 1038.71 217.572C1042.74 219.524 1044.12 221.636 1044.12 224.132C1044.12 228.548 1039.77 230.884 1035.32 230.884ZM1031.22 211.94C1031.19 214.468 1033.85 215.556 1037.21 216.9C1038.39 216.068 1039.35 214.788 1039.35 213.028C1039.35 210.564 1037.88 208.516 1035.19 208.516C1033.05 208.516 1031.22 209.796 1031.22 211.94ZM1030.46 224.612C1030.46 227.108 1032.22 229.54 1035.19 229.54C1037.75 229.54 1039.51 227.908 1039.51 225.796C1039.51 223.492 1036.89 221.924 1033.43 220.58C1033.27 220.516 1033.11 220.452 1032.95 220.388C1031.35 221.444 1030.46 222.98 1030.46 224.612ZM1048.53 230.788C1047.02 230.788 1045.81 229.572 1045.81 228.068C1045.81 226.564 1047.02 225.348 1048.53 225.348C1050.03 225.348 1051.28 226.564 1051.28 228.068C1051.28 229.572 1050.03 230.788 1048.53 230.788Z" fill="white"/>
</svg>
