<svg width="400" height="600" viewBox="0 0 400 600" fill="none" xmlns="http://www.w3.org/2000/svg">
<path d="M36.8419 23.648V23.744H33.3219V23.648C33.5139 22.752 33.8659 21.152 33.8659 19.456V4.99202C33.8659 3.29602 33.5139 1.69602 33.3219 0.800018V0.704018H36.8419V0.800018C36.6179 1.69602 36.2659 3.29602 36.2659 4.99202V19.456C36.2659 21.152 36.6179 22.752 36.8419 23.648ZM45.0101 23.968C42.6741 23.968 41.4581 22.24 41.4581 19.84V9.02402H39.1221V8.32002C41.7141 7.74402 42.6741 5.92002 43.2821 3.77602H43.7301V7.96802H48.2421V9.02402H43.7301V19.52C43.7301 21.376 44.5941 22.336 46.1621 22.336C46.8981 22.336 48.0821 22.144 49.2981 21.248C48.4661 22.88 46.8661 23.968 45.0101 23.968ZM49.6951 6.97602C51.3271 6.04802 51.8391 4.35202 51.8391 3.84002C51.6791 3.84002 51.5511 3.87202 51.5511 3.87202C50.4631 3.90402 49.6311 3.10402 49.6311 2.08002C49.6311 1.08802 50.4951 0.352018 51.4871 0.352018C52.6391 0.352018 53.5991 1.34402 53.5991 2.78402C53.5991 4.51202 52.1591 6.20802 50.3671 6.97602H49.6951ZM60.2929 23.968C58.5329 23.968 56.6129 23.424 54.5649 22.336V19.2H54.6609C56.1009 20.96 58.0209 22.944 60.4209 22.944C62.0849 22.944 63.8449 22.016 63.8449 20.032C63.8449 18.176 62.3089 17.536 59.6849 16.64C56.6129 15.616 54.5009 14.72 54.5009 12.16C54.5009 9.37602 56.9649 7.77602 60.0369 7.77602C61.7009 7.77602 63.6209 8.28802 65.3169 9.15202V12.064H65.1889C63.7169 10.176 62.0209 8.76802 59.9089 8.76802C58.1489 8.76802 56.5169 9.72802 56.5169 11.392C56.5169 13.184 58.2129 13.632 60.8689 14.496C63.9729 15.52 65.7329 16.704 65.7329 19.296C65.7329 22.4 63.2689 23.968 60.2929 23.968ZM73.8301 9.02402V7.96802H76.4541V6.17602C76.4541 1.50402 78.5341 0.0640182 81.0621 0.0640182C82.2461 0.0640182 83.5901 0.384018 85.0621 0.992018V3.42402H84.9021C83.5261 1.82402 82.4381 0.992018 81.3821 0.992018C79.9101 0.992018 78.6941 2.46402 78.6941 5.98402V7.96802H86.2461V19.456C86.2461 21.152 86.5981 22.752 86.7901 23.648V23.744H83.3981V23.648C83.5901 22.752 83.9421 21.152 83.9421 19.456L83.9741 12.256C83.9741 11.04 83.8141 9.92002 83.6221 9.02402H78.6941V19.456C78.6941 21.152 79.0461 22.752 79.2701 23.648V23.744H75.8781V23.648C76.1021 22.752 76.4541 21.152 76.4541 19.456V9.02402H73.8301ZM92.9359 23.648V23.744H89.5439V23.648C89.7679 22.752 90.1199 21.152 90.1199 19.456V12.256C90.1199 10.528 89.7679 8.96002 89.5439 8.06402V7.96802H92.3599V10.624C93.9599 8.60802 95.7199 7.77602 97.5759 7.77602C100.104 7.77602 102.76 9.15202 102.76 13.248V19.456C102.76 21.152 103.112 22.752 103.336 23.648V23.744H99.9439V23.648C100.168 22.752 100.52 21.152 100.52 19.456V13.472C100.52 10.624 98.7599 9.37602 96.8079 9.37602C95.2719 9.34402 93.7999 10.144 92.3599 11.616V19.456C92.3599 21.152 92.7119 22.752 92.9359 23.648ZM110.43 23.968C107.198 23.968 105.342 21.792 105.342 19.328C105.342 15.616 109.662 13.536 114.686 14.496C114.942 14.56 115.166 14.592 115.358 14.656V12.512C115.358 9.98402 113.822 8.80002 111.998 8.80002C109.918 8.80002 107.422 10.88 106.334 12.352H106.238V9.12002C108.254 8.22402 110.366 7.77602 112.094 7.77602C115.39 7.77602 117.63 9.40802 117.63 12.48V21.088C117.63 22.528 118.526 22.912 119.678 22.592L119.71 22.688C119.23 23.424 118.462 23.808 117.662 23.808C116.318 23.808 115.454 22.976 115.358 21.6C114.398 22.816 112.766 23.968 110.43 23.968ZM107.774 19.2C107.774 21.248 109.47 22.656 111.422 22.656C112.862 22.656 114.302 21.824 115.358 20.448V15.552L115.166 15.52C110.462 14.56 107.774 16.672 107.774 19.2ZM124.735 23.648V23.744H121.311V23.648C121.535 22.752 121.887 21.152 121.887 19.456V4.70402C121.887 3.00802 121.567 1.47202 121.215 0.608017L121.183 0.512018L121.727 0.416018L124.159 1.71661e-05V19.456C124.159 21.152 124.511 22.752 124.735 23.648ZM130.79 23.648V23.744H127.366V23.648C127.59 22.752 127.942 21.152 127.942 19.456V4.70402C127.942 3.00802 127.622 1.47202 127.27 0.608017L127.238 0.512018L127.782 0.416018L130.214 1.71661e-05V19.456C130.214 21.152 130.566 22.752 130.79 23.648ZM133.23 29.504L133.742 27.072L133.806 27.04C135.342 28.416 137.838 29.152 138.926 26.4L139.822 24.064L134.638 11.872C133.966 10.304 133.262 8.99202 132.366 8.06402V7.96802H136.846V8.06402C136.462 8.96002 136.462 10.368 137.134 11.872L141.006 21.056L144.558 11.936C145.166 10.4 145.102 8.96002 144.75 8.06402V7.96802H147.534V8.06402C147.15 8.60802 146.638 9.56802 146.158 10.752L139.886 26.752C138.542 30.24 136.014 30.752 133.23 29.504ZM161.334 23.968C158.998 23.968 157.782 22.24 157.782 19.84V9.02402H155.446V8.32002C158.038 7.74402 158.998 5.92002 159.606 3.77602H160.054V7.96802H164.566V9.02402H160.054V19.52C160.054 21.376 160.918 22.336 162.486 22.336C163.222 22.336 164.406 22.144 165.622 21.248C164.79 22.88 163.19 23.968 161.334 23.968ZM169.068 3.71202C168.108 3.71202 167.276 2.94402 167.276 1.98402C167.276 1.02402 168.076 0.256018 169.068 0.256018C170.028 0.256018 170.828 1.02402 170.828 1.98402C170.828 2.94402 170.028 3.71202 169.068 3.71202ZM170.828 23.648V23.744H167.468V23.648C167.66 22.752 168.012 21.152 168.012 19.456L168.044 12.256C168.044 10.528 167.692 8.96002 167.468 8.06402V7.96802H170.252V19.456C170.252 21.152 170.604 22.752 170.828 23.648ZM177.031 23.648V23.744H173.671V23.648C173.895 22.752 174.247 21.152 174.247 19.456V12.256C174.247 10.528 173.895 8.96002 173.671 8.06402V7.96802H176.487V10.048C177.895 8.41602 179.239 7.77602 180.839 7.77602C182.535 7.77602 184.391 8.51202 185.223 10.592C186.823 8.57602 188.295 7.77602 190.023 7.77602C192.327 7.77602 194.919 9.15202 194.919 13.248V19.456C194.919 21.152 195.271 22.752 195.463 23.648V23.744H192.103V23.648C192.327 22.752 192.679 21.152 192.679 19.456V13.472C192.679 10.624 190.919 9.37602 189.159 9.37602C187.911 9.37602 186.791 10.08 185.479 11.36C185.639 11.904 185.703 12.544 185.703 13.248V19.456C185.703 21.152 186.055 22.752 186.279 23.648V23.744H182.887V23.648C183.111 22.752 183.463 21.152 183.463 19.456V13.472C183.463 10.624 181.703 9.37602 179.943 9.37602C178.759 9.37602 177.639 9.98402 176.487 11.104V19.456C176.487 21.152 176.839 22.752 177.031 23.648ZM204.602 23.968C200.602 23.968 197.402 20.8 197.402 15.84C197.402 10.976 200.474 7.77602 204.506 7.77602C208.346 7.77602 211.002 10.72 211.002 15.264H199.898V15.456C199.898 19.392 201.946 22.304 205.498 22.304C207.322 22.304 209.114 21.536 210.97 19.616L211.066 19.68C209.882 22.304 207.482 23.968 204.602 23.968ZM204.474 8.73602C201.722 8.73602 200.186 11.168 199.93 14.4L208.538 14.144C208.378 10.816 206.97 8.73602 204.474 8.73602ZM215.68 11.52C214.656 11.52 213.792 10.688 213.792 9.66402C213.792 8.64002 214.656 7.80802 215.68 7.80802C216.704 7.80802 217.568 8.64002 217.568 9.66402C217.568 10.688 216.704 11.52 215.68 11.52ZM215.68 23.968C214.656 23.968 213.792 23.136 213.792 22.112C213.792 21.088 214.656 20.256 215.68 20.256C216.704 20.256 217.568 21.088 217.568 22.112C217.568 23.136 216.704 23.968 215.68 23.968ZM237.431 23.744L229.815 3.87202C229.783 4.22402 229.783 4.64002 229.783 5.02402V17.984C229.783 20.32 230.455 22.464 230.839 23.616V23.776H227.543V23.616C227.927 22.464 228.599 20.32 228.599 17.984V5.02402C228.599 3.32802 228.087 1.72802 227.767 0.832018V0.736017H231.095L238.935 21.248L246.999 0.704018H249.911V0.800018C249.719 1.69602 249.367 3.29602 249.367 4.99202V19.456C249.367 21.152 249.719 22.752 249.911 23.648V23.744H246.455V23.648C246.647 22.752 246.999 21.152 246.999 19.456V3.84002L239.223 23.744H237.431ZM259.259 23.968C255.259 23.968 252.059 20.8 252.059 15.84C252.059 10.976 255.131 7.77602 259.163 7.77602C263.003 7.77602 265.659 10.72 265.659 15.264H254.555V15.456C254.555 19.392 256.603 22.304 260.155 22.304C261.979 22.304 263.771 21.536 265.627 19.616L265.723 19.68C264.539 22.304 262.139 23.968 259.259 23.968ZM259.131 8.73602C256.379 8.73602 254.843 11.168 254.587 14.4L263.195 14.144C263.035 10.816 261.627 8.73602 259.131 8.73602ZM273.889 18.944C272.865 18.944 271.873 18.72 270.945 18.304C270.113 18.528 269.473 19.136 269.473 19.936C269.473 21.216 270.945 21.408 272.129 21.408H277.313C279.905 21.408 281.793 22.848 281.793 25.472C281.793 29.6 276.833 30.144 274.305 30.144C271.521 30.144 267.489 29.376 267.489 26.272C267.489 25.024 268.129 23.904 269.217 23.168C268.257 22.688 267.873 21.856 267.873 20.864C267.873 19.232 268.865 18.272 270.177 17.856C268.737 16.896 267.745 15.36 267.745 13.344C267.745 9.88802 270.753 7.77602 273.889 7.77602C275.137 7.77602 276.385 8.09602 277.441 8.70402C278.369 7.23202 279.937 6.68802 281.697 6.94402L281.281 8.99202L281.217 9.05602C280.193 8.48002 279.041 8.41602 277.825 8.99202C279.201 9.95202 280.129 11.424 280.129 13.344C280.129 16.832 277.025 18.944 273.889 18.944ZM273.889 17.984C276.065 17.984 277.729 16.32 277.729 13.344C277.729 10.368 276.065 8.70402 273.889 8.70402C271.745 8.70402 270.113 10.368 270.113 13.344C270.113 16.32 271.745 17.984 273.889 17.984ZM269.281 25.632C269.281 27.808 271.297 29.152 274.625 29.152C278.177 29.152 279.873 27.616 279.873 25.984C279.873 24.8 279.105 23.68 277.313 23.68H271.841C271.137 23.68 270.561 23.616 270.049 23.488C269.505 24.096 269.281 24.896 269.281 25.632ZM287.794 23.968C284.562 23.968 282.706 21.792 282.706 19.328C282.706 15.616 287.026 13.536 292.05 14.496C292.306 14.56 292.53 14.592 292.722 14.656V12.512C292.722 9.98402 291.186 8.80002 289.362 8.80002C287.282 8.80002 284.786 10.88 283.698 12.352H283.602V9.12002C285.618 8.22402 287.73 7.77602 289.458 7.77602C292.754 7.77602 294.994 9.40802 294.994 12.48V21.088C294.994 22.528 295.89 22.912 297.042 22.592L297.074 22.688C296.594 23.424 295.826 23.808 295.026 23.808C293.682 23.808 292.818 22.976 292.722 21.6C291.762 22.816 290.13 23.968 287.794 23.968ZM285.138 19.2C285.138 21.248 286.834 22.656 288.786 22.656C290.226 22.656 291.666 21.824 292.722 20.448V15.552L292.53 15.52C287.826 14.56 285.138 16.672 285.138 19.2ZM302.035 23.648V23.744H298.643V23.648C298.867 22.752 299.219 21.152 299.219 19.456V12.256C299.219 10.528 298.867 8.96002 298.643 8.06402V7.96802H301.459V10.624C303.059 8.60802 304.819 7.77602 306.675 7.77602C309.203 7.77602 311.859 9.15202 311.859 13.248V19.456C311.859 21.152 312.211 22.752 312.435 23.648V23.744H309.043V23.648C309.267 22.752 309.619 21.152 309.619 19.456V13.472C309.619 10.624 307.859 9.37602 305.907 9.37602C304.371 9.34402 302.899 10.144 301.459 11.616V19.456C301.459 21.152 301.811 22.752 302.035 23.648ZM326.865 23.968C323.633 23.968 321.777 21.792 321.777 19.328C321.777 15.616 326.097 13.536 331.121 14.496C331.377 14.56 331.601 14.592 331.793 14.656V12.512C331.793 9.98402 330.257 8.80002 328.433 8.80002C326.353 8.80002 323.857 10.88 322.769 12.352H322.673V9.12002C324.689 8.22402 326.801 7.77602 328.529 7.77602C331.825 7.77602 334.065 9.40802 334.065 12.48V21.088C334.065 22.528 334.961 22.912 336.113 22.592L336.145 22.688C335.665 23.424 334.897 23.808 334.097 23.808C332.753 23.808 331.889 22.976 331.793 21.6C330.833 22.816 329.201 23.968 326.865 23.968ZM324.209 19.2C324.209 21.248 325.905 22.656 327.857 22.656C329.297 22.656 330.737 21.824 331.793 20.448V15.552L331.601 15.52C326.897 14.56 324.209 16.672 324.209 19.2ZM341.106 23.648V23.744H337.714V23.648C337.938 22.752 338.29 21.152 338.29 19.456V12.256C338.29 10.528 337.938 8.96002 337.714 8.06402V7.96802H340.53V10.624C342.13 8.60802 343.89 7.77602 345.746 7.77602C348.274 7.77602 350.93 9.15202 350.93 13.248V19.456C350.93 21.152 351.282 22.752 351.506 23.648V23.744H348.114V23.648C348.338 22.752 348.69 21.152 348.69 19.456V13.472C348.69 10.624 346.93 9.37602 344.978 9.37602C343.442 9.34402 341.97 10.144 340.53 11.616V19.456C340.53 21.152 340.882 22.752 341.106 23.648ZM365.413 23.744C365.253 22.912 364.997 22.272 364.869 21.184C363.557 23.104 361.797 23.968 359.845 23.968C356.293 23.968 353.541 21.088 353.541 16.096C353.541 10.56 356.837 7.77602 360.357 7.77602C362.117 7.77602 363.653 8.51202 364.773 9.92002V4.70402C364.773 3.00802 364.389 1.47202 364.005 0.608017L363.973 0.512018L364.645 0.416018L367.077 1.71661e-05V19.456C367.077 21.152 367.429 22.752 367.621 23.648V23.744H365.413ZM356.037 15.872C356.037 19.488 357.509 22.624 360.549 22.624C362.309 22.624 363.685 21.568 364.773 20.064C364.773 19.936 364.773 19.744 364.773 19.584V11.104C363.877 9.98402 362.565 9.08802 360.901 9.08802C357.989 9.08802 356.037 11.744 356.037 15.872ZM54.8829 61.936C52.8029 61.936 50.8189 61.104 49.3149 60.24L49.2829 56.048H49.5069C50.5629 58.096 52.3869 60.752 54.7229 60.752C57.1549 60.752 57.6349 58.384 57.6349 56.176V42.992C57.6349 41.296 57.2829 39.696 57.0909 38.8V38.704H60.6109V38.8C60.3869 39.696 60.0349 41.296 60.0349 42.992V55.568C60.0349 60.304 57.8269 61.936 54.8829 61.936ZM70.1674 61.968C65.9754 61.968 62.6794 58.768 62.6794 53.808C62.6794 48.88 65.9754 45.776 70.1674 45.776C74.3274 45.776 77.7194 48.88 77.7194 53.808C77.7194 58.768 74.3274 61.968 70.1674 61.968ZM70.1674 60.944C73.2074 60.944 75.1594 57.84 75.1594 53.808C75.1594 49.84 73.2074 46.736 70.1674 46.736C67.1274 46.736 65.2074 49.84 65.2074 53.808C65.2074 57.776 67.0954 60.944 70.1674 60.944ZM86.7781 61.968C82.7781 61.968 79.5781 58.8 79.5781 53.84C79.5781 48.976 82.6501 45.776 86.6821 45.776C90.5221 45.776 93.1781 48.72 93.1781 53.264H82.0741V53.456C82.0741 57.392 84.1221 60.304 87.6741 60.304C89.4981 60.304 91.2901 59.536 93.1461 57.616L93.2421 57.68C92.0581 60.304 89.6581 61.968 86.7781 61.968ZM86.6501 46.736C83.8981 46.736 82.3621 49.168 82.1061 52.4L90.7141 52.144C90.5541 48.816 89.1461 46.736 86.6501 46.736ZM94.4234 67.504L94.9354 65.072L94.9994 65.04C96.5354 66.416 99.0314 67.152 100.119 64.4L101.015 62.064L95.8314 49.872C95.1594 48.304 94.4554 46.992 93.5594 46.064V45.968H98.0394V46.064C97.6554 46.96 97.6554 48.368 98.3274 49.872L102.199 59.056L105.751 49.936C106.359 48.4 106.295 46.96 105.943 46.064V45.968H108.727V46.064C108.343 46.608 107.831 47.568 107.351 48.752L101.079 64.752C99.7354 68.24 97.2074 68.752 94.4234 67.504ZM122.368 61.968C119.136 61.968 117.28 59.792 117.28 57.328C117.28 53.616 121.6 51.536 126.624 52.496C126.88 52.56 127.104 52.592 127.296 52.656V50.512C127.296 47.984 125.76 46.8 123.936 46.8C121.856 46.8 119.36 48.88 118.272 50.352H118.176V47.12C120.192 46.224 122.304 45.776 124.032 45.776C127.328 45.776 129.568 47.408 129.568 50.48V59.088C129.568 60.528 130.464 60.912 131.616 60.592L131.648 60.688C131.168 61.424 130.4 61.808 129.6 61.808C128.256 61.808 127.392 60.976 127.296 59.6C126.336 60.816 124.704 61.968 122.368 61.968ZM119.712 57.2C119.712 59.248 121.408 60.656 123.36 60.656C124.8 60.656 126.24 59.824 127.296 58.448V53.552L127.104 53.52C122.4 52.56 119.712 54.672 119.712 57.2ZM136.608 61.648V61.744H133.216V61.648C133.44 60.752 133.792 59.152 133.792 57.456V50.256C133.792 48.528 133.44 46.96 133.216 46.064V45.968H136.032V48.432C137.312 46.32 139.808 45.168 142.304 45.936L141.984 48.624H141.888C140.32 47.408 137.856 47.088 136.032 49.264V57.456C136.032 59.152 136.384 60.752 136.608 61.648ZM150.209 61.968C146.209 61.968 143.009 58.8 143.009 53.84C143.009 48.976 146.081 45.776 150.113 45.776C153.953 45.776 156.609 48.72 156.609 53.264H145.505V53.456C145.505 57.392 147.553 60.304 151.105 60.304C152.929 60.304 154.721 59.536 156.577 57.616L156.673 57.68C155.489 60.304 153.089 61.968 150.209 61.968ZM150.081 46.736C147.329 46.736 145.793 49.168 145.537 52.4L154.145 52.144C153.985 48.816 152.577 46.736 150.081 46.736ZM171.123 61.968C168.787 61.968 167.571 60.24 167.571 57.84V47.024H165.235V46.32C167.827 45.744 168.787 43.92 169.395 41.776H169.843V45.968H174.355V47.024H169.843V57.52C169.843 59.376 170.707 60.336 172.275 60.336C173.011 60.336 174.195 60.144 175.411 59.248C174.579 60.88 172.979 61.968 171.123 61.968ZM176.277 67.504L176.789 65.072L176.853 65.04C178.389 66.416 180.885 67.152 181.973 64.4L182.869 62.064L177.685 49.872C177.013 48.304 176.309 46.992 175.413 46.064V45.968H179.893V46.064C179.509 46.96 179.509 48.368 180.181 49.872L184.053 59.056L187.605 49.936C188.213 48.4 188.149 46.96 187.797 46.064V45.968H190.581V46.064C190.197 46.608 189.685 47.568 189.205 48.752L182.933 64.752C181.589 68.24 179.061 68.752 176.277 67.504ZM194.13 41.712C193.17 41.712 192.338 40.944 192.338 39.984C192.338 39.024 193.138 38.256 194.13 38.256C195.09 38.256 195.89 39.024 195.89 39.984C195.89 40.944 195.09 41.712 194.13 41.712ZM195.89 61.648V61.744H192.53V61.648C192.722 60.752 193.074 59.152 193.074 57.456L193.106 50.256C193.106 48.528 192.754 46.96 192.53 46.064V45.968H195.314V57.456C195.314 59.152 195.666 60.752 195.89 61.648ZM202.126 61.648V61.744H198.734V61.648C198.958 60.752 199.31 59.152 199.31 57.456V50.256C199.31 48.528 198.958 46.96 198.734 46.064V45.968H201.55V48.624C203.15 46.608 204.91 45.776 206.766 45.776C209.294 45.776 211.95 47.152 211.95 51.248V57.456C211.95 59.152 212.302 60.752 212.526 61.648V61.744H209.134V61.648C209.358 60.752 209.71 59.152 209.71 57.456V51.472C209.71 48.624 207.95 47.376 205.998 47.376C204.462 47.344 202.99 48.144 201.55 49.616V57.456C201.55 59.152 201.902 60.752 202.126 61.648ZM220.833 56.944C219.809 56.944 218.817 56.72 217.889 56.304C217.057 56.528 216.417 57.136 216.417 57.936C216.417 59.216 217.889 59.408 219.073 59.408H224.257C226.849 59.408 228.737 60.848 228.737 63.472C228.737 67.6 223.777 68.144 221.249 68.144C218.465 68.144 214.433 67.376 214.433 64.272C214.433 63.024 215.073 61.904 216.161 61.168C215.201 60.688 214.817 59.856 214.817 58.864C214.817 57.232 215.809 56.272 217.121 55.856C215.681 54.896 214.689 53.36 214.689 51.344C214.689 47.888 217.697 45.776 220.833 45.776C222.081 45.776 223.329 46.096 224.385 46.704C225.313 45.232 226.881 44.688 228.641 44.944L228.225 46.992L228.161 47.056C227.137 46.48 225.985 46.416 224.769 46.992C226.145 47.952 227.073 49.424 227.073 51.344C227.073 54.832 223.969 56.944 220.833 56.944ZM220.833 55.984C223.009 55.984 224.673 54.32 224.673 51.344C224.673 48.368 223.009 46.704 220.833 46.704C218.689 46.704 217.057 48.368 217.057 51.344C217.057 54.32 218.689 55.984 220.833 55.984ZM216.225 63.632C216.225 65.808 218.241 67.152 221.569 67.152C225.121 67.152 226.817 65.616 226.817 63.984C226.817 62.8 226.049 61.68 224.257 61.68H218.785C218.081 61.68 217.505 61.616 216.993 61.488C216.449 62.096 216.225 62.896 216.225 63.632ZM242.484 61.968C240.148 61.968 238.932 60.24 238.932 57.84V47.024H236.596V46.32C239.188 45.744 240.148 43.92 240.756 41.776H241.204V45.968H245.716V47.024H241.204V57.52C241.204 59.376 242.068 60.336 243.636 60.336C244.372 60.336 245.556 60.144 246.772 59.248C245.94 60.88 244.34 61.968 242.484 61.968ZM251.597 61.648V61.744H248.205V61.648C248.429 60.752 248.781 59.152 248.781 57.456V42.704C248.781 41.008 248.461 39.472 248.077 38.608L248.045 38.512L248.621 38.416L251.021 38V48.592C252.653 46.576 254.381 45.776 256.237 45.776C258.765 45.776 261.421 47.152 261.421 51.248V57.456C261.421 59.152 261.773 60.752 261.997 61.648V61.744H258.605V61.648C258.829 60.752 259.181 59.152 259.181 57.456V51.472C259.181 48.624 257.389 47.376 255.437 47.376C253.901 47.376 252.429 48.144 251.021 49.584V57.456C251.021 59.152 251.373 60.752 251.597 61.648ZM271.322 61.968C267.322 61.968 264.122 58.8 264.122 53.84C264.122 48.976 267.194 45.776 271.226 45.776C275.066 45.776 277.722 48.72 277.722 53.264H266.618V53.456C266.618 57.392 268.666 60.304 272.218 60.304C274.042 60.304 275.834 59.536 277.69 57.616L277.786 57.68C276.602 60.304 274.202 61.968 271.322 61.968ZM271.194 46.736C268.442 46.736 266.906 49.168 266.65 52.4L275.258 52.144C275.098 48.816 273.69 46.736 271.194 46.736ZM290.827 61.648V61.744H287.435V61.648C287.627 60.752 287.979 59.152 287.979 57.456V42.704C287.979 41.008 287.691 39.472 287.307 38.608L287.275 38.512L287.851 38.416L290.283 38V57.456C290.283 59.152 290.635 60.752 290.827 61.648ZM297.803 61.744L290.891 53.104L290.859 53.072L294.379 49.936C296.043 48.496 296.651 47.248 296.107 46.096V45.968H300.395V46.096L293.131 52.368L300.683 61.648V61.744H297.803ZM305.597 61.648V61.744H302.205V61.648C302.429 60.752 302.781 59.152 302.781 57.456V50.256C302.781 48.528 302.429 46.96 302.205 46.064V45.968H305.021V48.624C306.621 46.608 308.381 45.776 310.237 45.776C312.765 45.776 315.421 47.152 315.421 51.248V57.456C315.421 59.152 315.773 60.752 315.997 61.648V61.744H312.605V61.648C312.829 60.752 313.181 59.152 313.181 57.456V51.472C313.181 48.624 311.421 47.376 309.469 47.376C307.933 47.344 306.461 48.144 305.021 49.616V57.456C305.021 59.152 305.373 60.752 305.597 61.648ZM325.392 61.968C321.2 61.968 317.904 58.768 317.904 53.808C317.904 48.88 321.2 45.776 325.392 45.776C329.552 45.776 332.944 48.88 332.944 53.808C332.944 58.768 329.552 61.968 325.392 61.968ZM325.392 60.944C328.432 60.944 330.384 57.84 330.384 53.808C330.384 49.84 328.432 46.736 325.392 46.736C322.352 46.736 320.432 49.84 320.432 53.808C320.432 57.776 322.32 60.944 325.392 60.944ZM339.869 61.968C337.533 61.968 336.317 60.24 336.317 57.84V47.024H333.981V46.32C336.573 45.744 337.533 43.92 338.141 41.776H338.589V45.968H343.101V47.024H338.589V57.52C338.589 59.376 339.453 60.336 341.021 60.336C341.757 60.336 342.941 60.144 344.157 59.248C343.325 60.88 341.725 61.968 339.869 61.968ZM347.667 54.96C347.251 49.552 346.483 44.112 346.387 38.704H349.651C349.491 44.112 348.755 49.552 348.275 54.96H347.667ZM347.987 61.968C346.963 61.968 346.099 61.136 346.099 60.112C346.099 59.088 346.963 58.256 347.987 58.256C349.011 58.256 349.875 59.088 349.875 60.112C349.875 61.136 349.011 61.968 347.987 61.968Z" fill="#EEEEEE"/>
<path d="M189.561 399.936C190.862 399.936 191.989 400.179 192.941 400.665C193.892 401.132 194.63 401.822 195.155 402.736C195.679 403.63 195.941 404.729 195.941 406.031C195.941 406.965 195.756 407.898 195.387 408.831C195.018 409.745 194.513 410.64 193.872 411.515C193.251 412.39 192.552 413.236 191.775 414.052C190.998 414.849 190.192 415.608 189.357 416.327C188.541 417.047 187.755 417.698 186.997 418.281H196.582V420.702H182.802V418.602C184.162 417.552 185.453 416.492 186.676 415.423C187.9 414.354 188.988 413.294 189.94 412.244C190.911 411.175 191.668 410.134 192.212 409.123C192.756 408.093 193.028 407.111 193.028 406.177C193.028 405.516 192.911 404.903 192.678 404.34C192.445 403.776 192.076 403.319 191.571 402.969C191.066 402.599 190.376 402.415 189.502 402.415C188.667 402.415 187.968 402.599 187.405 402.969C186.861 403.338 186.443 403.834 186.152 404.456C185.88 405.059 185.745 405.73 185.745 406.469H182.918C182.937 405.069 183.239 403.883 183.821 402.91C184.404 401.938 185.191 401.199 186.181 400.694C187.191 400.188 188.318 399.936 189.561 399.936Z" fill="#EEEEEE"/>
<path d="M217.893 402.415L210.144 420.702H207.113L214.892 402.794H204.113V400.286H217.893V402.415Z" fill="#EEEEEE"/>
<path d="M178.312 271.764C180.084 271.503 182.003 271.373 184.07 271.373C186.216 271.373 188.548 271.539 191.064 271.873C193.58 272.124 196.318 272.499 199.278 273C202.238 273.501 205.31 273.918 208.492 274.252C211.748 274.502 214.82 274.628 217.706 274.628C220.962 274.628 223.737 274.46 226.031 274.126C228.399 273.709 229.843 273.083 230.361 272.249H230.583C231.175 272.249 231.397 272.625 231.249 273.376C231.027 274.377 230.509 275.045 229.695 275.379C228.955 275.629 228.14 275.963 227.253 276.38C221.924 281.805 217.114 287.564 212.821 293.657C208.529 299.666 204.459 305.759 200.611 311.935C198.169 315.775 195.8 319.615 193.506 323.454C191.212 327.21 188.991 330.799 186.845 334.221C188.769 332.969 191.286 330.673 194.394 327.335C197.576 323.996 200.981 320.115 204.607 315.692C208.233 311.268 211.786 306.803 215.264 302.296C218.298 298.373 221.591 294.408 225.144 290.402C228.696 286.313 232.359 282.556 236.134 279.134C239.908 275.712 243.571 272.958 247.123 270.871C250.75 268.701 254.043 267.617 257.003 267.617C259.001 267.617 260.926 268.117 262.776 269.119C264.626 270.037 265.551 271.915 265.551 274.753C265.551 275.671 265.292 276.714 264.774 277.883C264.256 279.051 263.479 279.76 262.443 280.011C262.813 279.594 263.072 279.009 263.22 278.258C263.368 277.423 263.479 276.714 263.553 276.129C263.553 274.711 262.998 273.543 261.888 272.625C260.852 271.623 259.149 271.122 256.781 271.122C253.821 271.122 250.602 272.123 247.123 274.126C243.719 276.046 240.204 278.634 236.578 281.889C233.026 285.06 229.51 288.566 226.031 292.405C222.627 296.244 219.482 300 216.596 303.673C213.488 307.679 210.306 311.685 207.049 315.692C203.867 319.614 200.796 323.203 197.836 326.458C194.875 329.63 192.21 332.134 189.842 333.97C187.548 335.806 185.735 336.641 184.403 336.474C184.329 336.474 184.292 336.432 184.292 336.348C184.07 336.348 183.885 336.099 183.737 335.598C183.663 335.347 183.626 334.888 183.626 334.221C183.626 332.051 184.329 329.338 185.735 326.083C187.141 322.744 188.991 319.197 191.285 315.441C193.58 311.602 195.985 307.846 198.501 304.174C201.092 300.418 203.534 297.037 205.828 294.032C208.196 290.945 210.157 288.524 211.711 286.771C213.413 284.852 215.264 282.932 217.262 281.013C219.334 279.093 221.369 277.465 223.368 276.129H221.702C220.148 276.213 218.372 276.756 216.374 277.757C214.449 278.675 212.563 279.803 210.713 281.138C208.862 282.474 207.234 283.809 205.828 285.144C203.83 287.064 201.498 289.651 198.834 292.906C196.17 296.078 193.395 299.583 190.509 303.423C187.623 307.178 184.81 311.018 182.072 314.94C179.334 318.863 176.447 322.827 173.413 326.834C170.453 330.84 167.345 334.555 164.088 337.977C160.832 341.315 157.465 344.027 153.987 346.114C150.583 348.2 147.03 349.244 143.33 349.244C141.998 349.244 140.665 348.994 139.333 348.493C137.927 348.075 136.78 347.241 135.892 345.989C134.93 344.821 134.449 343.193 134.449 341.106C134.449 339.938 134.856 338.644 135.67 337.225C136.41 335.723 137.335 334.972 138.445 334.972C137.853 335.973 137.557 337.183 137.557 338.602C137.557 340.104 138.112 341.357 139.222 342.358C140.332 343.443 142.108 343.986 144.55 343.986C147.363 343.986 150.323 343.068 153.431 341.232C156.54 339.479 159.685 337.142 162.867 334.221C166.049 331.216 169.158 327.919 172.192 324.331C175.226 320.742 178.039 317.11 180.629 313.438C183.589 309.265 186.586 305.175 189.62 301.169C192.655 297.163 195.578 293.574 198.39 290.402C201.277 287.147 203.83 284.643 206.05 282.891C206.79 282.306 208.011 281.346 209.713 280.011C211.489 278.676 213.746 277.465 216.485 276.38C213.746 276.464 210.86 276.422 207.826 276.255C204.866 276.004 201.98 275.671 199.168 275.254C197.614 275.003 196.022 274.795 194.394 274.628C192.766 274.461 191.1 274.377 189.398 274.377C184.884 274.377 180.629 275.045 176.632 276.38C172.636 277.715 169.565 280.053 167.419 283.391C166.16 285.394 165.532 287.356 165.532 289.276C165.532 290.611 165.79 291.696 166.308 292.531C166.604 292.865 166.938 293.24 167.308 293.657C167.678 293.991 167.974 294.158 168.196 294.158C167.9 294.492 167.53 294.659 167.086 294.659C166.568 294.659 166.05 294.533 165.532 294.283C165.088 293.949 164.717 293.616 164.421 293.282C163.681 292.364 163.126 291.32 162.756 290.152C162.386 288.9 162.201 287.69 162.201 286.521C162.201 284.185 162.719 282.223 163.755 280.637C165.827 277.465 168.492 275.129 171.748 273.626C172.072 273.477 172.405 273.335 172.746 273.2V244.244H178.312V271.764Z" fill="#EEEEEE"/>
<path d="M252.119 276.38C251.157 277.215 249.676 278.759 247.678 281.013C245.68 283.183 243.83 285.312 242.128 287.398C239.834 290.152 237.244 293.449 234.357 297.288C231.545 301.127 228.733 305.05 225.921 309.056C223.183 313.062 220.703 316.818 218.483 320.324C216.263 323.829 214.598 326.708 213.488 328.962C212.97 329.963 212.526 331.007 212.156 332.092C211.86 333.177 211.711 334.179 211.711 335.097C211.711 336.683 212.34 337.475 213.598 337.476C214.412 337.476 215.708 336.975 217.484 335.974C219.334 334.805 221.074 333.303 222.702 331.466C224.33 329.547 226.069 327.418 227.919 325.081C228.141 325.081 228.252 325.207 228.252 325.457C228.252 325.791 228.104 326.25 227.808 326.834C227.586 327.418 227.401 327.878 227.253 328.211C224.366 332.051 221.628 334.93 219.038 336.85C216.448 338.769 213.784 339.729 211.045 339.729C209.269 339.729 208.011 339.311 207.271 338.477C206.605 337.559 206.272 336.432 206.272 335.097C206.272 333.678 206.531 332.134 207.049 330.464C207.641 328.795 208.344 327.126 209.158 325.457C211.304 321.284 213.857 316.985 216.817 312.562C219.778 308.139 222.924 303.756 226.254 299.416C229.658 295.076 232.988 291.07 236.244 287.398C237.873 285.645 239.649 283.934 241.573 282.265C243.497 280.595 245.384 279.218 247.234 278.133C249.084 276.965 250.713 276.38 252.119 276.38Z" fill="#EEEEEE"/>
<path d="M178.312 290.96C178.312 294.761 177.719 298.095 176.531 300.963C175.344 303.797 173.681 306.165 171.544 308.065C169.406 309.966 166.853 311.4 163.884 312.367C160.916 313.301 157.635 313.768 154.043 313.768C151.817 313.768 149.768 313.651 147.898 313.417C146.027 313.217 144.29 312.95 142.687 312.617C141.114 312.284 139.644 311.933 138.278 311.567C136.942 311.167 135.666 310.783 134.449 310.416V303.964C135.696 304.498 136.987 305.015 138.323 305.515C139.659 306.015 141.158 306.465 142.821 306.865C144.483 307.265 146.339 307.582 148.387 307.815C150.465 308.049 152.841 308.166 155.513 308.166C157.917 308.166 160.159 307.798 162.237 307.065C164.345 306.298 166.17 305.197 167.714 303.764C169.287 302.297 170.52 300.53 171.41 298.462C172.301 296.362 172.746 293.96 172.746 291.26V283.285C174.287 281.744 176.143 280.542 178.312 279.679V290.96Z" fill="#EEEEEE"/>
<path fill-rule="evenodd" clip-rule="evenodd" d="M211.23 172.436C213.036 172.436 214.58 172.883 215.862 173.778C217.163 174.653 218.154 175.887 218.834 177.482C219.533 179.057 219.882 180.894 219.882 182.994C219.882 185.094 219.533 186.941 218.834 188.535C218.154 190.11 217.163 191.345 215.862 192.24C214.58 193.115 213.036 193.553 211.23 193.553C209.423 193.553 207.87 193.115 206.569 192.24C205.267 191.345 204.267 190.11 203.568 188.535C202.869 186.941 202.519 185.094 202.519 182.994C202.519 180.894 202.869 179.057 203.568 177.482C204.267 175.887 205.267 174.653 206.569 173.778C207.87 172.883 209.423 172.436 211.23 172.436ZM211.23 175.061C210.123 175.061 209.132 175.382 208.258 176.024C207.384 176.646 206.704 177.55 206.219 178.736C205.733 179.922 205.49 181.341 205.49 182.994C205.49 184.647 205.733 186.066 206.219 187.252C206.704 188.438 207.384 189.352 208.258 189.994C209.132 190.635 210.123 190.956 211.23 190.956C212.317 190.956 213.288 190.635 214.143 189.994C215.017 189.352 215.697 188.438 216.182 187.252C216.668 186.066 216.911 184.647 216.911 182.994C216.911 181.341 216.668 179.922 216.182 178.736C215.697 177.55 215.017 176.646 214.143 176.024C213.288 175.382 212.317 175.061 211.23 175.061Z" fill="#EEEEEE"/>
<path d="M187.213 172.436C188.515 172.436 189.642 172.678 190.593 173.165C191.545 173.631 192.283 174.322 192.808 175.236C193.332 176.13 193.594 177.229 193.594 178.531C193.594 179.465 193.409 180.398 193.04 181.331C192.671 182.245 192.166 183.14 191.525 184.015C190.904 184.89 190.204 185.736 189.428 186.552C188.651 187.349 187.845 188.108 187.01 188.827C186.194 189.547 185.407 190.198 184.65 190.781H194.235V193.202H180.455V191.102C181.814 190.052 183.106 188.992 184.329 187.923C185.553 186.854 186.641 185.794 187.593 184.744C188.564 183.675 189.321 182.634 189.865 181.623C190.409 180.593 190.681 179.611 190.681 178.677C190.681 178.016 190.564 177.403 190.331 176.84C190.098 176.276 189.729 175.819 189.224 175.469C188.719 175.099 188.029 174.915 187.155 174.915C186.32 174.915 185.621 175.099 185.058 175.469C184.514 175.838 184.096 176.334 183.805 176.956C183.533 177.559 183.397 178.23 183.397 178.969H180.571C180.59 177.569 180.891 176.383 181.474 175.41C182.057 174.438 182.844 173.699 183.834 173.194C184.844 172.688 185.971 172.436 187.213 172.436Z" fill="#EEEEEE"/>
<path fill-rule="evenodd" clip-rule="evenodd" d="M200 121.744C251.086 121.744 292.5 163.204 292.5 214.348V379.14L292.492 380.337C291.852 430.929 250.687 471.744 200 471.744C148.914 471.744 107.5 430.284 107.5 379.14V214.348C107.5 163.204 148.914 121.744 200 121.744ZM200 123.932C150.12 123.932 109.685 164.412 109.685 214.348V379.14C109.685 429.076 150.12 469.557 200 469.557C249.88 469.557 290.315 429.076 290.315 379.14V214.348C290.315 164.412 249.88 123.932 200 123.932Z" fill="#EEEEEE"/>
<path d="M48.1215 531.8V531.704H56.3775C60.8255 531.704 63.8655 534.808 63.8655 538.744C63.8655 543 60.2495 545.88 55.6415 545.88H51.0975V550.456C51.0975 552.152 51.4495 553.752 51.6735 554.648V554.744H48.1215V554.648C48.3135 553.752 48.6655 552.152 48.6655 550.456V535.992C48.6655 534.296 48.3135 532.696 48.1215 531.8ZM55.4815 544.728C58.8415 544.728 61.2415 542.264 61.2415 538.744C61.2415 535.416 59.0975 532.856 55.7375 532.856H51.0975V544.728H55.4815ZM69.1942 554.648V554.744H65.7702V554.648C65.9942 553.752 66.3462 552.152 66.3462 550.456V535.704C66.3462 534.008 66.0262 532.472 65.6742 531.608L65.6422 531.512L66.1862 531.416L68.6182 531V550.456C68.6182 552.152 68.9702 553.752 69.1942 554.648ZM78.4812 554.968C74.4812 554.968 71.2812 551.8 71.2812 546.84C71.2812 541.976 74.3532 538.776 78.3852 538.776C82.2252 538.776 84.8812 541.72 84.8812 546.264H73.7772V546.456C73.7772 550.392 75.8252 553.304 79.3772 553.304C81.2012 553.304 82.9932 552.536 84.8492 550.616L84.9452 550.68C83.7612 553.304 81.3612 554.968 78.4812 554.968ZM78.3532 539.736C75.6012 539.736 74.0652 542.168 73.8092 545.4L82.4172 545.144C82.2572 541.816 80.8492 539.736 78.3532 539.736ZM92.0232 554.968C88.7912 554.968 86.9352 552.792 86.9352 550.328C86.9352 546.616 91.2552 544.536 96.2792 545.496C96.5352 545.56 96.7592 545.592 96.9512 545.656V543.512C96.9512 540.984 95.4152 539.8 93.5912 539.8C91.5112 539.8 89.0152 541.88 87.9272 543.352H87.8312V540.12C89.8472 539.224 91.9592 538.776 93.6872 538.776C96.9832 538.776 99.2232 540.408 99.2232 543.48V552.088C99.2232 553.528 100.119 553.912 101.271 553.592L101.303 553.688C100.823 554.424 100.055 554.808 99.2552 554.808C97.9112 554.808 97.0472 553.976 96.9512 552.6C95.9912 553.816 94.3592 554.968 92.0232 554.968ZM89.3672 550.2C89.3672 552.248 91.0632 553.656 93.0152 553.656C94.4552 553.656 95.8952 552.824 96.9512 551.448V546.552L96.7592 546.52C92.0552 545.56 89.3672 547.672 89.3672 550.2ZM108.13 554.968C106.37 554.968 104.45 554.424 102.402 553.336V550.2H102.498C103.938 551.96 105.858 553.944 108.258 553.944C109.922 553.944 111.682 553.016 111.682 551.032C111.682 549.176 110.146 548.536 107.522 547.64C104.45 546.616 102.338 545.72 102.338 543.16C102.338 540.376 104.802 538.776 107.874 538.776C109.538 538.776 111.458 539.288 113.154 540.152V543.064H113.026C111.554 541.176 109.858 539.768 107.746 539.768C105.986 539.768 104.354 540.728 104.354 542.392C104.354 544.184 106.05 544.632 108.706 545.496C111.81 546.52 113.57 547.704 113.57 550.296C113.57 553.4 111.106 554.968 108.13 554.968ZM122.521 554.968C118.521 554.968 115.321 551.8 115.321 546.84C115.321 541.976 118.393 538.776 122.425 538.776C126.265 538.776 128.921 541.72 128.921 546.264H117.817V546.456C117.817 550.392 119.865 553.304 123.417 553.304C125.241 553.304 127.033 552.536 128.889 550.616L128.985 550.68C127.801 553.304 125.401 554.968 122.521 554.968ZM122.393 539.736C119.641 539.736 118.105 542.168 117.849 545.4L126.457 545.144C126.297 541.816 124.889 539.736 122.393 539.736ZM144.139 554.968C142.379 554.968 140.459 554.424 138.411 553.336V550.2H138.507C139.947 551.96 141.867 553.944 144.267 553.944C145.931 553.944 147.691 553.016 147.691 551.032C147.691 549.176 146.155 548.536 143.531 547.64C140.459 546.616 138.347 545.72 138.347 543.16C138.347 540.376 140.811 538.776 143.883 538.776C145.547 538.776 147.467 539.288 149.163 540.152V543.064H149.035C147.563 541.176 145.867 539.768 143.755 539.768C141.995 539.768 140.363 540.728 140.363 542.392C140.363 544.184 142.059 544.632 144.715 545.496C147.819 546.52 149.579 547.704 149.579 550.296C149.579 553.4 147.115 554.968 144.139 554.968ZM156.704 554.968C153.472 554.968 151.616 552.792 151.616 550.328C151.616 546.616 155.936 544.536 160.96 545.496C161.216 545.56 161.44 545.592 161.632 545.656V543.512C161.632 540.984 160.096 539.8 158.272 539.8C156.192 539.8 153.696 541.88 152.608 543.352H152.512V540.12C154.528 539.224 156.64 538.776 158.368 538.776C161.664 538.776 163.904 540.408 163.904 543.48V552.088C163.904 553.528 164.8 553.912 165.952 553.592L165.984 553.688C165.504 554.424 164.736 554.808 163.936 554.808C162.592 554.808 161.728 553.976 161.632 552.6C160.672 553.816 159.04 554.968 156.704 554.968ZM154.048 550.2C154.048 552.248 155.744 553.656 157.696 553.656C159.136 553.656 160.576 552.824 161.632 551.448V546.552L161.44 546.52C156.736 545.56 154.048 547.672 154.048 550.2ZM167.614 542.904C166.942 541.336 166.238 539.992 165.342 539.064V538.968H169.758V539.064C169.438 539.96 169.47 541.368 170.078 542.904L174.046 552.664L177.822 542.936C178.43 541.4 178.366 539.96 177.982 539.064V538.968H180.798V539.064C180.446 539.608 179.902 540.568 179.422 541.752L174.398 554.744H172.446L167.614 542.904ZM188.359 554.968C184.359 554.968 181.159 551.8 181.159 546.84C181.159 541.976 184.231 538.776 188.263 538.776C192.103 538.776 194.759 541.72 194.759 546.264H183.655V546.456C183.655 550.392 185.703 553.304 189.255 553.304C191.079 553.304 192.871 552.536 194.727 550.616L194.823 550.68C193.639 553.304 191.239 554.968 188.359 554.968ZM188.231 539.736C185.479 539.736 183.943 542.168 183.687 545.4L192.295 545.144C192.135 541.816 190.727 539.736 188.231 539.736ZM209.272 554.968C206.936 554.968 205.72 553.24 205.72 550.84V540.024H203.384V539.32C205.976 538.744 206.936 536.92 207.544 534.776H207.992V538.968H212.504V540.024H207.992V550.52C207.992 552.376 208.856 553.336 210.424 553.336C211.16 553.336 212.344 553.144 213.56 552.248C212.728 553.88 211.128 554.968 209.272 554.968ZM218.385 554.648V554.744H214.993V554.648C215.217 553.752 215.569 552.152 215.569 550.456V535.704C215.569 534.008 215.249 532.472 214.865 531.608L214.833 531.512L215.409 531.416L217.809 531V541.592C219.441 539.576 221.169 538.776 223.025 538.776C225.553 538.776 228.209 540.152 228.209 544.248V550.456C228.209 552.152 228.561 553.752 228.785 554.648V554.744H225.393V554.648C225.617 553.752 225.969 552.152 225.969 550.456V544.472C225.969 541.624 224.177 540.376 222.225 540.376C220.689 540.376 219.217 541.144 217.809 542.584V550.456C217.809 552.152 218.161 553.752 218.385 554.648ZM238.11 554.968C234.11 554.968 230.91 551.8 230.91 546.84C230.91 541.976 233.982 538.776 238.014 538.776C241.854 538.776 244.51 541.72 244.51 546.264H233.406V546.456C233.406 550.392 235.454 553.304 239.006 553.304C240.83 553.304 242.622 552.536 244.478 550.616L244.574 550.68C243.39 553.304 240.99 554.968 238.11 554.968ZM237.982 539.736C235.23 539.736 233.694 542.168 233.438 545.4L242.046 545.144C241.886 541.816 240.478 539.736 237.982 539.736ZM265.551 554.744C265.391 553.912 265.135 553.272 265.007 552.184C263.695 554.104 261.935 554.968 259.983 554.968C256.431 554.968 253.679 552.088 253.679 547.096C253.679 541.56 256.975 538.776 260.495 538.776C262.255 538.776 263.791 539.512 264.911 540.92V535.704C264.911 534.008 264.527 532.472 264.143 531.608L264.111 531.512L264.783 531.416L267.215 531V550.456C267.215 552.152 267.567 553.752 267.759 554.648V554.744H265.551ZM256.175 546.872C256.175 550.488 257.647 553.624 260.687 553.624C262.447 553.624 263.823 552.568 264.911 551.064C264.911 550.936 264.911 550.744 264.911 550.584V542.104C264.015 540.984 262.703 540.088 261.039 540.088C258.127 540.088 256.175 542.744 256.175 546.872ZM274.699 554.968C271.467 554.968 269.611 552.792 269.611 550.328C269.611 546.616 273.931 544.536 278.955 545.496C279.211 545.56 279.435 545.592 279.627 545.656V543.512C279.627 540.984 278.091 539.8 276.267 539.8C274.187 539.8 271.691 541.88 270.603 543.352H270.507V540.12C272.523 539.224 274.635 538.776 276.363 538.776C279.659 538.776 281.899 540.408 281.899 543.48V552.088C281.899 553.528 282.795 553.912 283.947 553.592L283.979 553.688C283.499 554.424 282.731 554.808 281.931 554.808C280.587 554.808 279.723 553.976 279.627 552.6C278.667 553.816 277.035 554.968 274.699 554.968ZM272.043 550.2C272.043 552.248 273.739 553.656 275.691 553.656C277.131 553.656 278.571 552.824 279.627 551.448V546.552L279.435 546.52C274.731 545.56 272.043 547.672 272.043 550.2ZM290.008 554.968C287.672 554.968 286.456 553.24 286.456 550.84V540.024H284.12V539.32C286.712 538.744 287.672 536.92 288.28 534.776H288.728V538.968H293.24V540.024H288.728V550.52C288.728 552.376 289.592 553.336 291.16 553.336C291.896 553.336 293.08 553.144 294.296 552.248C293.464 553.88 291.864 554.968 290.008 554.968ZM301.822 554.968C297.822 554.968 294.622 551.8 294.622 546.84C294.622 541.976 297.694 538.776 301.726 538.776C305.566 538.776 308.222 541.72 308.222 546.264H297.118V546.456C297.118 550.392 299.166 553.304 302.718 553.304C304.542 553.304 306.334 552.536 308.19 550.616L308.286 550.68C307.102 553.304 304.702 554.968 301.822 554.968ZM301.694 539.736C298.942 539.736 297.406 542.168 297.15 545.4L305.758 545.144C305.598 541.816 304.19 539.736 301.694 539.736ZM316.336 540.024V538.968H318.96V537.464C318.96 532.6 320.944 531.064 323.44 531.064C324.624 531.064 325.968 531.384 327.312 531.992V534.456H327.184C325.776 532.888 324.56 532.024 323.472 532.024C321.808 532.024 321.2 533.72 321.2 537.176V538.968H326.448V540.024H321.2V550.456C321.2 552.152 321.552 553.752 321.776 554.648V554.744H318.384V554.648C318.608 553.752 318.96 552.152 318.96 550.456V540.024H316.336ZM334.057 554.968C329.865 554.968 326.569 551.768 326.569 546.808C326.569 541.88 329.865 538.776 334.057 538.776C338.217 538.776 341.609 541.88 341.609 546.808C341.609 551.768 338.217 554.968 334.057 554.968ZM334.057 553.944C337.097 553.944 339.049 550.84 339.049 546.808C339.049 542.84 337.097 539.736 334.057 539.736C331.017 539.736 329.097 542.84 329.097 546.808C329.097 550.776 330.985 553.944 334.057 553.944ZM346.934 554.648V554.744H343.542V554.648C343.766 553.752 344.118 552.152 344.118 550.456V543.256C344.118 541.528 343.766 539.96 343.542 539.064V538.968H346.358V541.432C347.638 539.32 350.134 538.168 352.63 538.936L352.31 541.624H352.214C350.646 540.408 348.182 540.088 346.358 542.264V550.456C346.358 552.152 346.71 553.752 346.934 554.648ZM94.26 592.744L86.804 573.864C86.772 574.152 86.772 574.44 86.772 574.728V585.512C86.772 588.616 88.212 592.008 88.372 592.584V592.744H83.7V592.584C83.86 592.008 85.3 588.616 85.3 585.512V574.728C85.3 572.584 84.212 570.28 84.084 569.832V569.704H90.036L96.788 586.568L103.092 569.704H108.692V569.832C108.596 570.248 107.86 572.552 107.86 574.696V587.752C107.86 589.896 108.596 592.2 108.692 592.616V592.744H102.26V592.616C102.356 592.2 103.092 589.896 103.092 587.752V573.8L96.02 592.744H94.26ZM118.51 593.064C114.03 593.064 110.19 590.184 110.19 584.648C110.19 579.144 114.03 576.456 118.51 576.456C122.958 576.456 126.862 579.176 126.862 584.648C126.862 590.184 122.958 593.064 118.51 593.064ZM118.51 591.784C120.846 591.784 121.806 588.168 121.806 584.648C121.806 581.16 120.846 577.704 118.51 577.704C116.142 577.704 115.246 581.192 115.246 584.648C115.246 588.136 116.142 591.784 118.51 591.784ZM134.242 592.616V592.744H128.066V592.616C128.162 592.2 128.898 589.896 128.898 587.752V581.64C128.898 579.496 128.162 577.192 128.066 576.744V576.648H133.41V579.4C134.498 577.736 136.194 576.456 138.562 576.456C141.378 576.456 143.842 578.152 143.842 581.832V587.752C143.842 589.896 144.578 592.2 144.642 592.616V592.744H138.498V592.616C138.594 592.2 139.33 589.896 139.33 587.752V582.44C139.33 580.168 137.954 579.304 136.45 579.272C135.394 579.24 134.37 579.688 133.41 580.424V587.752C133.41 589.896 134.146 592.2 134.242 592.616ZM151.726 593.064C149.038 593.064 147.47 591.208 147.47 588.04V578.024H145.134V576.776C148.334 575.432 150.222 573.512 151.79 571.304H151.982V576.648H156.334V578.024H151.982V587.592C151.982 589.288 152.878 590.056 154.19 590.056C154.862 590.056 155.758 589.864 156.686 589.352C155.918 591.272 154.382 593.064 151.726 593.064ZM163.947 592.616V592.744H157.803V592.616C157.899 592.2 158.635 589.896 158.635 587.752V574.408C158.635 572.264 157.867 570.056 157.707 569.64L157.675 569.512L158.507 569.384L163.147 568.84V579.272C164.363 577.608 166.027 576.456 168.267 576.456C171.083 576.456 173.547 578.152 173.547 581.832V587.752C173.547 589.896 174.283 592.2 174.347 592.616V592.744H168.203V592.616C168.299 592.2 169.035 589.896 169.035 587.752V582.44C169.035 580.168 167.595 579.304 166.027 579.304C165.035 579.304 164.075 579.656 163.147 580.264V587.752C163.147 589.896 163.883 592.2 163.947 592.616ZM182.916 569.832V569.704H191.876C197.892 569.704 202.916 574.248 202.916 581.128C202.916 588.296 197.892 592.744 191.876 592.744H182.916V592.616C183.012 592.2 183.748 589.896 183.748 587.752V574.696C183.748 572.552 183.012 570.248 182.916 569.832ZM190.5 570.984H188.548V591.432H190.5C195.332 591.432 197.54 586.6 197.54 581.128C197.508 575.88 195.332 570.984 190.5 570.984ZM209.364 593.032C205.972 593.032 204.212 590.472 204.212 588.008C204.212 584.552 207.668 582.504 211.604 582.888C212.404 582.952 213.332 583.112 214.068 583.368V581.448C214.068 579.144 213.46 577.832 212.308 577.832C210.388 577.832 205.972 581.384 205.556 581.96H205.396V577.64C208.148 576.84 210.836 576.456 212.564 576.456C216.756 576.456 218.58 578.632 218.58 581.736V588.488C218.58 590.28 219.156 591.048 220.628 590.408L220.692 590.504C220.404 591.912 219.284 592.968 217.492 592.968C215.796 592.968 214.644 592.072 214.228 590.472C213.396 591.72 211.796 593.032 209.364 593.032ZM208.916 587.368C208.916 589.224 210.1 590.568 211.828 590.568C212.66 590.568 213.428 590.184 214.068 589.512C214.068 589.384 214.068 589.256 214.068 589.128V584.328C213.876 584.328 213.652 584.328 213.428 584.296C210.42 583.912 208.916 585.448 208.916 587.368ZM220.209 598.44L221.105 594.216L221.169 594.184C223.281 596.328 225.873 597.384 227.057 594.504L227.537 593.352L221.969 581.16C221.073 579.208 219.761 577.192 219.345 576.744V576.648H226.801V576.744C226.641 577.16 225.937 579.144 226.769 580.936L229.809 587.752L232.561 581C233.329 579.176 232.561 577.16 232.401 576.744V576.648H236.305V576.744C236.113 577.064 234.897 579.016 234.129 580.84L228.145 595.336C226.609 599.176 224.049 599.88 220.209 598.44ZM235.314 596.712C237.298 595.656 237.906 593.928 237.906 593.032C237.842 592.936 237.874 593.064 237.874 593.064C236.114 593.16 234.866 591.944 234.898 590.376C234.898 588.904 236.178 587.752 237.65 587.752C239.346 587.752 240.658 589.16 240.658 591.272C240.658 593.512 239.09 595.912 236.434 596.712H235.314ZM249.794 574.248C248.834 572.328 247.394 570.28 247.138 569.832V569.704H254.658V569.832C254.562 570.312 254.05 572.616 255.074 574.76L258.914 582.568L262.594 575.336C263.746 572.968 263.042 570.408 262.914 569.864V569.704H267.522V569.832C267.266 570.248 265.762 572.328 264.834 574.248L259.81 583.944V587.752C259.81 589.896 260.546 592.2 260.642 592.616V592.744H254.146V592.616C254.242 592.2 254.978 589.896 254.978 587.752V584.008L249.794 574.248ZM273.045 593.064C269.077 593.064 265.045 590.312 265.045 584.712C265.045 579.56 268.405 576.456 273.109 576.456C278.293 576.456 280.405 580.296 280.405 584.328H270.005C270.325 587.688 271.829 590.088 275.093 590.088C276.757 590.088 278.261 589.544 280.085 588.168L280.213 588.232C279.349 590.504 276.885 593.064 273.045 593.064ZM269.973 583.176C269.973 583.304 269.973 583.432 269.973 583.56L275.893 582.632C275.829 580.136 275.189 577.704 273.045 577.704C270.709 577.704 269.941 580.488 269.973 583.176ZM286.975 593.032C283.583 593.032 281.823 590.472 281.823 588.008C281.823 584.552 285.279 582.504 289.215 582.888C290.015 582.952 290.943 583.112 291.679 583.368V581.448C291.679 579.144 291.071 577.832 289.919 577.832C287.999 577.832 283.583 581.384 283.167 581.96H283.007V577.64C285.759 576.84 288.447 576.456 290.175 576.456C294.367 576.456 296.191 578.632 296.191 581.736V588.488C296.191 590.28 296.767 591.048 298.239 590.408L298.303 590.504C298.015 591.912 296.895 592.968 295.103 592.968C293.407 592.968 292.255 592.072 291.839 590.472C291.007 591.72 289.407 593.032 286.975 593.032ZM286.527 587.368C286.527 589.224 287.711 590.568 289.439 590.568C290.271 590.568 291.039 590.184 291.679 589.512C291.679 589.384 291.679 589.256 291.679 589.128V584.328C291.487 584.328 291.263 584.328 291.039 584.296C288.031 583.912 286.527 585.448 286.527 587.368ZM305.402 592.616V592.744H299.226V592.616C299.322 592.2 300.058 589.896 300.058 587.752V581.64C300.058 579.496 299.322 577.192 299.226 576.744V576.648H304.57V579.688C305.754 577.288 307.962 575.528 311.258 576.584L310.554 581.48H310.394C308.986 580.04 306.746 578.984 304.57 580.552V587.752C304.57 589.896 305.306 592.2 305.402 592.616ZM312.916 593.032C311.412 593.032 310.196 591.816 310.196 590.312C310.196 588.808 311.412 587.592 312.916 587.592C314.42 587.592 315.668 588.808 315.668 590.312C315.668 591.816 314.42 593.032 312.916 593.032Z" fill="#EEEEEE"/>
</svg>
