<svg width="799" height="452" viewBox="0 0 799 452" fill="none" xmlns="http://www.w3.org/2000/svg">
<path d="M312.842 14.66L318.012 0.200033H321.102L326.272 14.66H323.362L322.182 11.31H316.972L315.772 14.66H312.842ZM317.632 8.76003H321.472L319.562 3.01003L317.632 8.76003ZM333.403 14.86C331.996 14.86 330.87 14.6267 330.023 14.16C329.176 13.6867 328.563 13.0167 328.183 12.15C327.81 11.2834 327.623 10.25 327.623 9.05003V0.200033H330.593V9.27003C330.593 10.35 330.853 11.14 331.373 11.64C331.893 12.1334 332.57 12.38 333.403 12.38C333.956 12.38 334.446 12.2734 334.873 12.06C335.3 11.84 335.633 11.5034 335.873 11.05C336.12 10.59 336.243 9.9967 336.243 9.27003V0.200033H339.193V9.15003C339.193 10.3167 339.003 11.33 338.623 12.19C338.243 13.0434 337.626 13.7034 336.773 14.17C335.926 14.63 334.803 14.86 333.403 14.86ZM347.946 14.86C346.619 14.86 345.466 14.56 344.486 13.96C343.512 13.3534 342.759 12.4967 342.226 11.39C341.699 10.2834 341.436 8.9767 341.436 7.47003C341.436 5.9367 341.712 4.61337 342.266 3.50003C342.826 2.38003 343.606 1.5167 344.606 0.910033C345.606 0.303367 346.772 3.33786e-05 348.106 3.33786e-05C348.966 3.33786e-05 349.749 0.1367 350.456 0.410033C351.162 0.683367 351.776 1.0567 352.296 1.53003C352.822 2.00337 353.232 2.54003 353.526 3.14003C353.826 3.73337 353.989 4.35003 354.016 4.99003H350.936C350.849 4.53003 350.676 4.11003 350.416 3.73003C350.162 3.35003 349.836 3.0467 349.436 2.82003C349.036 2.5867 348.569 2.47003 348.036 2.47003C347.396 2.47003 346.816 2.6367 346.296 2.97003C345.776 3.2967 345.366 3.82003 345.066 4.54003C344.766 5.26003 344.616 6.21003 344.616 7.39003C344.616 8.34337 344.712 9.1367 344.906 9.77003C345.106 10.4034 345.372 10.9067 345.706 11.28C346.039 11.6467 346.419 11.9067 346.846 12.06C347.272 12.2134 347.709 12.29 348.156 12.29C348.582 12.29 348.962 12.22 349.296 12.08C349.636 11.9334 349.926 11.7467 350.166 11.52C350.406 11.2934 350.596 11.0467 350.736 10.78C350.876 10.5067 350.966 10.24 351.006 9.98003L351.116 9.10003H348.126V7.08003L354.176 7.11003V14.66H352.186V12.77C351.939 13.0967 351.632 13.4234 351.266 13.75C350.906 14.07 350.456 14.3367 349.916 14.55C349.382 14.7567 348.726 14.86 347.946 14.86ZM363.051 14.86C361.645 14.86 360.518 14.6267 359.671 14.16C358.825 13.6867 358.211 13.0167 357.831 12.15C357.458 11.2834 357.271 10.25 357.271 9.05003V0.200033H360.241V9.27003C360.241 10.35 360.501 11.14 361.021 11.64C361.541 12.1334 362.218 12.38 363.051 12.38C363.605 12.38 364.095 12.2734 364.521 12.06C364.948 11.84 365.281 11.5034 365.521 11.05C365.768 10.59 365.891 9.9967 365.891 9.27003V0.200033H368.841V9.15003C368.841 10.3167 368.651 11.33 368.271 12.19C367.891 13.0434 367.275 13.7034 366.421 14.17C365.575 14.63 364.451 14.86 363.051 14.86ZM377.164 14.86C376.444 14.86 375.741 14.77 375.054 14.59C374.367 14.41 373.741 14.14 373.174 13.78C372.607 13.42 372.141 12.97 371.774 12.43C371.414 11.89 371.197 11.2567 371.124 10.53H374.114C374.214 10.97 374.404 11.34 374.684 11.64C374.971 11.94 375.337 12.17 375.784 12.33C376.237 12.49 376.754 12.57 377.334 12.57C377.794 12.57 378.231 12.5034 378.644 12.37C379.057 12.2367 379.394 12.0334 379.654 11.76C379.914 11.4867 380.044 11.1434 380.044 10.73C380.044 10.2367 379.864 9.8667 379.504 9.62003C379.144 9.3667 378.654 9.1667 378.034 9.02003L375.324 8.43003C374.557 8.27003 373.887 8.02337 373.314 7.69003C372.747 7.35003 372.311 6.91003 372.004 6.37003C371.697 5.82337 371.544 5.16003 371.544 4.38003C371.544 3.48003 371.791 2.70337 372.284 2.05003C372.784 1.3967 373.461 0.8967 374.314 0.550034C375.174 0.1967 376.137 0.0200331 377.204 0.0200331C378.411 0.0200331 379.427 0.2167 380.254 0.610033C381.087 0.9967 381.724 1.52337 382.164 2.19003C382.604 2.85003 382.827 3.5867 382.834 4.40003H379.914C379.861 3.90003 379.707 3.50003 379.454 3.20003C379.201 2.89337 378.874 2.67337 378.474 2.54003C378.081 2.40003 377.631 2.33003 377.124 2.33003C376.251 2.33003 375.614 2.5067 375.214 2.86003C374.814 3.21337 374.614 3.62337 374.614 4.09003C374.614 4.53003 374.764 4.8867 375.064 5.16003C375.371 5.4267 375.861 5.63003 376.534 5.77003L379.044 6.31003C379.977 6.49003 380.734 6.7767 381.314 7.17003C381.894 7.5567 382.317 8.0267 382.584 8.58003C382.851 9.13337 382.984 9.75337 382.984 10.44C382.984 11.3134 382.734 12.0834 382.234 12.75C381.741 13.41 381.057 13.9267 380.184 14.3C379.311 14.6734 378.304 14.86 377.164 14.86ZM388.663 14.66V2.80003H384.293V0.200033H395.863V2.80003H391.593V14.66H388.663ZM407.209 14.88C405.456 14.88 404.086 14.2434 403.099 12.97C402.119 11.6967 401.629 9.86337 401.629 7.47003C401.629 5.87003 401.856 4.51337 402.309 3.40003C402.762 2.2867 403.406 1.44337 404.239 0.870034C405.072 0.290033 406.062 3.33786e-05 407.209 3.33786e-05C408.929 3.33786e-05 410.286 0.643367 411.279 1.93003C412.272 3.21003 412.769 5.05337 412.769 7.46003C412.769 9.85337 412.279 11.69 411.299 12.97C410.319 14.2434 408.956 14.88 407.209 14.88ZM407.209 12.49C408.069 12.49 408.699 12.1067 409.099 11.34C409.499 10.5667 409.699 9.2767 409.699 7.47003C409.699 5.62337 409.496 4.30003 409.089 3.50003C408.682 2.70003 408.052 2.30003 407.199 2.30003C406.346 2.30003 405.709 2.70337 405.289 3.51003C404.876 4.3167 404.669 5.6367 404.669 7.47003C404.669 9.27003 404.876 10.5567 405.289 11.33C405.702 12.1034 406.342 12.49 407.209 12.49ZM420.041 14.88C418.288 14.88 416.918 14.2434 415.931 12.97C414.951 11.6967 414.461 9.86337 414.461 7.47003C414.461 5.87003 414.688 4.51337 415.141 3.40003C415.594 2.2867 416.238 1.44337 417.071 0.870034C417.904 0.290033 418.894 3.33786e-05 420.041 3.33786e-05C421.761 3.33786e-05 423.118 0.643367 424.111 1.93003C425.104 3.21003 425.601 5.05337 425.601 7.46003C425.601 9.85337 425.111 11.69 424.131 12.97C423.151 14.2434 421.788 14.88 420.041 14.88ZM420.041 12.49C420.901 12.49 421.531 12.1067 421.931 11.34C422.331 10.5667 422.531 9.2767 422.531 7.47003C422.531 5.62337 422.328 4.30003 421.921 3.50003C421.514 2.70003 420.884 2.30003 420.031 2.30003C419.178 2.30003 418.541 2.70337 418.121 3.51003C417.708 4.3167 417.501 5.6367 417.501 7.47003C417.501 9.27003 417.708 10.5567 418.121 11.33C418.534 12.1034 419.174 12.49 420.041 12.49ZM427.412 17.46L428.572 14.74L427.552 14.65V11.82H430.502V14.31L428.492 17.46H427.412ZM437.602 14.66V13.22V12.48C437.602 11.7467 437.738 11.1134 438.012 10.58C438.285 10.04 438.645 9.57337 439.092 9.18003C439.545 8.78003 440.038 8.43003 440.572 8.13003C441.112 7.83003 441.652 7.5467 442.192 7.28003C442.732 7.01337 443.225 6.7467 443.672 6.48003C444.125 6.2067 444.488 5.90337 444.762 5.57003C445.035 5.2367 445.172 4.84337 445.172 4.39003C445.172 3.81003 444.968 3.3367 444.562 2.97003C444.162 2.60337 443.612 2.42003 442.912 2.42003C442.185 2.42003 441.568 2.63003 441.062 3.05003C440.555 3.47003 440.242 4.10337 440.122 4.95003H437.332C437.345 4.03003 437.558 3.1967 437.972 2.45003C438.392 1.6967 439.018 1.10003 439.852 0.660033C440.685 0.220033 441.732 3.33786e-05 442.992 3.33786e-05C444.072 3.33786e-05 445.002 0.183367 445.782 0.550034C446.568 0.9167 447.175 1.4267 447.602 2.08003C448.028 2.73337 448.242 3.4967 448.242 4.37003C448.242 5.0967 448.108 5.72337 447.842 6.25003C447.575 6.7767 447.222 7.2267 446.782 7.60003C446.342 7.97337 445.858 8.30003 445.332 8.58003C444.805 8.86003 444.278 9.12003 443.752 9.36003C443.232 9.60003 442.752 9.8467 442.312 10.1C441.872 10.3467 441.518 10.6267 441.252 10.94C440.985 11.2534 440.852 11.63 440.852 12.07V12.2H448.222V14.66H437.602ZM455.627 14.88C453.874 14.88 452.504 14.2434 451.517 12.97C450.537 11.6967 450.047 9.86337 450.047 7.47003C450.047 5.87003 450.274 4.51337 450.727 3.40003C451.18 2.2867 451.824 1.44337 452.657 0.870034C453.49 0.290033 454.48 3.33786e-05 455.627 3.33786e-05C457.347 3.33786e-05 458.704 0.643367 459.697 1.93003C460.69 3.21003 461.187 5.05337 461.187 7.46003C461.187 9.85337 460.697 11.69 459.717 12.97C458.737 14.2434 457.374 14.88 455.627 14.88ZM455.627 12.49C456.487 12.49 457.117 12.1067 457.517 11.34C457.917 10.5667 458.117 9.2767 458.117 7.47003C458.117 5.62337 457.914 4.30003 457.507 3.50003C457.1 2.70003 456.47 2.30003 455.617 2.30003C454.764 2.30003 454.127 2.70337 453.707 3.51003C453.294 4.3167 453.087 5.6367 453.087 7.47003C453.087 9.27003 453.294 10.5567 453.707 11.33C454.12 12.1034 454.76 12.49 455.627 12.49ZM463.188 14.66V13.22V12.48C463.188 11.7467 463.324 11.1134 463.598 10.58C463.871 10.04 464.231 9.57337 464.678 9.18003C465.131 8.78003 465.624 8.43003 466.158 8.13003C466.698 7.83003 467.238 7.5467 467.778 7.28003C468.318 7.01337 468.811 6.7467 469.258 6.48003C469.711 6.2067 470.074 5.90337 470.348 5.57003C470.621 5.2367 470.758 4.84337 470.758 4.39003C470.758 3.81003 470.554 3.3367 470.148 2.97003C469.748 2.60337 469.198 2.42003 468.498 2.42003C467.771 2.42003 467.154 2.63003 466.648 3.05003C466.141 3.47003 465.828 4.10337 465.708 4.95003H462.918C462.931 4.03003 463.144 3.1967 463.558 2.45003C463.978 1.6967 464.604 1.10003 465.438 0.660033C466.271 0.220033 467.318 3.33786e-05 468.578 3.33786e-05C469.658 3.33786e-05 470.588 0.183367 471.368 0.550034C472.154 0.9167 472.761 1.4267 473.188 2.08003C473.614 2.73337 473.828 3.4967 473.828 4.37003C473.828 5.0967 473.694 5.72337 473.428 6.25003C473.161 6.7767 472.808 7.2267 472.368 7.60003C471.928 7.97337 471.444 8.30003 470.918 8.58003C470.391 8.86003 469.864 9.12003 469.338 9.36003C468.818 9.60003 468.338 9.8467 467.898 10.1C467.458 10.3467 467.104 10.6267 466.838 10.94C466.571 11.2534 466.438 11.63 466.438 12.07V12.2H473.808V14.66H463.188ZM481.453 14.87C480.293 14.87 479.276 14.7 478.403 14.36C477.53 14.0134 476.85 13.5234 476.363 12.89C475.876 12.2567 475.633 11.51 475.633 10.65C475.633 10.0967 475.77 9.57337 476.043 9.08003C476.316 8.58003 476.663 8.16003 477.083 7.82003C477.503 7.47337 477.936 7.25337 478.383 7.16003C477.79 6.88003 477.286 6.48003 476.873 5.96003C476.46 5.44003 476.253 4.81003 476.253 4.07003C476.253 3.19003 476.48 2.45003 476.933 1.85003C477.393 1.24337 478.016 0.783367 478.803 0.470034C479.59 0.1567 480.473 3.33786e-05 481.453 3.33786e-05C482.446 3.33786e-05 483.333 0.1567 484.113 0.470034C484.9 0.783367 485.52 1.24337 485.973 1.85003C486.426 2.45003 486.653 3.19003 486.653 4.07003C486.653 4.81003 486.45 5.44003 486.043 5.96003C485.636 6.48003 485.136 6.88003 484.543 7.16003C484.983 7.25337 485.413 7.47337 485.833 7.82003C486.26 8.16003 486.61 8.58003 486.883 9.08003C487.156 9.57337 487.293 10.0967 487.293 10.65C487.293 11.51 487.05 12.2567 486.563 12.89C486.083 13.5234 485.403 14.0134 484.523 14.36C483.65 14.7 482.626 14.87 481.453 14.87ZM481.453 12.67C482.306 12.67 482.973 12.48 483.453 12.1C483.94 11.7134 484.183 11.2034 484.183 10.57C484.183 10.1434 484.073 9.77003 483.853 9.45003C483.633 9.12337 483.32 8.8667 482.913 8.68003C482.506 8.49337 482.02 8.40003 481.453 8.40003C480.9 8.40003 480.42 8.49337 480.013 8.68003C479.606 8.8667 479.293 9.12337 479.073 9.45003C478.853 9.77003 478.743 10.1434 478.743 10.57C478.743 11.2034 478.986 11.7134 479.473 12.1C479.96 12.48 480.62 12.67 481.453 12.67ZM481.453 6.03003C482.12 6.03003 482.666 5.85337 483.093 5.50003C483.526 5.14003 483.743 4.64337 483.743 4.01003C483.743 3.38337 483.526 2.8867 483.093 2.52003C482.66 2.15337 482.113 1.97003 481.453 1.97003C480.8 1.97003 480.256 2.15337 479.823 2.52003C479.39 2.8867 479.173 3.38337 479.173 4.01003C479.173 4.64337 479.39 5.14003 479.823 5.50003C480.256 5.85337 480.8 6.03003 481.453 6.03003Z" fill="#EEEEEE"/>
<path d="M4.15999 227.492C18.24 221.092 27.456 212.516 35.776 181.284L50.112 127.652C51.904 120.868 52.288 114.468 52.416 110.884L52.544 110.5H66.112V110.884C64.32 114.468 61.248 120.868 59.456 127.652L44.736 182.436C34.624 219.556 17.728 226.084 4.15999 227.492ZM78.031 204.196C63.695 203.94 55.119 190.628 60.495 170.404C65.615 150.82 80.079 138.532 94.415 138.788C108.751 139.044 117.199 151.844 112.079 171.428C106.703 191.652 92.239 204.452 78.031 204.196ZM79.183 200.356C89.295 200.612 97.999 187.556 102.351 171.3C106.447 155.812 103.503 142.756 93.263 142.5C83.023 142.244 74.191 155.044 70.095 170.66C65.743 186.66 68.687 200.1 79.183 200.356ZM138.245 203.556C124.933 203.556 114.949 190.628 121.349 168.996C126.597 151.076 140.421 138.788 155.269 138.788C165.125 138.788 173.317 144.036 171.653 152.996C169.605 163.236 155.269 173.732 129.541 171.684C125.957 186.788 131.077 197.028 141.829 197.028C148.741 197.028 159.621 193.06 168.197 177.188L169.093 178.468C161.541 196.004 148.485 203.556 138.245 203.556ZM130.565 167.844C130.437 168.1 130.309 168.484 130.309 168.74C151.813 168.996 160.645 161.7 162.565 153.764C164.229 147.108 160.645 142.5 154.629 142.5C143.621 142.5 134.149 156.452 130.565 167.844ZM178.614 227.108C173.238 227.62 166.454 226.724 161.078 221.732L166.838 211.876H167.222C170.166 218.916 175.67 221.732 181.43 221.604C185.91 221.604 190.646 219.684 195.254 216.484C196.406 191.268 196.406 171.556 195.638 157.092C195.126 147.364 192.694 145.188 190.134 145.188C185.654 145.188 181.558 151.972 176.182 159.652L175.542 158.628C179.894 149.54 185.91 138.788 194.23 138.788C198.838 138.788 202.934 141.988 203.702 153.508C204.47 166.18 204.47 184.868 203.574 208.932C215.222 196.26 224.566 176.036 225.718 158.884C226.102 153.252 225.846 147.492 224.438 142.116L236.47 138.66C235.318 174.372 208.95 225.188 178.614 227.108ZM295.942 205.732C282.502 206.884 273.158 201.124 265.862 196.516L270.598 183.588H270.982C275.078 192.932 284.294 202.148 297.862 200.868C307.334 199.972 315.782 194.852 318.598 185.892C321.798 175.268 316.422 166.052 303.238 158.756C289.414 151.204 282.246 141.732 287.878 127.908C292.87 115.748 304.774 108.836 318.342 107.556C331.014 106.276 340.23 110.884 346.118 114.724L341.894 127.14H341.51C337.542 119.204 328.838 111.012 316.422 112.164C307.846 113.188 299.654 118.308 296.07 126.628C291.462 138.148 299.142 144.932 309.51 150.692C322.054 157.732 332.038 167.46 326.918 183.844C322.95 196.644 311.686 204.452 295.942 205.732ZM346.457 203.428C337.753 203.428 332.505 195.876 336.729 180.516L343.257 156.964C345.177 150.052 345.689 143.268 345.177 139.94V139.556H356.825L345.817 179.62C342.745 190.5 344.793 197.028 350.809 197.028C361.049 197.028 371.161 178.34 376.793 161.06L377.945 156.964C379.865 150.052 380.505 143.268 379.993 139.94V139.556H391.641L380.249 180.516C377.049 192.548 379.737 198.052 385.881 198.052C397.785 198.052 413.401 178.98 411.993 153.252C411.737 148.26 410.713 145.188 409.817 142.244L421.849 138.66C421.849 141.988 421.337 146.084 420.569 149.924C416.089 186.02 396.249 203.428 381.785 203.428C373.721 203.428 366.937 197.796 371.417 181.668L371.545 181.028C365.145 192.932 356.697 203.428 346.457 203.428ZM441.97 203.556C428.658 203.556 418.674 190.628 425.074 168.996C430.322 151.076 444.146 138.788 458.994 138.788C468.85 138.788 477.042 144.036 475.378 152.996C473.33 163.236 458.994 173.732 433.266 171.684C429.682 186.788 434.802 197.028 445.554 197.028C452.466 197.028 463.346 193.06 471.922 177.188L472.818 178.468C465.266 196.004 452.21 203.556 441.97 203.556ZM434.29 167.844C434.162 168.1 434.034 168.484 434.034 168.74C455.538 168.996 464.37 161.7 466.29 153.764C467.954 147.108 464.37 142.5 458.354 142.5C447.346 142.5 437.874 156.452 434.29 167.844ZM499.69 203.556C486.378 203.556 476.394 190.628 482.794 168.996C488.042 151.076 501.866 138.788 516.714 138.788C526.57 138.788 534.762 144.036 533.098 152.996C531.05 163.236 516.714 173.732 490.986 171.684C487.402 186.788 492.522 197.028 503.274 197.028C510.186 197.028 521.066 193.06 529.642 177.188L530.538 178.468C522.986 196.004 509.93 203.556 499.69 203.556ZM492.01 167.844C491.882 168.1 491.754 168.484 491.754 168.74C513.258 168.996 522.09 161.7 524.01 153.764C525.674 147.108 522.09 142.5 516.074 142.5C505.066 142.5 495.594 156.452 492.01 167.844ZM532.748 202.66L545.292 156.964C547.084 150.052 547.596 143.268 547.084 139.94V139.556H558.348L552.204 162.852C558.988 150.18 568.844 138.788 580.748 138.788C589.068 138.788 596.748 144.292 592.396 160.548L583.564 193.444C581.772 199.972 592.14 193.572 600.46 179.236L601.356 180.26C595.724 193.06 587.404 203.556 580.492 203.556C576.652 203.556 572.812 200.996 575.244 191.908L583.436 161.572C586.764 149.54 582.54 145.06 576.908 145.06C564.876 145.06 552.46 165.284 546.828 183.076L541.58 202.66H532.748ZM625.755 203.556C612.443 203.556 602.459 190.628 608.859 168.996C614.107 151.076 627.931 138.788 642.779 138.788C652.635 138.788 660.827 144.036 659.163 152.996C657.115 163.236 642.779 173.732 617.051 171.684C613.467 186.788 618.587 197.028 629.339 197.028C636.251 197.028 647.131 193.06 655.707 177.188L656.603 178.468C649.051 196.004 635.995 203.556 625.755 203.556ZM618.075 167.844C617.947 168.1 617.819 168.484 617.819 168.74C639.323 168.996 648.155 161.7 650.075 153.764C651.739 147.108 648.155 142.5 642.139 142.5C631.131 142.5 621.659 156.452 618.075 167.844ZM658.429 202.66L670.717 156.708C672.509 149.796 672.893 143.524 673.021 139.94L673.149 139.556H683.773L678.013 161.316C684.413 148.004 695.037 134.436 707.581 140.196L703.997 150.052H703.613C701.565 148.388 699.389 147.62 696.957 147.748C687.101 148.132 678.013 164.644 673.149 180.132L667.261 202.66H658.429Z" fill="#EEEEEE"/>
<path d="M727.392 202.98C726.379 202.98 725.515 202.793 724.8 202.42C724.096 202.036 723.579 201.492 723.248 200.788C722.928 200.084 722.832 199.236 722.96 198.244C723.227 196.409 724.016 195.049 725.328 194.164C726.64 193.279 728.619 192.799 731.264 192.724L734.224 192.628L734.432 191.252C734.592 190.121 734.368 189.247 733.76 188.628C733.163 188.009 732.299 187.705 731.168 187.716C730.24 187.716 729.371 187.967 728.56 188.468C727.749 188.969 727.184 189.716 726.864 190.708H724.672C724.864 189.801 725.264 188.975 725.872 188.228C726.491 187.481 727.28 186.889 728.24 186.452C729.211 186.015 730.32 185.796 731.568 185.796C732.848 185.796 733.904 186.015 734.736 186.452C735.568 186.889 736.155 187.508 736.496 188.308C736.848 189.097 736.944 190.041 736.784 191.14L735.136 202.66H733.056L733.312 199.604C732.501 200.916 731.589 201.807 730.576 202.276C729.563 202.745 728.501 202.98 727.392 202.98ZM728.336 201.108C728.88 201.108 729.44 201.001 730.016 200.788C730.603 200.575 731.147 200.281 731.648 199.908C732.16 199.535 732.587 199.119 732.928 198.66C733.28 198.201 733.488 197.732 733.552 197.252L733.968 194.308L731.536 194.356C730.235 194.377 729.147 194.516 728.272 194.772C727.408 195.028 726.736 195.423 726.256 195.956C725.787 196.479 725.488 197.167 725.36 198.02C725.232 198.991 725.445 199.748 726 200.292C726.555 200.836 727.333 201.108 728.336 201.108ZM739.724 202.66L742.092 186.116H744.396L744.108 188.452C744.449 187.972 744.87 187.54 745.372 187.156C745.884 186.761 746.476 186.447 747.148 186.212C747.82 185.977 748.572 185.86 749.404 185.86C750.417 185.86 751.302 186.084 752.06 186.532C752.817 186.98 753.372 187.647 753.724 188.532C754.086 189.417 754.172 190.516 753.98 191.828L752.428 202.66H750.012L751.548 192.036C751.74 190.713 751.553 189.705 750.988 189.012C750.422 188.308 749.601 187.956 748.524 187.956C747.766 187.956 747.041 188.084 746.348 188.34C745.665 188.596 745.084 188.98 744.604 189.492C744.134 190.004 743.846 190.649 743.74 191.428L742.124 202.66H739.724ZM762.597 202.98C760.581 202.98 759.077 202.255 758.085 200.804C757.093 199.343 756.784 197.183 757.157 194.324C757.499 191.753 758.309 189.689 759.589 188.132C760.869 186.575 762.576 185.796 764.709 185.796C765.499 185.796 766.176 185.908 766.741 186.132C767.317 186.345 767.792 186.617 768.165 186.948C768.549 187.279 768.848 187.615 769.061 187.956C769.285 188.297 769.44 188.591 769.525 188.836L770.853 178.884H773.301L770.133 202.66H768.245L768.437 199.268C768.32 199.556 768.123 199.908 767.845 200.324C767.579 200.74 767.216 201.151 766.757 201.556C766.299 201.961 765.728 202.303 765.045 202.58C764.363 202.847 763.547 202.98 762.597 202.98ZM763.253 200.996C764.939 200.996 766.208 200.463 767.061 199.396C767.915 198.319 768.501 196.575 768.821 194.164C768.981 192.831 768.971 191.689 768.789 190.74C768.608 189.791 768.219 189.065 767.621 188.564C767.024 188.052 766.171 187.796 765.061 187.796C763.696 187.796 762.523 188.308 761.541 189.332C760.56 190.356 759.925 191.967 759.637 194.164C759.36 196.297 759.52 197.972 760.117 199.188C760.715 200.393 761.76 200.996 763.253 200.996Z" fill="#EEEEEE"/>
<path d="M-7.86781e-06 342.788L0.127992 342.148C2.81599 337.54 7.80799 328.964 10.368 319.62L24.576 267.78C26.368 260.996 26.24 254.596 25.984 251.012L26.112 250.628H38.784L46.208 332.164L98.944 250.5H111.232L111.104 250.884C109.312 254.468 106.24 260.868 104.32 267.652L88.448 325.508C86.528 332.292 86.272 338.692 86.016 342.276V342.66H72.064L72.192 342.276C73.984 338.692 77.056 332.292 78.976 325.508L96.128 263.044L44.672 342.66H37.76L30.592 262.916L15.104 319.62C12.544 328.964 12.672 337.54 12.8 342.148L12.672 342.788H-7.86781e-06ZM121.775 343.556C108.463 343.556 98.479 330.628 104.879 308.996C110.127 291.076 123.951 278.788 138.799 278.788C148.655 278.788 156.847 284.036 155.183 292.996C153.135 303.236 138.799 313.732 113.071 311.684C109.487 326.788 114.607 337.028 125.359 337.028C132.271 337.028 143.151 333.06 151.727 317.188L152.623 318.468C145.071 336.004 132.015 343.556 121.775 343.556ZM114.095 307.844C113.967 308.1 113.839 308.484 113.839 308.74C135.343 308.996 144.175 301.7 146.095 293.764C147.759 287.108 144.175 282.5 138.159 282.5C127.151 282.5 117.679 296.452 114.095 307.844ZM171.577 368.26C161.081 368.26 146.233 365.06 149.817 352.516C151.353 347.396 155.065 342.916 160.313 339.972C157.241 338.052 156.089 334.084 157.241 329.86C158.905 324.1 163.769 320.772 169.273 319.108C164.281 314.884 162.873 307.844 165.049 299.78C168.761 285.828 181.561 278.788 193.593 278.788C198.585 278.788 203.321 280.068 206.521 282.5C211.769 276.484 218.297 274.436 224.825 275.46L220.857 283.652L220.601 283.78C217.273 281.604 213.049 281.348 207.801 283.652C212.025 287.364 213.689 294.532 211.641 302.212C207.929 316.036 194.873 323.46 182.841 323.46C179.001 323.46 175.161 322.564 171.833 320.772C168.121 321.54 165.177 324.1 164.281 327.172C162.873 331.652 166.713 334.212 171.193 334.212H189.369C200.633 334.212 207.929 341.252 204.217 352.132C199.097 367.236 178.617 368.26 171.577 368.26ZM183.993 319.748C192.057 319.748 199.609 312.964 202.425 302.084C205.625 290.052 201.273 282.5 192.313 282.5C184.761 282.5 177.081 288.132 173.881 300.164C170.809 312.068 175.289 319.748 183.993 319.748ZM173.753 364.292C187.321 364.292 196.281 358.276 197.817 352.004C199.225 346.756 195.769 342.404 187.193 342.404H171.321C168.633 342.404 166.201 342.148 164.025 341.636C160.185 344.708 157.241 348.548 156.729 352.9C155.577 360.452 162.489 364.292 173.753 364.292ZM228.288 343.556C217.92 343.556 211.136 331.78 218.816 310.148C227.136 286.852 241.6 278.788 251.328 278.788C257.984 278.788 262.08 282.244 263.232 287.492C266.56 285.06 269.376 282.5 271.552 279.556H273.6L259.136 332.932C257.216 340.484 267.584 333.572 276.032 319.236L276.8 320.26C271.168 333.06 262.848 343.556 255.68 343.556C252.096 343.556 248.384 341.124 250.816 331.908L253.12 323.46C245.696 336.132 236.224 343.556 228.288 343.556ZM228.288 309.252C222.4 325.764 224.704 337.028 232.768 337.028C241.216 337.028 251.84 324.228 257.472 307.076L260.8 294.532C261.312 289.412 259.52 283.268 252.992 283.14C244.672 282.884 234.304 292.356 228.288 309.252ZM278.148 342.66L290.692 296.964C292.484 290.052 292.996 283.268 292.484 279.94V279.556H303.748L297.604 302.852C304.388 290.18 314.244 278.788 326.148 278.788C334.468 278.788 342.148 284.292 337.796 300.548L328.964 333.444C327.172 339.972 337.54 333.572 345.86 319.236L346.756 320.26C341.124 333.06 332.804 343.556 325.892 343.556C322.052 343.556 318.212 340.996 320.644 331.908L328.836 301.572C332.164 289.54 327.94 285.06 322.308 285.06C310.276 285.06 297.86 305.284 292.228 323.076L286.98 342.66H278.148ZM380.57 342.66L380.698 342.276C382.618 338.692 385.562 332.292 387.482 325.508L402.842 267.652C404.762 260.868 405.018 254.468 405.146 250.884L405.274 250.5H419.226V250.884C417.306 254.468 414.234 260.868 412.442 267.652L393.498 338.436H413.978C421.914 338.436 431.258 331.524 436.25 328.068H436.762L432.922 342.66H380.57ZM456.168 343.556C445.8 343.556 439.016 331.78 446.696 310.148C455.016 286.852 469.48 278.788 479.208 278.788C485.864 278.788 489.96 282.244 491.112 287.492C494.44 285.06 497.256 282.5 499.432 279.556H501.48L487.016 332.932C485.096 340.484 495.464 333.572 503.912 319.236L504.68 320.26C499.048 333.06 490.728 343.556 483.56 343.556C479.976 343.556 476.264 341.124 478.696 331.908L481 323.46C473.576 336.132 464.104 343.556 456.168 343.556ZM456.168 309.252C450.28 325.764 452.584 337.028 460.648 337.028C469.096 337.028 479.72 324.228 485.352 307.076L488.68 294.532C489.192 289.412 487.4 283.268 480.872 283.14C472.552 282.884 462.184 292.356 456.168 309.252ZM504.608 342.788C506.784 338.564 509.472 332.292 511.264 325.508L526.624 267.908C528.544 260.868 528.928 255.108 529.056 250.884L529.184 250.5H540.064L527.264 298.372C534.432 285.956 543.776 278.788 551.712 278.788C561.952 278.788 568.864 290.436 561.184 312.196C552.992 335.364 537.888 343.556 527.392 343.556C522.912 343.556 519.072 342.02 516.512 338.436L505.504 342.788H504.608ZM547.232 285.188C539.168 285.188 529.184 296.836 523.424 312.836L517.664 334.34C519.712 337.924 522.528 339.204 525.984 339.204C534.944 339.204 545.696 330.116 551.712 312.964C557.728 296.452 555.168 285.188 547.232 285.188ZM588.166 344.196C573.83 343.94 565.254 330.628 570.63 310.404C575.75 290.82 590.214 278.532 604.55 278.788C618.886 279.044 627.334 291.844 622.214 311.428C616.838 331.652 602.374 344.452 588.166 344.196ZM589.318 340.356C599.43 340.612 608.134 327.556 612.486 311.3C616.582 295.812 613.638 282.756 603.398 282.5C593.158 282.244 584.326 295.044 580.23 310.66C575.878 326.66 578.822 340.1 589.318 340.356ZM645.603 344.196C637.539 344.324 629.347 341.764 623.715 337.412L627.811 325.764L628.195 325.636C630.499 332.804 636.899 339.844 645.603 340.1C650.851 340.356 656.867 338.436 659.299 332.292C662.243 324.612 655.715 318.852 647.651 313.604C640.867 309.124 631.139 302.34 634.851 291.716C637.667 283.524 645.731 279.044 656.099 278.788C664.035 278.404 671.075 280.708 676.195 283.524L672.355 294.788L671.843 294.916C669.667 287.364 663.395 282.244 655.075 282.628C649.699 282.884 644.579 285.06 642.659 290.18C639.843 297.476 647.907 302.468 654.051 306.692C664.547 313.86 670.307 320.644 667.235 329.988C664.291 339.332 656.227 344.068 645.603 344.196ZM671.515 342.66L671.643 342.276C673.435 338.692 676.507 332.292 678.299 325.508L694.043 266.5C695.835 259.716 695.835 253.572 695.835 250.116V249.732L707.739 247.684L687.003 325.508C685.211 332.292 684.699 338.692 684.571 342.276L684.443 342.66H671.515ZM716.699 343.556C711.195 343.556 709.019 337.54 703.515 326.788L693.915 308.1V307.972L710.811 295.428C718.619 289.668 722.203 284.676 721.435 280.068L721.563 279.556H737.819L737.691 280.068L702.491 306.308L714.011 329.22C716.699 334.468 717.979 336.26 719.899 336.26C723.739 336.516 728.091 330.244 734.619 320.388L735.387 321.412C730.779 332.676 723.995 343.556 716.699 343.556ZM741.094 367.108C735.718 367.62 728.934 366.724 723.558 361.732L729.318 351.876H729.702C732.646 358.916 738.15 361.732 743.91 361.604C748.39 361.604 753.126 359.684 757.734 356.484C758.886 331.268 758.886 311.556 758.118 297.092C757.606 287.364 755.174 285.188 752.614 285.188C748.134 285.188 744.038 291.972 738.662 299.652L738.022 298.628C742.374 289.54 748.39 278.788 756.71 278.788C761.318 278.788 765.414 281.988 766.182 293.508C766.95 306.18 766.95 324.868 766.054 348.932C777.702 336.26 787.046 316.036 788.198 298.884C788.582 293.252 788.326 287.492 786.918 282.116L798.95 278.66C797.798 314.372 771.43 365.188 741.094 367.108Z" fill="#EEEEEE"/>
<path d="M219.7 441.996C214.852 441.996 212.068 438.732 212.068 435.036C212.068 429.468 218.548 426.348 226.084 427.788C226.468 427.884 226.804 427.932 227.092 428.028V424.812C227.092 421.02 224.788 419.244 222.052 419.244C218.932 419.244 215.188 422.364 213.556 424.572H213.412V419.724C216.436 418.38 219.604 417.708 222.196 417.708C227.14 417.708 230.5 420.156 230.5 424.764V437.676C230.5 439.836 231.844 440.412 233.572 439.932L233.62 440.076C232.9 441.18 231.748 441.756 230.548 441.756C228.532 441.756 227.236 440.508 227.092 438.444C225.652 440.268 223.204 441.996 219.7 441.996ZM215.716 434.844C215.716 437.916 218.26 440.028 221.188 440.028C223.348 440.028 225.508 438.78 227.092 436.716V429.372L226.804 429.324C219.748 427.884 215.716 431.052 215.716 434.844ZM241.061 441.516V441.66H235.973V441.516C236.309 440.172 236.837 437.772 236.837 435.228V424.428C236.837 421.836 236.309 419.484 235.973 418.14V417.996H240.197V421.692C242.117 418.524 245.861 416.796 249.605 417.948L249.125 421.98H248.981C246.629 420.156 242.933 419.676 240.197 422.94V435.228C240.197 437.772 240.725 440.172 241.061 441.516ZM261.463 441.996C255.463 441.996 250.663 437.244 250.663 429.804C250.663 422.508 255.271 417.708 261.319 417.708C267.079 417.708 271.063 422.124 271.063 428.94H254.407V429.228C254.407 435.132 257.479 439.5 262.807 439.5C265.543 439.5 268.231 438.348 271.015 435.468L271.159 435.564C269.383 439.5 265.783 441.996 261.463 441.996ZM261.271 419.148C257.143 419.148 254.839 422.796 254.455 427.644L267.367 427.26C267.127 422.268 265.015 419.148 261.271 419.148ZM294.224 434.46C292.688 434.46 291.2 434.124 289.808 433.5C288.56 433.836 287.6 434.748 287.6 435.948C287.6 437.868 289.808 438.156 291.584 438.156H299.36C303.248 438.156 306.08 440.316 306.08 444.252C306.08 450.444 298.64 451.26 294.848 451.26C290.672 451.26 284.624 450.108 284.624 445.452C284.624 443.58 285.584 441.9 287.216 440.796C285.776 440.076 285.2 438.828 285.2 437.34C285.2 434.892 286.688 433.452 288.656 432.828C286.496 431.388 285.008 429.084 285.008 426.06C285.008 420.876 289.52 417.708 294.224 417.708C296.096 417.708 297.968 418.188 299.552 419.1C300.944 416.892 303.296 416.076 305.936 416.46L305.312 419.532L305.216 419.628C303.68 418.764 301.952 418.668 300.128 419.532C302.192 420.972 303.584 423.18 303.584 426.06C303.584 431.292 298.928 434.46 294.224 434.46ZM294.224 433.02C297.488 433.02 299.984 430.524 299.984 426.06C299.984 421.596 297.488 419.1 294.224 419.1C291.008 419.1 288.56 421.596 288.56 426.06C288.56 430.524 291.008 433.02 294.224 433.02ZM287.312 444.492C287.312 447.756 290.336 449.772 295.328 449.772C300.656 449.772 303.2 447.468 303.2 445.02C303.2 443.244 302.048 441.564 299.36 441.564H291.152C290.096 441.564 289.232 441.468 288.464 441.276C287.648 442.188 287.312 443.388 287.312 444.492ZM317.913 441.996C311.913 441.996 307.113 437.244 307.113 429.804C307.113 422.508 311.721 417.708 317.769 417.708C323.529 417.708 327.513 422.124 327.513 428.94H310.857V429.228C310.857 435.132 313.929 439.5 319.257 439.5C321.993 439.5 324.681 438.348 327.465 435.468L327.609 435.564C325.833 439.5 322.233 441.996 317.913 441.996ZM317.721 419.148C313.593 419.148 311.289 422.796 310.905 427.644L323.817 427.26C323.577 422.268 321.465 419.148 317.721 419.148ZM337.857 441.996C334.353 441.996 332.529 439.404 332.529 435.804V419.58H329.025V418.524C332.913 417.66 334.353 414.924 335.265 411.708H335.937V417.996H342.705V419.58H335.937V435.324C335.937 438.108 337.233 439.548 339.585 439.548C340.689 439.548 342.465 439.26 344.289 437.916C343.041 440.364 340.641 441.996 337.857 441.996ZM354.017 441.996C350.513 441.996 348.689 439.404 348.689 435.804V419.58H345.185V418.524C349.073 417.66 350.513 414.924 351.425 411.708H352.097V417.996H358.865V419.58H352.097V435.324C352.097 438.108 353.393 439.548 355.745 439.548C356.849 439.548 358.625 439.26 360.449 437.916C359.201 440.364 356.801 441.996 354.017 441.996ZM365.618 411.612C364.178 411.612 362.93 410.46 362.93 409.02C362.93 407.58 364.13 406.428 365.618 406.428C367.058 406.428 368.258 407.58 368.258 409.02C368.258 410.46 367.058 411.612 365.618 411.612ZM368.258 441.516V441.66H363.218V441.516C363.506 440.172 364.034 437.772 364.034 435.228L364.082 424.428C364.082 421.836 363.554 419.484 363.218 418.14V417.996H367.394V435.228C367.394 437.772 367.922 440.172 368.258 441.516ZM377.612 441.516V441.66H372.524V441.516C372.86 440.172 373.388 437.772 373.388 435.228V424.428C373.388 421.836 372.86 419.484 372.524 418.14V417.996H376.748V421.98C379.148 418.956 381.788 417.708 384.572 417.708C388.364 417.708 392.348 419.772 392.348 425.916V435.228C392.348 437.772 392.876 440.172 393.212 441.516V441.66H388.124V441.516C388.46 440.172 388.988 437.772 388.988 435.228V426.252C388.988 421.98 386.348 420.108 383.42 420.108C381.116 420.06 378.908 421.26 376.748 423.468V435.228C376.748 437.772 377.276 440.172 377.612 441.516ZM405.673 434.46C404.137 434.46 402.649 434.124 401.257 433.5C400.009 433.836 399.049 434.748 399.049 435.948C399.049 437.868 401.257 438.156 403.033 438.156H410.809C414.697 438.156 417.529 440.316 417.529 444.252C417.529 450.444 410.089 451.26 406.297 451.26C402.121 451.26 396.073 450.108 396.073 445.452C396.073 443.58 397.033 441.9 398.665 440.796C397.225 440.076 396.649 438.828 396.649 437.34C396.649 434.892 398.137 433.452 400.105 432.828C397.945 431.388 396.457 429.084 396.457 426.06C396.457 420.876 400.969 417.708 405.673 417.708C407.545 417.708 409.417 418.188 411.001 419.1C412.393 416.892 414.745 416.076 417.385 416.46L416.761 419.532L416.665 419.628C415.129 418.764 413.401 418.668 411.577 419.532C413.641 420.972 415.033 423.18 415.033 426.06C415.033 431.292 410.377 434.46 405.673 434.46ZM405.673 433.02C408.937 433.02 411.433 430.524 411.433 426.06C411.433 421.596 408.937 419.1 405.673 419.1C402.457 419.1 400.009 421.596 400.009 426.06C400.009 430.524 402.457 433.02 405.673 433.02ZM398.761 444.492C398.761 447.756 401.785 449.772 406.777 449.772C412.105 449.772 414.649 447.468 414.649 445.02C414.649 443.244 413.497 441.564 410.809 441.564H402.601C401.545 441.564 400.681 441.468 399.913 441.276C399.097 442.188 398.761 443.388 398.761 444.492ZM435.749 441.516V441.66H430.709V441.516C431.045 440.172 431.573 437.772 431.573 435.228V424.428C431.573 421.836 431.045 419.484 430.709 418.14V417.996H434.933V421.116C437.045 418.668 439.061 417.708 441.461 417.708C444.005 417.708 446.789 418.812 448.037 421.932C450.437 418.908 452.645 417.708 455.237 417.708C458.693 417.708 462.581 419.772 462.581 425.916V435.228C462.581 437.772 463.109 440.172 463.397 441.516V441.66H458.357V441.516C458.693 440.172 459.221 437.772 459.221 435.228V426.252C459.221 421.98 456.581 420.108 453.941 420.108C452.069 420.108 450.389 421.164 448.421 423.084C448.661 423.9 448.757 424.86 448.757 425.916V435.228C448.757 437.772 449.285 440.172 449.621 441.516V441.66H444.533V441.516C444.869 440.172 445.397 437.772 445.397 435.228V426.252C445.397 421.98 442.757 420.108 440.117 420.108C438.341 420.108 436.661 421.02 434.933 422.7V435.228C434.933 437.772 435.461 440.172 435.749 441.516ZM474.085 441.996C469.237 441.996 466.453 438.732 466.453 435.036C466.453 429.468 472.933 426.348 480.469 427.788C480.853 427.884 481.189 427.932 481.477 428.028V424.812C481.477 421.02 479.173 419.244 476.437 419.244C473.317 419.244 469.573 422.364 467.941 424.572H467.797V419.724C470.821 418.38 473.989 417.708 476.581 417.708C481.525 417.708 484.885 420.156 484.885 424.764V437.676C484.885 439.836 486.229 440.412 487.957 439.932L488.005 440.076C487.285 441.18 486.133 441.756 484.933 441.756C482.917 441.756 481.621 440.508 481.477 438.444C480.037 440.268 477.589 441.996 474.085 441.996ZM470.101 434.844C470.101 437.916 472.645 440.028 475.573 440.028C477.733 440.028 479.893 438.78 481.477 436.716V429.372L481.189 429.324C474.133 427.884 470.101 431.052 470.101 434.844ZM495.446 441.516V441.66H490.358V441.516C490.694 440.172 491.222 437.772 491.222 435.228V424.428C491.222 421.836 490.694 419.484 490.358 418.14V417.996H494.582V421.692C496.502 418.524 500.246 416.796 503.99 417.948L503.51 421.98H503.366C501.014 420.156 497.318 419.676 494.582 422.94V435.228C494.582 437.772 495.11 440.172 495.446 441.516ZM511.982 441.516V441.66H506.894V441.516C507.23 440.172 507.758 437.772 507.758 435.228V424.428C507.758 421.836 507.23 419.484 506.894 418.14V417.996H511.118V421.692C513.038 418.524 516.782 416.796 520.526 417.948L520.046 421.98H519.902C517.55 420.156 513.854 419.676 511.118 422.94V435.228C511.118 437.772 511.646 440.172 511.982 441.516ZM526.262 411.612C524.822 411.612 523.574 410.46 523.574 409.02C523.574 407.58 524.774 406.428 526.262 406.428C527.702 406.428 528.903 407.58 528.903 409.02C528.903 410.46 527.702 411.612 526.262 411.612ZM528.903 441.516V441.66H523.862V441.516C524.15 440.172 524.678 437.772 524.678 435.228L524.726 424.428C524.726 421.836 524.198 419.484 523.862 418.14V417.996H528.038V435.228C528.038 437.772 528.567 440.172 528.903 441.516ZM543.2 441.996C537.2 441.996 532.4 437.244 532.4 429.804C532.4 422.508 537.008 417.708 543.056 417.708C548.816 417.708 552.8 422.124 552.8 428.94H536.144V429.228C536.144 435.132 539.216 439.5 544.544 439.5C547.28 439.5 549.968 438.348 552.752 435.468L552.896 435.564C551.12 439.5 547.52 441.996 543.2 441.996ZM543.008 419.148C538.88 419.148 536.576 422.796 536.192 427.644L549.104 427.26C548.864 422.268 546.752 419.148 543.008 419.148ZM573.686 441.66C573.446 440.412 573.062 439.452 572.87 437.82C570.902 440.7 568.262 441.996 565.334 441.996C560.006 441.996 555.878 437.676 555.878 430.188C555.878 421.884 560.822 417.708 566.102 417.708C568.742 417.708 571.046 418.812 572.726 420.924V413.1C572.726 410.556 572.15 408.252 571.574 406.956L571.526 406.812L572.534 406.668L576.182 406.044V435.228C576.182 437.772 576.71 440.172 576.998 441.516V441.66H573.686ZM559.622 429.852C559.622 435.276 561.83 439.98 566.39 439.98C569.03 439.98 571.094 438.396 572.726 436.14C572.726 435.948 572.726 435.66 572.726 435.42V422.7C571.382 421.02 569.414 419.676 566.918 419.676C562.55 419.676 559.622 423.66 559.622 429.852ZM583.887 431.484C583.263 423.372 582.111 415.212 581.967 407.1H586.863C586.623 415.212 585.519 423.372 584.799 431.484H583.887ZM584.367 441.996C582.831 441.996 581.535 440.748 581.535 439.212C581.535 437.676 582.831 436.428 584.367 436.428C585.903 436.428 587.199 437.676 587.199 439.212C587.199 440.748 585.903 441.996 584.367 441.996Z" fill="#EEEEEE"/>
</svg>
