<svg width="801" height="452" viewBox="0 0 801 452" fill="none" xmlns="http://www.w3.org/2000/svg">
<path d="M310.912 14.66V0.200033H315.152L318.462 10.51L321.802 0.200033H326.032V14.66H323.082V3.60003L319.602 14.66H317.312L313.852 3.65003V14.66H310.912ZM335.281 14.86C333.915 14.86 332.731 14.5634 331.731 13.97C330.738 13.37 329.968 12.52 329.421 11.42C328.881 10.3134 328.611 8.99337 328.611 7.46003C328.611 5.92003 328.885 4.59337 329.431 3.48003C329.985 2.3667 330.761 1.51003 331.761 0.910033C332.761 0.303367 333.935 3.33786e-05 335.281 3.33786e-05C336.621 3.33786e-05 337.788 0.300033 338.781 0.900034C339.775 1.50003 340.541 2.3567 341.081 3.47003C341.628 4.58337 341.901 5.91337 341.901 7.46003C341.901 8.9867 341.631 10.3034 341.091 11.41C340.558 12.5167 339.795 13.37 338.801 13.97C337.808 14.5634 336.635 14.86 335.281 14.86ZM335.281 12.46C335.988 12.46 336.598 12.2934 337.111 11.96C337.631 11.62 338.031 11.0867 338.311 10.36C338.591 9.6267 338.731 8.67337 338.731 7.50003C338.731 6.29337 338.588 5.3167 338.301 4.57003C338.021 3.82337 337.621 3.2767 337.101 2.93003C336.588 2.5767 335.981 2.40003 335.281 2.40003C334.581 2.40003 333.971 2.5767 333.451 2.93003C332.931 3.2767 332.528 3.8267 332.241 4.58003C331.955 5.3267 331.811 6.30003 331.811 7.50003C331.811 8.68003 331.955 9.63337 332.241 10.36C332.528 11.0867 332.931 11.62 333.451 11.96C333.971 12.2934 334.581 12.46 335.281 12.46ZM344.486 14.66V0.200033H347.376L353.976 9.77003V0.200033H356.896V14.66H354.266L347.396 4.71003V14.66H344.486ZM363.261 14.66V2.80003H358.891V0.200033H370.461V2.80003H366.191V14.66H363.261ZM372.455 14.66V0.200033H375.365V6.00003H381.695V0.200033H384.615V14.66H381.695V8.45003H375.365V14.66H372.455ZM392.357 14.66V0.200033C392.431 0.200033 392.634 0.200033 392.967 0.200033C393.307 0.200033 393.704 0.200033 394.157 0.200033C394.617 0.200033 395.074 0.203367 395.527 0.210034C395.987 0.210034 396.371 0.213367 396.677 0.220033C398.431 0.260033 399.861 0.573367 400.967 1.16003C402.074 1.7467 402.884 2.5667 403.397 3.62003C403.917 4.67337 404.177 5.92003 404.177 7.36003C404.177 8.86003 403.904 10.1567 403.357 11.25C402.811 12.3367 401.974 13.1767 400.847 13.77C399.727 14.3634 398.304 14.66 396.577 14.66H392.357ZM395.297 12.3H396.637C397.464 12.3 398.214 12.14 398.887 11.82C399.567 11.5 400.111 10.9767 400.517 10.25C400.924 9.52337 401.127 8.55337 401.127 7.34003C401.127 6.21337 400.947 5.30003 400.587 4.60003C400.227 3.89337 399.714 3.3767 399.047 3.05003C398.381 2.72337 397.591 2.56003 396.677 2.56003H395.297V12.3ZM405.037 14.66L410.207 0.200033H413.297L418.467 14.66H415.557L414.377 11.31H409.167L407.967 14.66H405.037ZM409.827 8.76003H413.667L411.757 3.01003L409.827 8.76003ZM422.49 14.66V8.57003L417.47 0.200033H420.63L423.96 6.06003L427.25 0.200033H430.44L425.41 8.58003V14.66H422.49ZM429.646 17.46L430.806 14.74L429.786 14.65V11.82H432.736V14.31L430.726 17.46H429.646ZM443.916 14.66V8.57003L438.896 0.200033H442.056L445.386 6.06003L448.676 0.200033H451.866L446.836 8.58003V14.66H443.916ZM453.685 14.66V0.200033H463.615L463.605 2.66003H456.615V6.17003H462.685V8.58003H456.595V12.17L463.715 12.18V14.66H453.685ZM465.369 14.66L470.539 0.200033H473.629L478.799 14.66H475.889L474.709 11.31H469.499L468.299 14.66H465.369ZM470.159 8.76003H473.999L472.089 3.01003L470.159 8.76003ZM480.971 14.66V0.200033H487.071C488.224 0.200033 489.167 0.383367 489.901 0.750034C490.634 1.1167 491.174 1.6267 491.521 2.28003C491.867 2.9267 492.041 3.67337 492.041 4.52003C492.041 5.28003 491.921 5.92337 491.681 6.45003C491.447 6.97003 491.137 7.40337 490.751 7.75003C490.371 8.0967 489.954 8.38003 489.501 8.60003L492.191 14.66H489.161L486.811 9.09003H483.881V14.66H480.971ZM483.881 6.84003H486.551C487.331 6.84003 487.947 6.63003 488.401 6.21003C488.861 5.79003 489.091 5.25003 489.091 4.59003C489.091 3.92337 488.871 3.3967 488.431 3.01003C487.991 2.62337 487.434 2.43003 486.761 2.43003H483.881V6.84003Z" fill="#EEEEEE"/>
<path d="M5.15999 227.492C19.24 221.092 28.456 212.516 36.776 181.284L51.112 127.652C52.904 120.868 53.288 114.468 53.416 110.884L53.544 110.5H67.112V110.884C65.32 114.468 62.248 120.868 60.456 127.652L45.736 182.436C35.624 219.556 18.728 226.084 5.15999 227.492ZM79.031 204.196C64.695 203.94 56.119 190.628 61.495 170.404C66.615 150.82 81.079 138.532 95.415 138.788C109.751 139.044 118.199 151.844 113.079 171.428C107.703 191.652 93.239 204.452 79.031 204.196ZM80.183 200.356C90.295 200.612 98.999 187.556 103.351 171.3C107.447 155.812 104.503 142.756 94.263 142.5C84.023 142.244 75.191 155.044 71.095 170.66C66.743 186.66 69.687 200.1 80.183 200.356ZM139.245 203.556C125.933 203.556 115.949 190.628 122.349 168.996C127.597 151.076 141.421 138.788 156.269 138.788C166.125 138.788 174.317 144.036 172.653 152.996C170.605 163.236 156.269 173.732 130.541 171.684C126.957 186.788 132.077 197.028 142.829 197.028C149.741 197.028 160.621 193.06 169.197 177.188L170.093 178.468C162.541 196.004 149.485 203.556 139.245 203.556ZM131.565 167.844C131.437 168.1 131.309 168.484 131.309 168.74C152.813 168.996 161.645 161.7 163.565 153.764C165.229 147.108 161.645 142.5 155.629 142.5C144.621 142.5 135.149 156.452 131.565 167.844ZM179.614 227.108C174.238 227.62 167.454 226.724 162.078 221.732L167.838 211.876H168.222C171.166 218.916 176.67 221.732 182.43 221.604C186.91 221.604 191.646 219.684 196.254 216.484C197.406 191.268 197.406 171.556 196.638 157.092C196.126 147.364 193.694 145.188 191.134 145.188C186.654 145.188 182.558 151.972 177.182 159.652L176.542 158.628C180.894 149.54 186.91 138.788 195.23 138.788C199.838 138.788 203.934 141.988 204.702 153.508C205.47 166.18 205.47 184.868 204.574 208.932C216.222 196.26 225.566 176.036 226.718 158.884C227.102 153.252 226.846 147.492 225.438 142.116L237.47 138.66C236.318 174.372 209.95 225.188 179.614 227.108ZM296.942 205.732C283.502 206.884 274.158 201.124 266.862 196.516L271.598 183.588H271.982C276.078 192.932 285.294 202.148 298.862 200.868C308.334 199.972 316.782 194.852 319.598 185.892C322.798 175.268 317.422 166.052 304.238 158.756C290.414 151.204 283.246 141.732 288.878 127.908C293.87 115.748 305.774 108.836 319.342 107.556C332.014 106.276 341.23 110.884 347.118 114.724L342.894 127.14H342.51C338.542 119.204 329.838 111.012 317.422 112.164C308.846 113.188 300.654 118.308 297.07 126.628C292.462 138.148 300.142 144.932 310.51 150.692C323.054 157.732 333.038 167.46 327.918 183.844C323.95 196.644 312.686 204.452 296.942 205.732ZM347.457 203.428C338.753 203.428 333.505 195.876 337.729 180.516L344.257 156.964C346.177 150.052 346.689 143.268 346.177 139.94V139.556H357.825L346.817 179.62C343.745 190.5 345.793 197.028 351.809 197.028C362.049 197.028 372.161 178.34 377.793 161.06L378.945 156.964C380.865 150.052 381.505 143.268 380.993 139.94V139.556H392.641L381.249 180.516C378.049 192.548 380.737 198.052 386.881 198.052C398.785 198.052 414.401 178.98 412.993 153.252C412.737 148.26 411.713 145.188 410.817 142.244L422.849 138.66C422.849 141.988 422.337 146.084 421.569 149.924C417.089 186.02 397.249 203.428 382.785 203.428C374.721 203.428 367.937 197.796 372.417 181.668L372.545 181.028C366.145 192.932 357.697 203.428 347.457 203.428ZM442.97 203.556C429.658 203.556 419.674 190.628 426.074 168.996C431.322 151.076 445.146 138.788 459.994 138.788C469.85 138.788 478.042 144.036 476.378 152.996C474.33 163.236 459.994 173.732 434.266 171.684C430.682 186.788 435.802 197.028 446.554 197.028C453.466 197.028 464.346 193.06 472.922 177.188L473.818 178.468C466.266 196.004 453.21 203.556 442.97 203.556ZM435.29 167.844C435.162 168.1 435.034 168.484 435.034 168.74C456.538 168.996 465.37 161.7 467.29 153.764C468.954 147.108 465.37 142.5 459.354 142.5C448.346 142.5 438.874 156.452 435.29 167.844ZM500.69 203.556C487.378 203.556 477.394 190.628 483.794 168.996C489.042 151.076 502.866 138.788 517.714 138.788C527.57 138.788 535.762 144.036 534.098 152.996C532.05 163.236 517.714 173.732 491.986 171.684C488.402 186.788 493.522 197.028 504.274 197.028C511.186 197.028 522.066 193.06 530.642 177.188L531.538 178.468C523.986 196.004 510.93 203.556 500.69 203.556ZM493.01 167.844C492.882 168.1 492.754 168.484 492.754 168.74C514.258 168.996 523.09 161.7 525.01 153.764C526.674 147.108 523.09 142.5 517.074 142.5C506.066 142.5 496.594 156.452 493.01 167.844ZM533.748 202.66L546.292 156.964C548.084 150.052 548.596 143.268 548.084 139.94V139.556H559.348L553.204 162.852C559.988 150.18 569.844 138.788 581.748 138.788C590.068 138.788 597.748 144.292 593.396 160.548L584.564 193.444C582.772 199.972 593.14 193.572 601.46 179.236L602.356 180.26C596.724 193.06 588.404 203.556 581.492 203.556C577.652 203.556 573.812 200.996 576.244 191.908L584.436 161.572C587.764 149.54 583.54 145.06 577.908 145.06C565.876 145.06 553.46 165.284 547.828 183.076L542.58 202.66H533.748ZM626.755 203.556C613.443 203.556 603.459 190.628 609.859 168.996C615.107 151.076 628.931 138.788 643.779 138.788C653.635 138.788 661.827 144.036 660.163 152.996C658.115 163.236 643.779 173.732 618.051 171.684C614.467 186.788 619.587 197.028 630.339 197.028C637.251 197.028 648.131 193.06 656.707 177.188L657.603 178.468C650.051 196.004 636.995 203.556 626.755 203.556ZM619.075 167.844C618.947 168.1 618.819 168.484 618.819 168.74C640.323 168.996 649.155 161.7 651.075 153.764C652.739 147.108 649.155 142.5 643.139 142.5C632.131 142.5 622.659 156.452 619.075 167.844ZM659.429 202.66L671.717 156.708C673.509 149.796 673.893 143.524 674.021 139.94L674.149 139.556H684.773L679.013 161.316C685.413 148.004 696.037 134.436 708.581 140.196L704.997 150.052H704.613C702.565 148.388 700.389 147.62 697.957 147.748C688.101 148.132 679.013 164.644 674.149 180.132L668.261 202.66H659.429Z" fill="#EEEEEE"/>
<path d="M728.392 202.98C727.379 202.98 726.515 202.793 725.8 202.42C725.096 202.036 724.579 201.492 724.248 200.788C723.928 200.084 723.832 199.236 723.96 198.244C724.227 196.409 725.016 195.049 726.328 194.164C727.64 193.279 729.619 192.799 732.264 192.724L735.224 192.628L735.432 191.252C735.592 190.121 735.368 189.247 734.76 188.628C734.163 188.009 733.299 187.705 732.168 187.716C731.24 187.716 730.371 187.967 729.56 188.468C728.749 188.969 728.184 189.716 727.864 190.708H725.672C725.864 189.801 726.264 188.975 726.872 188.228C727.491 187.481 728.28 186.889 729.24 186.452C730.211 186.015 731.32 185.796 732.568 185.796C733.848 185.796 734.904 186.015 735.736 186.452C736.568 186.889 737.155 187.508 737.496 188.308C737.848 189.097 737.944 190.041 737.784 191.14L736.136 202.66H734.056L734.312 199.604C733.501 200.916 732.589 201.807 731.576 202.276C730.563 202.745 729.501 202.98 728.392 202.98ZM729.336 201.108C729.88 201.108 730.44 201.001 731.016 200.788C731.603 200.575 732.147 200.281 732.648 199.908C733.16 199.535 733.587 199.119 733.928 198.66C734.28 198.201 734.488 197.732 734.552 197.252L734.968 194.308L732.536 194.356C731.235 194.377 730.147 194.516 729.272 194.772C728.408 195.028 727.736 195.423 727.256 195.956C726.787 196.479 726.488 197.167 726.36 198.02C726.232 198.991 726.445 199.748 727 200.292C727.555 200.836 728.333 201.108 729.336 201.108ZM740.724 202.66L743.092 186.116H745.396L745.108 188.452C745.449 187.972 745.87 187.54 746.372 187.156C746.884 186.761 747.476 186.447 748.148 186.212C748.82 185.977 749.572 185.86 750.404 185.86C751.417 185.86 752.302 186.084 753.06 186.532C753.817 186.98 754.372 187.647 754.724 188.532C755.086 189.417 755.172 190.516 754.98 191.828L753.428 202.66H751.012L752.548 192.036C752.74 190.713 752.553 189.705 751.988 189.012C751.422 188.308 750.601 187.956 749.524 187.956C748.766 187.956 748.041 188.084 747.348 188.34C746.665 188.596 746.084 188.98 745.604 189.492C745.134 190.004 744.846 190.649 744.74 191.428L743.124 202.66H740.724ZM763.597 202.98C761.581 202.98 760.077 202.255 759.085 200.804C758.093 199.343 757.784 197.183 758.157 194.324C758.499 191.753 759.309 189.689 760.589 188.132C761.869 186.575 763.576 185.796 765.709 185.796C766.499 185.796 767.176 185.908 767.741 186.132C768.317 186.345 768.792 186.617 769.165 186.948C769.549 187.279 769.848 187.615 770.061 187.956C770.285 188.297 770.44 188.591 770.525 188.836L771.853 178.884H774.301L771.133 202.66H769.245L769.437 199.268C769.32 199.556 769.123 199.908 768.845 200.324C768.579 200.74 768.216 201.151 767.757 201.556C767.299 201.961 766.728 202.303 766.045 202.58C765.363 202.847 764.547 202.98 763.597 202.98ZM764.253 200.996C765.939 200.996 767.208 200.463 768.061 199.396C768.915 198.319 769.501 196.575 769.821 194.164C769.981 192.831 769.971 191.689 769.789 190.74C769.608 189.791 769.219 189.065 768.621 188.564C768.024 188.052 767.171 187.796 766.061 187.796C764.696 187.796 763.523 188.308 762.541 189.332C761.56 190.356 760.925 191.967 760.637 194.164C760.36 196.297 760.52 197.972 761.117 199.188C761.715 200.393 762.76 200.996 764.253 200.996Z" fill="#EEEEEE"/>
<path d="M-7.86781e-06 342.788L0.127992 342.148C2.81599 337.54 7.80799 328.964 10.368 319.62L24.576 267.78C26.368 260.996 26.24 254.596 25.984 251.012L26.112 250.628H38.784L46.208 332.164L98.944 250.5H111.232L111.104 250.884C109.312 254.468 106.24 260.868 104.32 267.652L88.448 325.508C86.528 332.292 86.272 338.692 86.016 342.276V342.66H72.064L72.192 342.276C73.984 338.692 77.056 332.292 78.976 325.508L96.128 263.044L44.672 342.66H37.76L30.592 262.916L15.104 319.62C12.544 328.964 12.672 337.54 12.8 342.148L12.672 342.788H-7.86781e-06ZM121.775 343.556C108.463 343.556 98.479 330.628 104.879 308.996C110.127 291.076 123.951 278.788 138.799 278.788C148.655 278.788 156.847 284.036 155.183 292.996C153.135 303.236 138.799 313.732 113.071 311.684C109.487 326.788 114.607 337.028 125.359 337.028C132.271 337.028 143.151 333.06 151.727 317.188L152.623 318.468C145.071 336.004 132.015 343.556 121.775 343.556ZM114.095 307.844C113.967 308.1 113.839 308.484 113.839 308.74C135.343 308.996 144.175 301.7 146.095 293.764C147.759 287.108 144.175 282.5 138.159 282.5C127.151 282.5 117.679 296.452 114.095 307.844ZM171.449 366.98L172.601 362.244C184.761 364.036 194.745 360.324 196.665 353.028C198.201 347.524 193.593 345.476 184.633 345.476H169.657C158.265 345.476 153.017 342.66 154.937 335.492C156.857 328.58 163.001 324.868 169.273 322.564C163.641 318.596 160.697 311.684 163.257 302.34C167.225 287.62 181.945 278.66 194.617 278.66C199.609 278.66 204.217 280.068 207.673 282.628C213.177 276.356 219.705 274.052 226.617 275.076L222.777 283.908L222.393 284.036C219.065 281.732 214.585 281.476 209.081 283.78C213.561 287.876 215.737 294.148 213.561 302.34C209.593 317.316 194.361 326.148 181.817 326.148C178.105 326.148 174.777 325.38 171.833 323.972C167.865 325.764 163.513 328.452 162.745 331.652C161.593 336.004 168.377 336.9 174.393 336.9H188.729C200.377 336.9 205.241 341.892 202.937 350.596C199.993 361.988 187.065 368.26 171.449 366.98ZM182.969 322.052C191.801 322.052 200.249 314.884 203.705 302.34C207.033 289.796 202.425 282.628 193.593 282.628C184.633 282.628 176.569 289.796 173.113 302.34C169.657 314.884 174.137 322.052 182.969 322.052ZM229.663 343.556C219.295 343.556 212.511 331.78 220.191 310.148C228.511 286.852 242.975 278.788 252.703 278.788C259.359 278.788 263.455 282.244 264.607 287.492C267.935 285.06 270.751 282.5 272.927 279.556H274.975L260.511 332.932C258.591 340.484 268.959 333.572 277.407 319.236L278.175 320.26C272.543 333.06 264.223 343.556 257.055 343.556C253.471 343.556 249.759 341.124 252.191 331.908L254.495 323.46C247.071 336.132 237.599 343.556 229.663 343.556ZM229.663 309.252C223.775 325.764 226.079 337.028 234.143 337.028C242.591 337.028 253.215 324.228 258.847 307.076L262.175 294.532C262.687 289.412 260.895 283.268 254.367 283.14C246.047 282.884 235.679 292.356 229.663 309.252ZM279.523 342.66L292.067 296.964C293.859 290.052 294.371 283.268 293.859 279.94V279.556H305.123L298.979 302.852C305.763 290.18 315.619 278.788 327.523 278.788C335.843 278.788 343.523 284.292 339.171 300.548L330.339 333.444C328.547 339.972 338.915 333.572 347.235 319.236L348.131 320.26C342.499 333.06 334.179 343.556 327.267 343.556C323.427 343.556 319.587 340.996 322.019 331.908L330.211 301.572C333.539 289.54 329.315 285.06 323.683 285.06C311.651 285.06 299.235 305.284 293.603 323.076L288.355 342.66H279.523ZM381.945 342.66L382.073 342.276C383.993 338.692 386.937 332.292 388.857 325.508L404.217 267.652C406.137 260.868 406.393 254.468 406.521 250.884L406.649 250.5H420.601V250.884C418.681 254.468 415.609 260.868 413.817 267.652L394.873 338.436H415.353C423.289 338.436 432.633 331.524 437.625 328.068H438.137L434.297 342.66H381.945ZM457.543 343.556C447.175 343.556 440.391 331.78 448.071 310.148C456.391 286.852 470.855 278.788 480.583 278.788C487.239 278.788 491.335 282.244 492.487 287.492C495.815 285.06 498.631 282.5 500.807 279.556H502.855L488.391 332.932C486.471 340.484 496.839 333.572 505.287 319.236L506.055 320.26C500.423 333.06 492.103 343.556 484.935 343.556C481.351 343.556 477.639 341.124 480.071 331.908L482.375 323.46C474.951 336.132 465.479 343.556 457.543 343.556ZM457.543 309.252C451.655 325.764 453.959 337.028 462.023 337.028C470.471 337.028 481.095 324.228 486.727 307.076L490.055 294.532C490.567 289.412 488.775 283.268 482.247 283.14C473.927 282.884 463.559 292.356 457.543 309.252ZM505.983 342.788C508.159 338.564 510.847 332.292 512.639 325.508L527.999 267.908C529.919 260.868 530.303 255.108 530.431 250.884L530.559 250.5H541.439L528.639 298.372C535.807 285.956 545.151 278.788 553.087 278.788C563.327 278.788 570.239 290.436 562.559 312.196C554.367 335.364 539.263 343.556 528.767 343.556C524.287 343.556 520.447 342.02 517.887 338.436L506.879 342.788H505.983ZM548.607 285.188C540.543 285.188 530.559 296.836 524.799 312.836L519.039 334.34C521.087 337.924 523.903 339.204 527.359 339.204C536.319 339.204 547.071 330.116 553.087 312.964C559.103 296.452 556.543 285.188 548.607 285.188ZM589.541 344.196C575.205 343.94 566.629 330.628 572.005 310.404C577.125 290.82 591.589 278.532 605.925 278.788C620.261 279.044 628.709 291.844 623.589 311.428C618.213 331.652 603.749 344.452 589.541 344.196ZM590.693 340.356C600.805 340.612 609.509 327.556 613.861 311.3C617.957 295.812 615.013 282.756 604.773 282.5C594.533 282.244 585.701 295.044 581.605 310.66C577.253 326.66 580.197 340.1 590.693 340.356ZM646.978 344.196C638.914 344.324 630.722 341.764 625.09 337.412L629.186 325.764L629.57 325.636C631.874 332.804 638.274 339.844 646.978 340.1C652.226 340.356 658.242 338.436 660.674 332.292C663.618 324.612 657.09 318.852 649.026 313.604C642.242 309.124 632.514 302.34 636.226 291.716C639.042 283.524 647.106 279.044 657.474 278.788C665.41 278.404 672.45 280.708 677.57 283.524L673.73 294.788L673.218 294.916C671.042 287.364 664.77 282.244 656.45 282.628C651.074 282.884 645.954 285.06 644.034 290.18C641.218 297.476 649.282 302.468 655.426 306.692C665.922 313.86 671.682 320.644 668.61 329.988C665.666 339.332 657.602 344.068 646.978 344.196ZM672.89 342.66L673.018 342.276C674.81 338.692 677.882 332.292 679.674 325.508L695.418 266.5C697.21 259.716 697.21 253.572 697.21 250.116V249.732L709.114 247.684L688.378 325.508C686.586 332.292 686.074 338.692 685.946 342.276L685.818 342.66H672.89ZM718.074 343.556C712.57 343.556 710.394 337.54 704.89 326.788L695.29 308.1V307.972L712.186 295.428C719.994 289.668 723.578 284.676 722.81 280.068L722.938 279.556H739.194L739.066 280.068L703.866 306.308L715.386 329.22C718.074 334.468 719.354 336.26 721.274 336.26C725.114 336.516 729.466 330.244 735.994 320.388L736.762 321.412C732.154 332.676 725.37 343.556 718.074 343.556ZM742.469 367.108C737.093 367.62 730.309 366.724 724.933 361.732L730.693 351.876H731.077C734.021 358.916 739.525 361.732 745.285 361.604C749.765 361.604 754.501 359.684 759.109 356.484C760.261 331.268 760.261 311.556 759.493 297.092C758.981 287.364 756.549 285.188 753.989 285.188C749.509 285.188 745.413 291.972 740.037 299.652L739.397 298.628C743.749 289.54 749.765 278.788 758.085 278.788C762.693 278.788 766.789 281.988 767.557 293.508C768.325 306.18 768.325 324.868 767.429 348.932C779.077 336.26 788.421 316.036 789.573 298.884C789.957 293.252 789.701 287.492 788.293 282.116L800.325 278.66C799.173 314.372 772.805 365.188 742.469 367.108Z" fill="#EEEEEE"/>
<path d="M220.2 441.996C215.352 441.996 212.568 438.732 212.568 435.036C212.568 429.468 219.048 426.348 226.584 427.788C226.968 427.884 227.304 427.932 227.592 428.028V424.812C227.592 421.02 225.288 419.244 222.552 419.244C219.432 419.244 215.688 422.364 214.056 424.572H213.912V419.724C216.936 418.38 220.104 417.708 222.696 417.708C227.64 417.708 231 420.156 231 424.764V437.676C231 439.836 232.344 440.412 234.072 439.932L234.12 440.076C233.4 441.18 232.248 441.756 231.048 441.756C229.032 441.756 227.736 440.508 227.592 438.444C226.152 440.268 223.704 441.996 220.2 441.996ZM216.216 434.844C216.216 437.916 218.76 440.028 221.688 440.028C223.848 440.028 226.008 438.78 227.592 436.716V429.372L227.304 429.324C220.248 427.884 216.216 431.052 216.216 434.844ZM241.561 441.516V441.66H236.473V441.516C236.809 440.172 237.337 437.772 237.337 435.228V424.428C237.337 421.836 236.809 419.484 236.473 418.14V417.996H240.697V421.692C242.617 418.524 246.361 416.796 250.105 417.948L249.625 421.98H249.481C247.129 420.156 243.433 419.676 240.697 422.94V435.228C240.697 437.772 241.225 440.172 241.561 441.516ZM261.963 441.996C255.963 441.996 251.163 437.244 251.163 429.804C251.163 422.508 255.771 417.708 261.819 417.708C267.579 417.708 271.563 422.124 271.563 428.94H254.907V429.228C254.907 435.132 257.979 439.5 263.307 439.5C266.043 439.5 268.731 438.348 271.515 435.468L271.659 435.564C269.883 439.5 266.283 441.996 261.963 441.996ZM261.771 419.148C257.643 419.148 255.339 422.796 254.955 427.644L267.867 427.26C267.627 422.268 265.515 419.148 261.771 419.148ZM294.868 435.468C293.428 435.468 291.988 435.18 290.692 434.652C289.348 435.324 287.908 436.332 287.908 437.532C287.908 439.164 290.692 439.5 293.092 439.5H298.708C303.316 439.5 305.764 441.372 305.764 444.636C305.764 448.908 301.396 451.26 295.108 450.78L295.06 449.004C300.004 449.676 303.556 448.284 303.556 445.548C303.556 443.484 301.54 442.716 298.036 442.716H292.132C287.62 442.716 285.268 441.66 285.268 438.972C285.268 436.38 287.332 434.988 289.54 434.124C286.9 432.636 285.028 430.044 285.028 426.54C285.028 421.02 289.876 417.66 294.868 417.66C296.836 417.66 298.804 418.188 300.436 419.148C301.924 416.796 304.276 415.932 307.108 416.316L306.484 419.628L306.388 419.676C304.852 418.812 303.028 418.716 301.108 419.58C303.316 421.116 304.852 423.468 304.852 426.54C304.852 432.156 299.812 435.468 294.868 435.468ZM294.868 433.932C298.372 433.932 300.916 431.244 300.916 426.54C300.916 421.836 298.372 419.148 294.868 419.148C291.412 419.148 288.916 421.836 288.916 426.54C288.916 431.244 291.412 433.932 294.868 433.932ZM318.554 441.996C312.554 441.996 307.754 437.244 307.754 429.804C307.754 422.508 312.362 417.708 318.41 417.708C324.17 417.708 328.154 422.124 328.154 428.94H311.498V429.228C311.498 435.132 314.57 439.5 319.898 439.5C322.634 439.5 325.322 438.348 328.106 435.468L328.25 435.564C326.474 439.5 322.874 441.996 318.554 441.996ZM318.362 419.148C314.234 419.148 311.93 422.796 311.546 427.644L324.458 427.26C324.218 422.268 322.106 419.148 318.362 419.148ZM338.497 441.996C334.993 441.996 333.169 439.404 333.169 435.804V419.58H329.665V418.524C333.553 417.66 334.993 414.924 335.905 411.708H336.577V417.996H343.345V419.58H336.577V435.324C336.577 438.108 337.873 439.548 340.225 439.548C341.329 439.548 343.105 439.26 344.929 437.916C343.681 440.364 341.281 441.996 338.497 441.996ZM354.658 441.996C351.154 441.996 349.33 439.404 349.33 435.804V419.58H345.826V418.524C349.714 417.66 351.154 414.924 352.066 411.708H352.738V417.996H359.506V419.58H352.738V435.324C352.738 438.108 354.034 439.548 356.386 439.548C357.49 439.548 359.266 439.26 361.09 437.916C359.842 440.364 357.442 441.996 354.658 441.996ZM366.259 411.612C364.819 411.612 363.571 410.46 363.571 409.02C363.571 407.58 364.771 406.428 366.259 406.428C367.699 406.428 368.899 407.58 368.899 409.02C368.899 410.46 367.699 411.612 366.259 411.612ZM368.899 441.516V441.66H363.859V441.516C364.147 440.172 364.675 437.772 364.675 435.228L364.723 424.428C364.723 421.836 364.195 419.484 363.859 418.14V417.996H368.035V435.228C368.035 437.772 368.563 440.172 368.899 441.516ZM378.252 441.516V441.66H373.164V441.516C373.5 440.172 374.028 437.772 374.028 435.228V424.428C374.028 421.836 373.5 419.484 373.164 418.14V417.996H377.388V421.98C379.788 418.956 382.428 417.708 385.212 417.708C389.004 417.708 392.988 419.772 392.988 425.916V435.228C392.988 437.772 393.516 440.172 393.852 441.516V441.66H388.764V441.516C389.1 440.172 389.628 437.772 389.628 435.228V426.252C389.628 421.98 386.988 420.108 384.06 420.108C381.756 420.06 379.548 421.26 377.388 423.468V435.228C377.388 437.772 377.916 440.172 378.252 441.516ZM406.457 435.468C405.017 435.468 403.577 435.18 402.281 434.652C400.937 435.324 399.497 436.332 399.497 437.532C399.497 439.164 402.281 439.5 404.681 439.5H410.297C414.905 439.5 417.353 441.372 417.353 444.636C417.353 448.908 412.985 451.26 406.697 450.78L406.649 449.004C411.593 449.676 415.145 448.284 415.145 445.548C415.145 443.484 413.129 442.716 409.625 442.716H403.721C399.209 442.716 396.857 441.66 396.857 438.972C396.857 436.38 398.921 434.988 401.129 434.124C398.489 432.636 396.617 430.044 396.617 426.54C396.617 421.02 401.465 417.66 406.457 417.66C408.425 417.66 410.393 418.188 412.025 419.148C413.513 416.796 415.865 415.932 418.697 416.316L418.073 419.628L417.977 419.676C416.441 418.812 414.617 418.716 412.697 419.58C414.905 421.116 416.441 423.468 416.441 426.54C416.441 432.156 411.401 435.468 406.457 435.468ZM406.457 433.932C409.961 433.932 412.505 431.244 412.505 426.54C412.505 421.836 409.961 419.148 406.457 419.148C403.001 419.148 400.505 421.836 400.505 426.54C400.505 431.244 403.001 433.932 406.457 433.932ZM436.53 441.516V441.66H431.49V441.516C431.826 440.172 432.354 437.772 432.354 435.228V424.428C432.354 421.836 431.826 419.484 431.49 418.14V417.996H435.714V421.116C437.826 418.668 439.842 417.708 442.242 417.708C444.786 417.708 447.57 418.812 448.818 421.932C451.218 418.908 453.426 417.708 456.018 417.708C459.474 417.708 463.362 419.772 463.362 425.916V435.228C463.362 437.772 463.89 440.172 464.178 441.516V441.66H459.138V441.516C459.474 440.172 460.002 437.772 460.002 435.228V426.252C460.002 421.98 457.362 420.108 454.722 420.108C452.85 420.108 451.17 421.164 449.202 423.084C449.442 423.9 449.538 424.86 449.538 425.916V435.228C449.538 437.772 450.066 440.172 450.402 441.516V441.66H445.314V441.516C445.65 440.172 446.178 437.772 446.178 435.228V426.252C446.178 421.98 443.538 420.108 440.898 420.108C439.122 420.108 437.442 421.02 435.714 422.7V435.228C435.714 437.772 436.242 440.172 436.53 441.516ZM474.866 441.996C470.018 441.996 467.234 438.732 467.234 435.036C467.234 429.468 473.714 426.348 481.25 427.788C481.634 427.884 481.97 427.932 482.258 428.028V424.812C482.258 421.02 479.954 419.244 477.218 419.244C474.098 419.244 470.354 422.364 468.722 424.572H468.578V419.724C471.602 418.38 474.77 417.708 477.362 417.708C482.306 417.708 485.666 420.156 485.666 424.764V437.676C485.666 439.836 487.01 440.412 488.738 439.932L488.786 440.076C488.066 441.18 486.914 441.756 485.714 441.756C483.698 441.756 482.402 440.508 482.258 438.444C480.818 440.268 478.37 441.996 474.866 441.996ZM470.882 434.844C470.882 437.916 473.426 440.028 476.354 440.028C478.514 440.028 480.674 438.78 482.258 436.716V429.372L481.97 429.324C474.914 427.884 470.882 431.052 470.882 434.844ZM496.227 441.516V441.66H491.139V441.516C491.475 440.172 492.003 437.772 492.003 435.228V424.428C492.003 421.836 491.475 419.484 491.139 418.14V417.996H495.363V421.692C497.283 418.524 501.027 416.796 504.771 417.948L504.291 421.98H504.147C501.795 420.156 498.099 419.676 495.363 422.94V435.228C495.363 437.772 495.891 440.172 496.227 441.516ZM512.763 441.516V441.66H507.675V441.516C508.011 440.172 508.539 437.772 508.539 435.228V424.428C508.539 421.836 508.011 419.484 507.675 418.14V417.996H511.899V421.692C513.819 418.524 517.563 416.796 521.307 417.948L520.827 421.98H520.683C518.331 420.156 514.635 419.676 511.899 422.94V435.228C511.899 437.772 512.427 440.172 512.763 441.516ZM527.044 411.612C525.604 411.612 524.356 410.46 524.356 409.02C524.356 407.58 525.556 406.428 527.044 406.428C528.484 406.428 529.684 407.58 529.684 409.02C529.684 410.46 528.484 411.612 527.044 411.612ZM529.684 441.516V441.66H524.644V441.516C524.932 440.172 525.46 437.772 525.46 435.228L525.508 424.428C525.508 421.836 524.98 419.484 524.644 418.14V417.996H528.82V435.228C528.82 437.772 529.348 440.172 529.684 441.516ZM543.981 441.996C537.981 441.996 533.181 437.244 533.181 429.804C533.181 422.508 537.789 417.708 543.837 417.708C549.597 417.708 553.581 422.124 553.581 428.94H536.925V429.228C536.925 435.132 539.997 439.5 545.325 439.5C548.061 439.5 550.749 438.348 553.533 435.468L553.677 435.564C551.901 439.5 548.301 441.996 543.981 441.996ZM543.789 419.148C539.661 419.148 537.357 422.796 536.973 427.644L549.885 427.26C549.645 422.268 547.533 419.148 543.789 419.148ZM574.467 441.66C574.227 440.412 573.843 439.452 573.651 437.82C571.683 440.7 569.043 441.996 566.115 441.996C560.787 441.996 556.659 437.676 556.659 430.188C556.659 421.884 561.603 417.708 566.883 417.708C569.523 417.708 571.827 418.812 573.507 420.924V413.1C573.507 410.556 572.931 408.252 572.355 406.956L572.307 406.812L573.315 406.668L576.963 406.044V435.228C576.963 437.772 577.491 440.172 577.779 441.516V441.66H574.467ZM560.403 429.852C560.403 435.276 562.611 439.98 567.171 439.98C569.811 439.98 571.875 438.396 573.507 436.14C573.507 435.948 573.507 435.66 573.507 435.42V422.7C572.163 421.02 570.195 419.676 567.699 419.676C563.331 419.676 560.403 423.66 560.403 429.852ZM584.668 431.484C584.044 423.372 582.892 415.212 582.748 407.1H587.644C587.404 415.212 586.3 423.372 585.58 431.484H584.668ZM585.148 441.996C583.612 441.996 582.316 440.748 582.316 439.212C582.316 437.676 583.612 436.428 585.148 436.428C586.684 436.428 587.98 437.676 587.98 439.212C587.98 440.748 586.684 441.996 585.148 441.996Z" fill="#EEEEEE"/>
</svg>
