<?xml version="1.0" encoding="UTF-8"?>
<svg id="Layer_1" xmlns="http://www.w3.org/2000/svg" version="1.1" viewBox="0 0 180 144">
  <!-- Generator: Adobe Illustrator 29.8.7, SVG Export Plug-In . SVG Version: 2.1.1 Build 1)  -->
  <defs>
    <style>
      .st0 {
        fill: #eee;
      }
    </style>
  </defs>
  <path class="st0" d="M60.2,37.7c2.4-.4,5.1-.5,7.9-.5s6.1.2,9.6.7c3.5.3,7.2.9,11.3,1.5,4.1.7,8.3,1.3,12.6,1.7,4.5.3,8.7.5,12.7.5s8.3-.2,11.4-.7c3.3-.6,5.2-1.4,5.9-2.6h.3c.8,0,1.1.5.9,1.5-.3,1.4-1,2.3-2.1,2.7-1,.3-2.1.8-3.4,1.4-7.3,7.4-13.9,15.3-19.8,23.7-5.9,8.2-11.5,16.6-16.8,25.1-3.4,5.3-6.6,10.5-9.8,15.8-3.1,5.2-6.2,10.1-9.1,14.8,2.6-1.7,6.1-4.9,10.4-9.4,4.4-4.6,9-9.9,14-16,5-6.1,9.9-12.2,14.6-18.4,4.2-5.4,8.7-10.8,13.6-16.3,4.9-5.6,9.9-10.8,15.1-15.5,5.2-4.7,10.2-8.5,15.1-11.3,5-3,9.5-4.5,13.6-4.5s5.4.7,7.9,2.1c2.5,1.3,3.8,3.8,3.8,7.7s-.4,2.7-1.1,4.3c-.7,1.6-1.8,2.6-3.2,2.9.5-.6.9-1.4,1.1-2.4.2-1.1.4-2.1.5-2.9,0-1.9-.8-3.5-2.3-4.8-1.4-1.4-3.8-2.1-7-2.1s-8.5,1.4-13.3,4.1c-4.7,2.6-9.5,6.2-14.5,10.6-4.9,4.3-9.7,9.2-14.5,14.4-4.7,5.3-9,10.4-13,15.5-4.3,5.5-8.6,11-13.1,16.5-4.4,5.4-8.6,10.3-12.7,14.8-4.1,4.3-7.7,7.8-11,10.3-3.1,2.5-5.6,3.7-7.5,3.4-.1,0-.2,0-.2-.2-.3,0-.6-.3-.8-1-.1-.3-.2-1-.2-1.9,0-3,1-6.7,2.9-11.2,1.9-4.6,4.5-9.4,7.6-14.6,3.1-5.3,6.5-10.4,9.9-15.5,3.6-5.2,6.9-9.8,10.1-13.9,3.3-4.2,5.9-7.6,8.1-10,2.3-2.6,4.9-5.3,7.6-7.9,2.8-2.6,5.6-4.9,8.4-6.7h-2.3c-2.1.1-4.6.9-7.3,2.2-2.6,1.3-5.2,2.8-7.8,4.6-2.5,1.8-4.8,3.7-6.7,5.5-2.7,2.6-5.9,6.2-9.6,10.6-3.7,4.3-7.5,9.2-11.4,14.4-4,5.2-7.8,10.4-11.6,15.8-3.8,5.4-7.7,10.8-11.9,16.3-4.1,5.5-8.3,10.6-12.8,15.3-4.5,4.6-9.1,8.3-13.9,11.2-4.7,2.9-9.6,4.3-14.6,4.3s-3.7-.3-5.5-1c-1.9-.6-3.5-1.7-4.7-3.4-1.3-1.6-2-3.8-2-6.7,0-1.6.6-3.4,1.7-5.3,1-2.1,2.3-3.1,3.8-3.1-.8,1.4-1.2,3-1.2,5,0,2.1.8,3.8,2.3,5.1,1.5,1.5,4,2.2,7.3,2.2s7.9-1.3,12.2-3.8c4.3-2.4,8.6-5.6,13-9.6,4.4-4.1,8.6-8.6,12.8-13.6,4.2-4.9,8-9.9,11.6-14.9,4.1-5.7,8.2-11.3,12.3-16.8s8.2-10.4,12-14.8c4-4.5,7.5-7.9,10.5-10.3,1-.8,2.7-2.1,5-3.9,2.4-1.8,5.5-3.5,9.3-5-3.8.1-7.7,0-11.9-.2-4.1-.3-8-.8-11.9-1.4-2.1-.3-4.3-.6-6.6-.9-2.2-.2-4.5-.3-6.9-.3-6.2,0-12,.9-17.5,2.7-5.5,1.8-9.7,5-12.7,9.6-1.7,2.7-2.6,5.4-2.6,8.1s.4,3.3,1.1,4.5c.4.5.9,1,1.4,1.5.5.5.9.7,1.2.7-.4.5-.9.7-1.5.7-.7,0-1.4-.2-2.1-.5-.6-.5-1.1-.9-1.5-1.4-1-1.3-1.8-2.7-2.3-4.3-.5-1.7-.8-3.4-.8-5,0-3.2.7-5.9,2.1-8.1,2.8-4.3,6.5-7.6,11-9.6.4-.2.9-.4,1.4-.6V0h7.6v37.7ZM161.6,44.1c-1.3,1.1-3.4,3.3-6.1,6.4-2.7,3-5.3,5.9-7.6,8.8-3.2,3.8-6.7,8.3-10.7,13.6-3.9,5.3-7.7,10.6-11.6,16.1-3.8,5.5-7.2,10.6-10.2,15.5-3,4.8-5.3,8.8-6.9,11.8-.7,1.4-1.3,2.8-1.8,4.3-.4,1.5-.6,2.9-.6,4.1,0,2.2.9,3.3,2.6,3.3,1.1,0,2.9-.7,5.3-2.1,2.5-1.6,4.9-3.7,7.2-6.2,2.2-2.6,4.6-5.6,7.2-8.8.3,0,.5.2.5.5s-.2,1.1-.6,1.9c-.3.8-.6,1.4-.8,1.9-4,5.3-7.7,9.2-11.3,11.8s-7.2,3.9-11,3.9-4.2-.6-5.2-1.7c-.9-1.3-1.4-2.8-1.4-4.6s.4-4.1,1.1-6.4c.8-2.3,1.8-4.6,2.9-6.9,2.9-5.7,6.5-11.6,10.5-17.7,4.1-6.1,8.4-12.1,13-18,4.7-6,9.2-11.4,13.7-16.5,2.2-2.4,4.7-4.8,7.3-7,2.6-2.3,5.2-4.2,7.8-5.7,2.5-1.6,4.8-2.4,6.7-2.4ZM60.2,64.1c0,5.2-.8,9.8-2.4,13.7-1.6,3.9-3.9,7.1-6.8,9.7-2.9,2.6-6.4,4.6-10.5,5.9-4.1,1.3-8.6,1.9-13.5,1.9s-5.9-.2-8.4-.5c-2.6-.3-5-.6-7.2-1.1-2.2-.5-4.2-.9-6.1-1.4-1.8-.5-3.6-1.1-5.3-1.6v-8.8c1.7.7,3.5,1.4,5.3,2.1,1.8.7,3.9,1.3,6.2,1.9,2.3.5,4.8,1,7.6,1.3,2.9.3,6.1.5,9.8.5s6.4-.5,9.2-1.5c2.9-1.1,5.4-2.6,7.5-4.5,2.2-2,3.9-4.4,5.1-7.3,1.2-2.9,1.8-6.2,1.8-9.9v-10.9c2.1-2.1,4.7-3.8,7.6-4.9v15.5Z"/>
</svg>