<?xml version="1.0" encoding="UTF-8"?>
<svg id="Layer_1" xmlns="http://www.w3.org/2000/svg" version="1.1" viewBox="0 0 366 366">
  <!-- Generator: Adobe Illustrator 29.8.7, SVG Export Plug-In . SVG Version: 2.1.1 Build 1)  -->
  <defs>
    <style>
      .st0 {
        fill-rule: evenodd;
      }

      .st0, .st1 {
        fill: #eee;
      }
    </style>
  </defs>
  <path class="st1" d="M190.2,312.9l-5.8.3.9,17.3-2.8.2-.9-17.3-5.8.3v-2.3c-.1,0,14.3-.8,14.3-.8v2.3Z"/>
  <path class="st1" d="M152.5,308.7l7.7,16.3,2.2-14.9,2.8.4-2.9,19.4-2.8-.4-7.7-16.3-2.2,14.8-2.8-.4,2.8-19.4,2.8.4Z"/>
  <path class="st1" d="M211.1,326.7l-2.8.5-1.7-8.7-9.5,1.8,1.7,8.7-2.8.5-3.7-19.2,2.8-.5,1.6,8.3,9.5-1.8-1.6-8.3,2.7-.5,3.7,19.2Z"/>
  <path class="st1" d="M145.6,307.4l-4.9,19-2.7-.7,4.9-19,2.7.7Z"/>
  <path class="st1" d="M223.4,304.9l-9.1,3.1,2,5.9,8.3-2.8.7,2.1-8.3,2.8,2.1,6.2,9.1-3.1.7,2.2-11.7,4-6.3-18.6,11.7-4,.7,2.2Z"/>
  <path class="st1" d="M122.1,299c1.1,0,2.2.2,3.4.7,1.2.5,2.1,1.2,2.8,2,.7.8,1.1,1.7,1.3,2.7.2,1,0,2-.4,3l-2.7-1.2c.2-.5.3-1,.2-1.5,0-.5-.2-1.1-.6-1.5-.4-.5-.9-.9-1.6-1.2-.6-.3-1.1-.4-1.7-.4-.6,0-1,.1-1.5.4-.4.3-.8.7-1,1.2-.2.5-.3,1-.3,1.5,0,.4.3.9.7,1.3.3.4.8.9,1.2,1.3.5.5,1.1,1,1.7,1.5.8.7,1.4,1.4,1.9,2.1.5.7.8,1.5.9,2.3.1.8,0,1.8-.5,2.8-.4.9-1,1.6-1.8,2.2-.8.6-1.8.9-2.9,1-1.1,0-2.3-.2-3.7-.8-1.3-.6-2.4-1.3-3.2-2.2-.8-.9-1.3-1.9-1.4-3-.2-1.1,0-2.2.5-3.4l2.7,1.2c-.3.7-.4,1.3-.3,2,0,.7.3,1.3.7,1.9.4.6,1.1,1,1.9,1.4.7.3,1.4.5,2,.5.6,0,1.2-.2,1.6-.4.5-.3.8-.7,1.1-1.3.3-.6.4-1.2.2-1.8-.1-.5-.4-1-.7-1.5-.4-.5-.8-1-1.4-1.5-.5-.5-1.1-1-1.7-1.5-1.2-1.1-2-2.1-2.4-3.2-.4-1-.3-2.1.2-3.3.4-1,1.1-1.8,1.9-2.3.8-.5,1.7-.8,2.8-.9Z"/>
  <path class="st1" d="M259.9,304.8l-2.4,1.5-7.6-12.6,1,13.4-1.8,1.1-11.4-7.1,7.6,12.5-2.4,1.5-10.2-16.8,2.8-1.7,12.5,7.9-1.2-14.8,2.8-1.7,10.2,16.8Z"/>
  <path class="st0" d="M111.1,292.5c1.3.8,2.3,1.7,2.9,2.6.6,1,.8,1.9.8,2.9,0,1-.3,2-.9,2.9-.5.9-1.3,1.6-2.1,2.1-.9.5-1.9.7-3,.7-.4,0-.7,0-1.1-.2l-.7,9.3-2.8-1.7.8-8.8-3.1-1.9-4.1,6.8-2.4-1.4,10.1-16.8,5.7,3.4ZM102.9,298.7l3.1,1.9c1.2.7,2.2,1,3.1.7.9-.3,1.6-.8,2.2-1.7.6-.9.7-1.8.5-2.7-.2-.9-.9-1.7-2.1-2.4l-3.1-1.9-3.7,6.1Z"/>
  <path class="st0" d="M98,283.2l-6.8,19.8-2.3-1.9,1.7-4.8-6.3-5.1-4.4,2.7-2.3-1.9,17.9-10.7,2.4,1.9ZM86.4,289.9l5,4.1,3.3-9.1-8.3,5.1Z"/>
  <path class="st0" d="M277.4,290.8l-2.3,1.9-4.4-2.6-6.1,5.2,1.8,4.8-2.2,1.9-7.3-19.6,2.3-2,18.2,10.2ZM263.6,293.2l4.9-4.2-8.4-4.9,3.5,9.1Z"/>
  <path class="st1" d="M88.7,275.2l-1.7,1.6-6.6-7-4.6,4.3,6,6.4-1.6,1.5-6-6.4-4.7,4.4,6.6,7-1.7,1.6-8.5-9,14.3-13.4,8.5,9Z"/>
  <path class="st1" d="M276.7,274.4l13.8,2.3-2.3,2.6-11.2-1.9.3,3,5.5,4.9-1.9,2.1-14.7-13,1.9-2.1,6.4,5.6-1.2-11.5,2.3-2.6,1,10.6Z"/>
  <path class="st1" d="M295.2,270.6l-1.6,2.3-15.8-11.5,1.6-2.3,15.8,11.5Z"/>
  <path class="st1" d="M71.5,254.3l-5,9.5,10.5-1.8,1.8,2.5-13.8,2-5.9,4.3-1.6-2.3,5.9-4.3,6.2-12.5,1.9,2.6Z"/>
  <path class="st1" d="M306.5,251.8l-1.4,2.4-18,1.2,13,7.5-1.4,2.4-17-9.8,1.4-2.4,18-1.1-13-7.5,1.4-2.4,17,9.8Z"/>
  <path class="st1" d="M158.2,143.7c2.4-.4,5.1-.5,7.9-.5s6.1.2,9.6.7c3.5.3,7.2.9,11.3,1.5,4.1.7,8.3,1.3,12.6,1.7,4.5.3,8.7.5,12.7.5s8.3-.2,11.4-.7c3.3-.6,5.2-1.4,5.9-2.6h.3c.8,0,1.1.5.9,1.5-.3,1.4-1,2.3-2.1,2.7-1,.3-2.1.8-3.4,1.4-7.3,7.4-13.9,15.3-19.8,23.7-5.9,8.2-11.5,16.6-16.8,25.1-3.4,5.3-6.6,10.5-9.8,15.8-3.1,5.2-6.2,10.1-9.1,14.8,2.6-1.7,6.1-4.9,10.4-9.4,4.4-4.6,9-9.9,14-16,5-6.1,9.9-12.2,14.6-18.4,4.2-5.4,8.7-10.8,13.6-16.3,4.9-5.6,9.9-10.8,15.1-15.5,5.2-4.7,10.2-8.5,15.1-11.3,5-3,9.5-4.5,13.6-4.5s5.4.7,7.9,2.1c2.5,1.3,3.8,3.8,3.8,7.7s-.4,2.7-1.1,4.3c-.7,1.6-1.8,2.6-3.2,2.9.5-.6.9-1.4,1.1-2.4.2-1.1.4-2.1.5-2.9,0-1.9-.8-3.5-2.3-4.8-1.4-1.4-3.8-2.1-7-2.1s-8.5,1.4-13.3,4.1c-4.7,2.6-9.5,6.2-14.5,10.6-4.9,4.4-9.7,9.2-14.5,14.4-4.7,5.3-9,10.4-13,15.5-4.3,5.5-8.6,11-13.1,16.5-4.4,5.4-8.6,10.3-12.7,14.8-4.1,4.3-7.7,7.8-11,10.3-3.1,2.5-5.6,3.7-7.5,3.4-.1,0-.2,0-.2-.2-.3,0-.6-.3-.8-1-.1-.3-.2-1-.2-1.9,0-3,1-6.7,2.9-11.2,1.9-4.6,4.5-9.4,7.6-14.6,3.2-5.3,6.5-10.4,9.9-15.5,3.6-5.1,6.9-9.8,10.1-13.9,3.3-4.2,5.9-7.6,8.1-10,2.3-2.6,4.9-5.3,7.6-7.9,2.8-2.6,5.6-4.9,8.4-6.7h-2.3c-2.1.1-4.6.9-7.3,2.2-2.6,1.3-5.2,2.8-7.8,4.6-2.5,1.8-4.8,3.7-6.7,5.5-2.7,2.6-5.9,6.2-9.6,10.6-3.7,4.4-7.5,9.2-11.4,14.4-4,5.2-7.8,10.4-11.6,15.8-3.8,5.4-7.7,10.8-11.9,16.3-4.1,5.5-8.3,10.6-12.8,15.3-4.5,4.6-9.1,8.3-13.9,11.2-4.7,2.9-9.6,4.3-14.6,4.3s-3.7-.3-5.5-1c-1.9-.6-3.5-1.7-4.7-3.4-1.3-1.6-2-3.8-2-6.7s.6-3.4,1.7-5.3c1-2.1,2.3-3.1,3.8-3.1-.8,1.4-1.2,3-1.2,5s.8,3.8,2.3,5.2c1.5,1.5,4,2.2,7.3,2.2s7.9-1.3,12.2-3.8c4.3-2.4,8.6-5.6,13-9.6,4.4-4.1,8.6-8.6,12.8-13.6,4.2-4.9,8-9.9,11.6-14.9,4.1-5.7,8.2-11.3,12.3-16.8,4.2-5.5,8.2-10.4,12-14.8,4-4.5,7.5-7.9,10.5-10.3,1-.8,2.7-2.1,5-3.9,2.4-1.8,5.5-3.5,9.3-5-3.8.1-7.7,0-11.9-.2-4.1-.3-8-.8-11.9-1.4-2.1-.3-4.3-.6-6.6-.9-2.2-.2-4.5-.3-6.9-.3-6.2,0-12,.9-17.5,2.7-5.5,1.8-9.7,5-12.7,9.6-1.7,2.7-2.6,5.4-2.6,8.1s.4,3.3,1.1,4.5c.4.5.9,1,1.4,1.5.5.5.9.7,1.2.7-.4.5-.9.7-1.5.7s-1.4-.2-2.1-.5c-.6-.5-1.1-.9-1.5-1.4-1-1.3-1.8-2.7-2.3-4.3-.5-1.7-.8-3.4-.8-5,0-3.2.7-5.9,2.1-8.1,2.8-4.3,6.5-7.6,11-9.6.4-.2.9-.4,1.4-.6v-39.7h7.6v37.7Z"/>
  <path class="st0" d="M54.5,231c1.7,0,3.1.4,4.4,1.2,1.3.8,2.3,2,3,3.6.7,1.6.9,3.1.7,4.6-.3,1.5-.9,2.8-2.1,4.1-1.1,1.2-2.6,2.3-4.4,3.1-1.8.8-3.6,1.3-5.3,1.3-1.6,0-3.1-.4-4.4-1.1-1.3-.8-2.3-2-3-3.5-.7-1.6-.9-3.1-.7-4.6.3-1.5,1-2.9,2.1-4.1,1.1-1.2,2.6-2.3,4.4-3.1,1.8-.8,3.6-1.3,5.2-1.3ZM54.5,233.8c-1.2,0-2.6.4-4,1-1.4.7-2.6,1.4-3.4,2.3-.8.9-1.4,1.9-1.6,2.9-.2,1-.1,2,.3,3,.4,1,1.1,1.7,2,2.2.9.5,2,.7,3.2.7,1.2,0,2.6-.4,4-1,1.4-.7,2.6-1.4,3.4-2.3.8-.9,1.4-1.8,1.6-2.9.2-1,.1-2-.3-2.9-.4-1-1.1-1.7-2-2.2-.9-.5-2-.8-3.2-.7Z"/>
  <path class="st1" d="M297.7,226.1c1.5-1,3.3-1.4,5.2-1.1l-1.2,3c-1.1-.1-2.1.1-3,.7-.9.6-1.6,1.6-2.2,2.9-.5,1.3-.7,2.5-.5,3.7.2,1.2.7,2.2,1.6,3.1s2,1.7,3.5,2.2c1.5.6,2.8.8,4.1.7,1.3,0,2.3-.5,3.3-1.2.9-.7,1.6-1.7,2.1-2.9.7-1.8.7-3.4,0-4.8-.7-1.4-1.9-2.5-3.6-3.3l-2,5-2-.8,3-7.7,9.9,3.9-.9,2.4-2.9-.9c.5.7.9,1.4,1.1,2.1.2.7.3,1.5.3,2.3,0,.8-.3,1.7-.7,2.7-.7,1.7-1.7,3.1-2.9,4-1.3,1-2.8,1.5-4.5,1.7-1.7.2-3.5-.1-5.3-.9-1.9-.7-3.4-1.7-4.5-3-1.1-1.3-1.8-2.8-2.1-4.4-.3-1.7,0-3.4.7-5.3.8-2.1,2-3.6,3.5-4.6Z"/>
  <path class="st1" d="M259.6,150.1c-1.3,1.1-3.4,3.3-6.1,6.4-2.7,3-5.3,5.9-7.6,8.8-3.2,3.8-6.7,8.3-10.7,13.6-3.9,5.3-7.7,10.6-11.6,16.1-3.8,5.5-7.2,10.6-10.2,15.5-3,4.8-5.3,8.8-6.9,11.8-.7,1.4-1.3,2.8-1.8,4.3-.4,1.5-.6,2.9-.6,4.1,0,2.2.9,3.3,2.6,3.3s2.9-.7,5.3-2.1c2.5-1.6,4.9-3.7,7.2-6.2,2.2-2.6,4.6-5.6,7.2-8.8.3,0,.5.2.5.5s-.2,1.1-.6,1.9c-.3.8-.6,1.4-.8,1.9-4,5.3-7.7,9.2-11.3,11.8-3.6,2.6-7.2,3.9-11,3.9s-4.2-.6-5.2-1.7c-.9-1.3-1.4-2.8-1.4-4.6s.4-4.1,1.1-6.4c.8-2.3,1.8-4.6,2.9-6.9,2.9-5.7,6.5-11.6,10.5-17.7,4.1-6.1,8.4-12.1,13-18,4.7-6,9.2-11.4,13.7-16.5,2.2-2.4,4.7-4.8,7.3-7,2.6-2.3,5.2-4.2,7.8-5.7,2.5-1.6,4.8-2.4,6.7-2.4Z"/>
  <path class="st1" d="M56.6,223.3l.6,1.7-18.7,6-.9-2.7,15.7-5-1.9-3,2-.6,3.2,3.6Z"/>
  <path class="st1" d="M158.2,170.1c0,5.2-.8,9.8-2.4,13.7-1.6,3.9-3.9,7.1-6.8,9.7-2.9,2.6-6.4,4.6-10.5,5.9-4.1,1.3-8.6,1.9-13.5,1.9s-5.9-.2-8.4-.5c-2.6-.3-5-.6-7.2-1.1-2.2-.5-4.2-.9-6.1-1.4-1.8-.5-3.6-1.1-5.3-1.6v-8.8c1.7.7,3.5,1.4,5.3,2.1s3.9,1.3,6.2,1.9c2.3.5,4.8,1,7.6,1.3,2.9.3,6.1.5,9.8.5s6.4-.5,9.2-1.5c2.9-1.1,5.4-2.6,7.5-4.5,2.2-2,3.9-4.4,5.1-7.3,1.2-2.9,1.8-6.2,1.8-9.9v-10.9c2.1-2.1,4.7-3.8,7.6-4.9v15.5Z"/>
  <path class="st1" d="M311.7,160.3c.6,0,1.1,0,1.7.2.5.2,1,.5,1.3,1,.4.5.6,1,.7,1.6,0,.6,0,1.1-.2,1.7s-.5,1-1,1.3c-.4.4-.9.6-1.5.7-.6,0-1.1,0-1.7-.2-.5-.2-1-.5-1.3-1-.4-.4-.6-.9-.7-1.5,0-.6,0-1.1.2-1.7.2-.5.5-1,1-1.3.5-.4,1-.6,1.6-.7Z"/>
  <path class="st1" d="M41.6,156.5c.5-.2,1.1-.2,1.7-.1.6.1,1.1.4,1.5.8.4.4.7.8.9,1.4.2.5.2,1.1.1,1.7-.1.6-.4,1.1-.7,1.5-.4.4-.8.7-1.4.9-.6.2-1.1.2-1.7.1-.6-.1-1.1-.4-1.5-.7-.4-.4-.7-.8-.9-1.4-.2-.6-.2-1.1-.1-1.7.1-.6.4-1.1.8-1.5.4-.4.8-.7,1.4-.9Z"/>
  <path class="st1" d="M282.3,83.6l-4.6,17.5,11.2-10,1.9,2.1-14.7,13-1.9-2.1,4.6-17.4-11.2,10-1.9-2.1,14.7-13,1.9,2.1Z"/>
  <path class="st1" d="M83.2,92c1.3,1.2,2,2.6,2,4,0,1.4-.5,2.8-1.7,4-.8.9-1.7,1.5-2.6,1.8-.9.3-1.9.4-2.9.1-1-.2-1.9-.8-2.8-1.6l1.9-2.1c.5.4,1,.7,1.5.9.5.2,1,.2,1.5.1.5-.1,1-.5,1.5-1,.5-.5.8-1,.9-1.5,0-.5,0-1-.2-1.4-.2-.5-.6-.9-1-1.3l-10.4-9.7,1.9-2,10.4,9.7Z"/>
  <path class="st0" d="M268.8,71.3l-6.7,19.8-2.3-1.9,1.7-4.8-6.3-5.1-4.4,2.7-2.3-1.8,17.9-10.8,2.4,1.9ZM257.3,78.1l5.1,4.1,3.2-9.2-8.3,5.1Z"/>
  <path class="st0" d="M91.1,68.1c1.7-.2,3.3,0,4.8.8,1.6.7,3,1.8,4.2,3.4,1.2,1.6,2,3.2,2.3,4.9.3,1.7.2,3.3-.4,4.9-.6,1.5-1.7,2.9-3.2,4.1-1.5,1.2-3.1,1.8-4.7,2.1-1.6.2-3.3,0-4.8-.7-1.6-.7-3-1.9-4.2-3.5-1.2-1.6-2-3.2-2.3-4.9-.3-1.7-.1-3.3.5-4.9.6-1.6,1.7-2.9,3.1-4.1,1.5-1.2,3.1-1.9,4.8-2.1ZM94.7,71.3c-1.1-.6-2.3-.8-3.4-.6-1.2.1-2.3.6-3.4,1.4-1.1.8-1.8,1.8-2.2,2.9-.4,1.1-.5,2.3-.3,3.5s.9,2.5,1.8,3.7c1,1.3,2,2.2,3.2,2.7,1.1.6,2.3.8,3.5.6,1.2-.1,2.3-.6,3.4-1.4,1.1-.8,1.8-1.8,2.2-2.9.4-1.1.5-2.3.2-3.5-.3-1.2-.9-2.5-1.8-3.7-1-1.3-2-2.2-3.2-2.7Z"/>
  <path class="st1" d="M241.3,54.8c1.7,0,3.4.4,5.1,1.3,1.9,1.1,3.3,2.4,4.1,4.1.8,1.7.9,3.4.4,5.3l-2.8-1.5c.3-1.1.2-2.1-.3-3.1-.5-1-1.4-1.8-2.6-2.5-1.2-.7-2.4-1-3.6-.9-1.2,0-2.3.5-3.3,1.2s-1.9,1.8-2.7,3.2c-.8,1.4-1.2,2.7-1.3,4,0,1.3.2,2.4.8,3.4.6,1,1.4,1.8,2.6,2.4,1.7,1,3.3,1.2,4.7.6,1.4-.5,2.7-1.6,3.7-3.2l-4.7-2.6,1-1.9,7.2,4-5.1,9.3-2.2-1.2,1.2-2.7c-.7.4-1.5.7-2.3.9-.7.1-1.5.1-2.3,0-.8-.2-1.7-.5-2.6-1-1.6-.9-2.8-2-3.6-3.4-.8-1.4-1.2-2.9-1.1-4.6,0-1.7.6-3.4,1.5-5.2,1-1.8,2.1-3.1,3.6-4.1,1.4-1,3-1.5,4.6-1.5Z"/>
  <path class="st1" d="M113.3,55.8l-8.4,4.6,3,5.5,7.7-4.2,1.1,2-7.7,4.2,3.1,5.7,8.4-4.6,1.1,2-10.9,5.9-9.3-17.2,10.9-5.9,1.1,2Z"/>
  <path class="st1" d="M230.1,48.6l-.8,2.2-9-3.2-2.1,5.9,8.2,2.9-.7,2.1-8.2-2.9-2.1,6.1,9,3.2-.8,2.2-11.7-4.1,6.5-18.5,11.7,4.1Z"/>
  <path class="st1" d="M131.6,59l2.5,6.8-2.6,1-2.5-6.8-10.3-9.4,3-1.1,7.7,7.4,1.1-10.6,2.9-1.1-1.9,13.8Z"/>
  <path class="st1" d="M192.6,39.7l4.5,14.1,8.6-12,3.3.5-3.1,19.4-2.8-.4,2.3-14.5-7.9,10.8-2.1-.3-4.1-12.7-2.3,14.5-2.8-.4,3.1-19.4,3.3.5Z"/>
  <path class="st0" d="M158.7,39.7c1.1-.1,2,0,2.8.3.8.3,1.5.8,2,1.4.5.6.8,1.4.9,2.3l-2.7.3c0-.8-.4-1.3-.9-1.7-.5-.4-1.1-.5-1.8-.4-.8,0-1.4.4-1.8.8-.4.5-.6,1-.5,1.7,0,.5.3,1.1.7,1.6.4.5.9,1.1,1.6,1.7l6.4,5.2c0-.2.2-.4.3-.5.3-.7.7-1.4,1-2.2l.6-1.5,2.9-.3-.9,2.3c-.4,1-.8,1.9-1.2,2.7-.2.4-.4.8-.6,1.2l4.7,3.8-3.4.4-2.6-2.1c-.7.9-1.5,1.6-2.3,2.1-1.1.7-2.4,1.1-3.9,1.3-1.3.1-2.5,0-3.6-.3-1.1-.4-1.9-1-2.6-1.8-.7-.8-1-1.9-1.2-3.1-.1-.9,0-1.8.3-2.7.3-.8.8-1.6,1.5-2.3.5-.5,1.1-1,1.9-1.4-.6-.5-1-1-1.3-1.5-.4-.7-.7-1.4-.8-2.2,0-.9,0-1.6.4-2.3.4-.7.9-1.3,1.6-1.8.8-.5,1.7-.8,2.8-.9ZM157.9,49.9c-1,.5-1.7,1.1-2.1,1.8-.5.8-.7,1.6-.6,2.6,0,.7.3,1.3.7,1.9.4.5.9.9,1.6,1.2.6.2,1.4.3,2.2.2,1.1-.1,2-.4,2.8-1,.6-.4,1.1-1,1.6-1.7l-6.2-5Z"/>
  <path class="st0" d="M183,0c101.1,0,183,81.9,183,183s-81.9,183-183,183S0,284.1,0,183,81.9,0,183,0ZM183,3C83.6,3,3,83.6,3,183s80.6,180,180,180,180-80.6,180-180S282.4,3,183,3Z"/>
</svg>