<?xml version="1.0" encoding="UTF-8"?>
<svg id="Layer_1" xmlns="http://www.w3.org/2000/svg" version="1.1" viewBox="0 0 526 195">
  <!-- Generator: Adobe Illustrator 29.8.7, SVG Export Plug-In . SVG Version: 2.1.1 Build 1)  -->
  <defs>
    <style>
      .st0 {
        fill: #940;
      }
    </style>
  </defs>
  <path class="st0" d="M281.8,59.9c-6.6-.3-13.4-2.2-19.5-5.3.9-.6,1.8-1.3,2.7-1.9,5.2,2.5,11,4,16.9,4.3.6,0,1.3,0,1.9,0h0c8.7,0,15.9-3.6,19-9.3-1,.9-2.1,1.7-3.4,2.3-3.1,1.5-6.7,2.2-10.7,2.2-6,0-12-1.6-16-2.8h-.1c-.9-.3-1.7-.6-2.5-.9.8-.7,1.6-1.5,2.3-2.3.4.1.8.3,1.2.4h0c7.5,2.3,17.1,4.3,24.4.8,6.6-3.3,7.7-10.4,3.7-16-.6-.8-1.3-1.6-2-2.4,0,0-.2,0-.2.1.8,1.2,1.4,2.5,2,3.8,1,2.5,1.1,5.1.4,7.5,0,.3-.6.3-.6,0-.1-1.1-.4-2.2-.8-3.3-2.7-7.6-8.8-13.1-15.8-16.2,0-1.9,0-3.7-.4-5.4,6.4,2.5,12.4,6.3,16.9,11.3h0c14.4,16.8,1.7,34.4-19.6,33.2ZM225.5,53.5C206.9,34.5,235.6,2.2,257.3.1c9.5-.9,20.1,3.8,23.5,12.6,9.4,24.3-35.2,61.4-55.3,40.8ZM227.5,47.9c6.3,3.2,14.5.7,21.6-3.4-1.8-2.1-10.9-14.1-.1-25.1,5.6-5.7,14.3-7.6,22.5-7.1-.2-3.2-1.5-6.1-4.7-7.9-5.3-3.1-12.2-1.6-18.6,1.4-.2.1,0,.4.2.3,3-1,6-1.7,9.1-1.9,2.1-.2,4.3,0,6.3.7,1.4.4,2.8,1,3.6,1.9.1.2.3.3.4.5.1.2,0,.4-.3.3-10.4-3.6-23.2,2.5-30.3,8.8-7.1,6.3-15,18.9-10.3,28.9-.2,0-1.4-1.3-2.4-2.6-.8-1.1-1.4-2.4-1.5-3.7-.2-1.7-.3-2.6-.1-4.2-1.4,5.4-.6,10.5,4.6,13.1ZM257.5,38.5c1.4-1.2,2.7-2.4,3.7-3.6,3.4-3.6,8-10.6,9.7-17.2,0,0,0,0-.1,0-6.3,0-13.7,1.8-18.6,6.9-.2.2-.4.5-.5.7.4-1.7,1.2-3.4,2.6-5,2-2,4.4-3.6,7.5-4.6,0,0,.8-.2.8-.2.2,0,1.7-.3,1.9-.4-3.2.2-6.2,1-9,2.6-13.1,7.6,1.6,20.4,2.1,20.8ZM247.5,28c-2.1,8,3.2,13.6,4.3,14.9,1.2-.8,2.3-1.6,3.4-2.4-.4-.3-6.8-5.1-7.7-12.4ZM272.3,37.6c3-4.1,5.1-8.3,6.1-12.3.9-3.6.9-6.9.1-10-.5,3.1-1.7,6.3-3.1,9.3-.1.3-.6.1-.5-.2,1.5-5.2,1.5-10.4,0-15.1-.2-.5-.4-.9-.8-1.2-.1,0-.2-.2-.3-.3.4.9.7,1.9.8,2.9.8,4.8-1.5,16.1-10.9,26.2-5.7,6.2-18.3,15.4-29.6,15.4s-4.6-.4-6.6-1.2c.1.1.2.3.4.4h0c.2.2.5.4.8.5,2.2.8,4.4,1.4,6.8,1.6,4.1.3,8.4-.3,12.5-1.7.2,0,.4.2.2.3-3.4,1.8-7.4,3.3-11.5,3.9,1.2.2,2.4.3,3.6.3h0c10.6,0,23.8-7.8,32-19Z"/>
  <path class="st0" d="M12.2,138.7c-2.5,0-4.7-.5-6.5-1.4-1.8-1-3.2-2.3-4.2-4.1-1-1.8-1.4-3.9-1.4-6.4h5.1c0,1.4.2,2.7.7,3.8.5,1.1,1.2,2,2.2,2.7,1,.6,2.4,1,4.1,1s3-.3,4-1c1-.6,1.7-1.5,2.1-2.6.4-1.1.7-2.4.7-3.8v-30.9h5v30.9c0,3.8-1,6.7-3.1,8.8-2,2-4.9,3.1-8.6,3.1Z"/>
  <path class="st0" d="M61.4,138.7c-4.1,0-7.7-.9-10.9-2.7-3.1-1.8-5.5-4.4-7.3-7.6-1.7-3.3-2.6-7.1-2.6-11.4s.9-8,2.6-11.3c1.8-3.3,4.2-5.8,7.3-7.7,3.1-1.8,6.7-2.8,10.9-2.8s7.8.9,10.9,2.8c3.1,1.8,5.5,4.4,7.3,7.7,1.7,3.2,2.6,7,2.6,11.3s-.9,8.1-2.6,11.4c-1.7,3.2-4.1,5.8-7.3,7.6-3.1,1.8-6.7,2.7-10.9,2.7ZM61.4,134.3c3.1,0,5.8-.7,8.1-2,2.4-1.4,4.2-3.4,5.5-5.9,1.3-2.6,2-5.7,2-9.3s-.7-6.7-2-9.2c-1.3-2.6-3.1-4.6-5.5-5.9-2.3-1.4-5-2-8.1-2s-5.8.7-8.2,2c-2.3,1.4-4.1,3.3-5.5,5.9-1.3,2.6-1.9,5.6-1.9,9.2s.6,6.7,1.9,9.3c1.3,2.6,3.1,4.5,5.5,5.9,2.4,1.4,5.1,2,8.2,2Z"/>
  <path class="st0" d="M98.9,138v-42h26v4.1h-20.9v14.6h19.1v4.1h-19.1v15h20.9v4.1h-26Z"/>
  <path class="st0" d="M152.6,138v-15.1l-13.7-26.9h5.7l10.5,21.7h.2l10.4-21.7h5.5l-13.6,26.9v15.1h-5Z"/>
  <path class="st0" d="M243.6,138l-23.3-23.5c-1.8-1.8-3.2-3.5-4-5-.8-1.5-1.2-3.2-1.2-5s.4-3.4,1.3-4.8c.9-1.4,2.1-2.5,3.7-3.2,1.6-.8,3.5-1.2,5.7-1.2s4,.4,5.6,1.3c1.6.8,2.8,1.9,3.7,3.4.9,1.4,1.3,3,1.2,4.9h-5c0-1.8-.5-3.2-1.7-4.1-1.2-.9-2.5-1.4-4-1.4s-3.2.4-4.3,1.3c-1.1.9-1.6,2.1-1.6,3.6s.4,2.6,1.1,3.7c.8,1.1,1.9,2.4,3.4,4l25.1,26h-5.9ZM224.7,138.7c-2.9,0-5.4-.5-7.7-1.6-2.2-1.1-3.9-2.6-5.2-4.4-1.2-1.9-1.9-4.1-1.9-6.6s.4-3.9,1.1-5.6c.8-1.7,1.9-3.2,3.4-4.5,1.5-1.3,3.2-2.4,5.3-3.2l.5-.2,2.3,3.2-.5.2c-2.3.8-4.1,2-5.4,3.7s-1.9,3.7-1.9,6.1.4,3.3,1.3,4.6c.8,1.2,2,2.2,3.5,2.9,1.5.7,3.2,1,5,1s4.6-.5,6.7-1.6c2.1-1.1,3.8-2.7,4.9-4.7.7-1.3,1.3-2.7,1.6-4.3.4-1.6.5-3.3.5-5.2v-2.2h4.3v2.2c0,2.3-.3,4.5-.8,6.5-.5,2-1.3,3.8-2.3,5.5-1.5,2.5-3.5,4.5-6.1,6-2.5,1.4-5.4,2.2-8.8,2.2Z"/>
  <path class="st0" d="M287.8,138v-42h7.4l13.4,31.8h.2l13.4-31.8h7.4v42h-5v-34.4h-.2l-12.1,28.4h-7.1l-12.2-28.4h-.2v34.4h-5Z"/>
  <path class="st0" d="M347.1,138v-42h26v4.1h-20.9v14.6h19.1v4.1h-19.1v15h20.9v4.1h-26Z"/>
  <path class="st0" d="M408.2,138.7c-3.9,0-7.3-.9-10.1-2.7-2.9-1.8-5.1-4.4-6.7-7.6-1.6-3.2-2.3-7-2.3-11.3s.8-8.1,2.5-11.3c1.7-3.3,4-5.8,7.1-7.7,3.1-1.8,6.7-2.8,10.9-2.8s8.7,1.1,11.8,3.4c3.2,2.2,5.2,5.4,6.1,9.4h-5.8c-.6-2.5-1.9-4.5-4-6-2.1-1.5-4.8-2.2-8.1-2.2s-5.8.7-8.1,2.1c-2.3,1.4-4,3.3-5.3,5.9-1.2,2.6-1.9,5.6-1.9,9.2s.6,6.6,1.9,9.2c1.2,2.6,3,4.5,5.2,5.9,2.2,1.4,4.8,2,7.7,2,4.5,0,7.9-1.3,10.1-4,2.3-2.6,3.6-6.2,3.9-10.7h-12.1v-4h17.3v22.4h-4.4l-.6-8.6h-.2c-1.1,2-2.3,3.7-3.8,5.1-1.4,1.4-3.1,2.5-4.9,3.2-1.8.7-3.7,1-5.9,1Z"/>
  <path class="st0" d="M443.1,138l14.3-42h7.8l14.1,42h-5.3l-12.5-38.3h-.2l-12.8,38.3h-5.3ZM450.1,124.9l1.4-4.1h19l1.4,4.1h-21.9Z"/>
  <path class="st0" d="M493.1,138v-42h7.2l20,36.4h.2v-36.4h5v42h-7.2l-20-36.4h-.2v36.4h-5Z"/>
  <path class="st0" d="M77.3,194v-15.8l-3.5.9v-2.6l4.8-2.1h2.1v19.6h-3.4Z"/>
  <path class="st0" d="M94.7,194.3c-1.8,0-3.3-.4-4.6-1.3-1.3-.9-2.2-2-2.9-3.6-.7-1.5-1-3.3-1-5.3s.3-3.8,1-5.3c.7-1.5,1.7-2.7,2.9-3.6,1.3-.9,2.8-1.3,4.6-1.3s3.3.4,4.5,1.3c1.3.8,2.2,2,2.9,3.6.7,1.5,1,3.3,1,5.3s-.3,3.8-1,5.3c-.7,1.5-1.6,2.7-2.9,3.6-1.3.8-2.8,1.3-4.5,1.3ZM94.7,191.3c1,0,1.9-.3,2.6-.8.8-.6,1.4-1.4,1.8-2.5.4-1.1.6-2.3.6-3.8s-.2-2.7-.6-3.8c-.4-1.1-1-1.9-1.8-2.4-.8-.6-1.6-.9-2.6-.9s-1.9.3-2.6.9c-.8.6-1.4,1.4-1.8,2.4-.4,1.1-.6,2.3-.6,3.8s.2,2.7.6,3.8c.4,1.1,1,1.9,1.8,2.5.8.6,1.6.8,2.6.8Z"/>
  <path class="st0" d="M122.8,194v-7.1l-6.5-12.5h3.8l4.8,10h-.7l4.8-10h3.8l-6.6,12.5v7.1h-3.4Z"/>
  <path class="st0" d="M137.4,194v-19.6h12.7v2.7h-9.3v5.6h8.5v2.7h-8.5v5.9h9.3v2.7h-12.7Z"/>
  <path class="st0" d="M154.5,194l7.2-19.6h3.8l7.2,19.6h-3.6l-5.5-15.7-5.5,15.7h-3.5ZM157.7,189.4l.9-2.7h9.7l.9,2.7h-11.5Z"/>
  <path class="st0" d="M177.5,194v-19.6h7c1.5,0,2.8.3,3.8.8,1,.5,1.8,1.2,2.3,2.1.5.9.8,1.9.8,3s-.2,2-.7,2.9c-.5.9-1.2,1.6-2.3,2.2-1,.5-2.3.8-3.9.8h-3.6v7.8h-3.4ZM187.7,194l-4.1-8.7h3.6l4.3,8.7h-3.8ZM180.9,183.7h3.4c1.2,0,2.2-.3,2.7-.9.6-.6.9-1.4.9-2.4s-.3-1.7-.9-2.3c-.6-.6-1.5-.9-2.8-.9h-3.4v6.5Z"/>
  <path class="st0" d="M203.7,194.3c-1.4,0-2.7-.3-3.8-.8s-2-1.2-2.6-2.2-.9-2-1-3.3h3.6c0,.7.1,1.2.4,1.8.3.5.7.9,1.3,1.2.6.3,1.2.4,2,.4s1.3-.1,1.7-.3c.5-.2.9-.5,1.1-.9.3-.4.4-.9.4-1.4s-.1-1.1-.4-1.5c-.3-.4-.7-.8-1.2-1-.5-.3-1.1-.5-1.7-.7-.7-.2-1.3-.5-2.1-.7-1.5-.5-2.7-1.2-3.5-2-.8-.8-1.2-1.9-1.2-3.3s.3-2.1.8-2.9,1.3-1.5,2.3-1.9c1-.5,2.1-.7,3.4-.7s2.4.2,3.4.7c1,.5,1.8,1.1,2.3,2,.6.8.9,1.8.9,3h-3.6c0-.5-.1-.9-.4-1.3-.2-.4-.6-.8-1.1-1-.4-.3-1-.4-1.7-.4-.6,0-1.1,0-1.5.3-.4.2-.8.5-1,.8-.2.4-.4.8-.4,1.3s.1,1,.3,1.3c.2.3.6.6,1,.9.4.2,1,.4,1.6.6s1.3.4,2,.7c1,.3,1.8.7,2.6,1.2.8.4,1.4,1,1.9,1.8.5.7.7,1.7.7,2.8s-.3,2-.8,2.8c-.5.9-1.3,1.6-2.3,2.1-1,.5-2.3.8-3.8.8Z"/>
  <path class="st0" d="M225.1,194v-19.6h3.4v19.6h-3.4Z"/>
  <path class="st0" d="M234.7,194v-19.6h3.4l9.4,14.2v-14.2h3.4v19.6h-3.4l-9.4-14.1v14.1h-3.4Z"/>
  <path class="st0" d="M270.7,194v-16.9h-5.8v-2.7h14.9v2.7h-5.8v16.9h-3.3Z"/>
  <path class="st0" d="M297.1,194v-19.6h3.4v19.6h-3.4ZM284.8,194v-19.6h3.4v19.6h-3.4ZM287.6,185.4v-2.7h10.2v2.7h-10.2Z"/>
  <path class="st0" d="M306.7,194v-19.6h12.7v2.7h-9.3v5.6h8.5v2.7h-8.5v5.9h9.3v2.7h-12.7Z"/>
  <path class="st0" d="M334.2,194v-19.6h4l6.3,12.7,6.2-12.7h4v19.6h-3.4v-13.8l-5.5,11.1h-2.6l-5.6-11.1v13.8h-3.4Z"/>
  <path class="st0" d="M359.6,194l7.2-19.6h3.8l7.2,19.6h-3.6l-5.5-15.7-5.5,15.7h-3.5ZM362.8,189.4l.9-2.7h9.7l.9,2.7h-11.5Z"/>
  <path class="st0" d="M382.6,194v-19.6h3.4v8.1l7.4-8.1h4.2l-7.3,7.8,7.4,11.8h-4.1l-5.7-9.2-1.9,2.1v7.1h-3.4Z"/>
  <path class="st0" d="M402.6,194v-19.6h3.4v19.6h-3.4Z"/>
  <path class="st0" d="M412.1,194v-19.6h3.4l9.4,14.2v-14.2h3.4v19.6h-3.4l-9.4-14.1v14.1h-3.4Z"/>
  <path class="st0" d="M443,194.3c-1.8,0-3.5-.4-4.9-1.3-1.4-.8-2.5-2-3.2-3.5-.8-1.5-1.1-3.3-1.1-5.3s.4-3.8,1.2-5.3c.8-1.5,1.9-2.8,3.4-3.6,1.5-.9,3.2-1.3,5.2-1.3s4.2.6,5.7,1.7c1.5,1.1,2.5,2.6,2.9,4.5h-3.8c-.3-1-.8-1.7-1.7-2.3-.8-.5-1.9-.8-3.2-.8s-2.5.3-3.4.9c-.9.6-1.7,1.4-2.2,2.5-.5,1.1-.7,2.3-.7,3.8s.2,2.7.7,3.8c.5,1.1,1.2,1.9,2.1,2.4.9.5,2,.8,3.2.8,1.8,0,3.2-.5,4.1-1.5.9-1,1.5-2.4,1.7-4h-5.1v-2.5h8.5v10.7h-3.1l-.3-2.7c-.4.6-.9,1.2-1.5,1.7-.6.4-1.2.8-2,1-.7.2-1.6.3-2.6.3Z"/>
</svg>